SplineFontDB: 3.0
FontName: Allan
FullName: Allan
FamilyName: Allan
Weight: Bold
Copyright: Copyright: Copyright (c) 2010, Anton Koovit (info@kork.ee). All rights reserved. Licenced under SIL OFL v1.1\n\n
Version: 1.002
ItalicAngle: -14.3
UnderlinePosition: 0
UnderlineWidth: 0
Ascent: 1624
Descent: 424
LayerCount: 2
Layer: 0 0 "Back"  1
Layer: 1 1 "Fore"  0
NeedsXUIDChange: 1
FSType: 0
OS2Version: 0
OS2_WeightWidthSlopeOnly: 0
OS2_UseTypoMetrics: 1
CreationTime: 1292094997
ModificationTime: 1295303426
PfmFamily: 65
TTFWeight: 500
TTFWidth: 5
LineGap: 0
VLineGap: 0
OS2TypoAscent: 1583
OS2TypoAOffset: 0
OS2TypoDescent: -465
OS2TypoDOffset: 0
OS2TypoLinegap: 512
OS2WinAscent: 1836
OS2WinAOffset: 0
OS2WinDescent: 724
OS2WinDOffset: 0
HheadAscent: 1836
HheadAOffset: 0
HheadDescent: -724
HheadDOffset: 0
OS2Vendor: 'KORK'
Lookup: 258 0 0 "'kern' Horizontal Kerning in Latin lookup 0"  {"'kern' Horizontal Kerning in Latin lookup 0 subtable" [307,30,0] } ['kern' ('latn' <'dflt' > ) ]
Lookup: 258 0 0 "'kern' Horizontal Kerning lookup 0"  {"'kern' Horizontal Kerning lookup 0 subtable"  } ['kern' ('DFLT' <'dflt' > ) ]
MarkAttachClasses: 1
DEI: 91125
TtTable: prep
PUSHW_1
 511
SCANCTRL
PUSHB_1
 1
SCANTYPE
SVTCA[y-axis]
MPPEM
PUSHB_1
 8
LT
IF
PUSHB_2
 1
 1
INSTCTRL
EIF
PUSHB_2
 70
 6
CALL
IF
POP
PUSHB_1
 16
EIF
MPPEM
PUSHB_1
 20
GT
IF
POP
PUSHB_1
 128
EIF
SCVTCI
PUSHB_1
 6
CALL
NOT
IF
SVTCA[y-axis]
PUSHB_1
 6
DUP
RCVT
PUSHB_1
 3
CALL
WCVTP
PUSHB_1
 7
DUP
RCVT
PUSHB_3
 6
 39
 2
CALL
PUSHB_1
 3
CALL
WCVTP
PUSHB_1
 8
DUP
RCVT
PUSHB_3
 6
 47
 2
CALL
PUSHB_1
 3
CALL
WCVTP
SVTCA[x-axis]
PUSHB_1
 9
DUP
RCVT
PUSHB_1
 3
CALL
WCVTP
PUSHB_1
 17
DUP
RCVT
PUSHB_3
 9
 210
 2
CALL
PUSHB_2
 3
 70
SROUND
CALL
WCVTP
PUSHB_1
 16
DUP
RCVT
PUSHB_3
 17
 107
 2
CALL
PUSHB_2
 3
 70
SROUND
CALL
WCVTP
PUSHB_1
 15
DUP
RCVT
PUSHB_3
 16
 70
 2
CALL
PUSHB_2
 3
 70
SROUND
CALL
WCVTP
PUSHB_1
 14
DUP
RCVT
PUSHB_3
 15
 63
 2
CALL
PUSHB_2
 3
 70
SROUND
CALL
WCVTP
PUSHB_1
 13
DUP
RCVT
PUSHB_3
 14
 41
 2
CALL

StartChar: .notdef
Encoding: 65536 -1 0
Width: 1460
VWidth: 0
Flags: W
HStem: 0 100<347 1021> 1350 98<681 1355>
DStem2: 221 68 347 100 0.246999 0.969016<62.1304 1355.9> 1021 100 1129 54 0.246999 0.969016<0 1293.77>
LayerCount: 2
Back
SplineSet
1404 1398 m 2
 1410 1420 1410 1448 1366 1448 c 2
 556 1448 l 2
 520 1448 500 1436 490 1396 c 2
 136 68 l 2
 120 12 146 0 176 0 c 2
 972 0 l 2
 1016 0 1032 12 1044 54 c 2
 1404 1398 l 2
596 1350 m 1
 1270 1350 l 1
 936 100 l 1
 262 100 l 1
 596 1350 l 1
EndSplineSet
Fore
SplineSet
681 1350 m 1,0,-1
 347 100 l 1,1,-1
 1021 100 l 1,2,-1
 1355 1350 l 1,3,-1
 681 1350 l 1,0,-1
1489 1398 m 2,4,5
 1129 54 l 2,6,7
 1124 37 1124 37 1118 26 c 0,8,9
 1103 0 1103 0 1057 0 c 2,10,-1
 261 0 l 2,11,12
 203 1 203 1 221 68 c 2,13,-1
 575 1396 l 2,14,15
 577 1404 577 1404 580 1412 c 0,16,17
 595 1448 595 1448 641 1448 c 2,18,-1
 1451 1448 l 2,19,20
 1503 1448 1503 1448 1489 1398 c 2,4,5
EndSplineSet
Validated: 19489
Colour: ffffff
EndChar

StartChar: A
Encoding: 65 65 1
Width: 1052
VWidth: 0
Flags: MW
HStem: 0 21G<752.029 944.259> 390 238<530.459 731.459> 1426 20G<716.493 982.93 1000.82 1032.46>
DStem2: 709.455 54 977.455 44 0.0565708 0.998399<-40.0614 336.706 575.23 1090.39>
LayerCount: 2
Back
SplineSet
696 1404 m 1
 606 54 l 2
 602 22 618 0 652 0 c 2
 814 0 l 2
 844 0 870 12 874 44 c 1
 948 1350 l 2
 952 1416 916 1450 870 1446 c 1
 640 1444 l 2
 602 1444 556 1418 530 1364 c 2
 -138 78 l 1
 -152 38 -144 6 -94 4 c 2
 62 -2 l 1
 102 -6 124 10 138 38 c 2
 802 1394 l 1
 696 1404 l 1
208 628 m 2
 190 628 184 624 178 588 c 1
 148 462 l 2
 134 410 146 390 184 390 c 2
 746 390 l 2
 774 390 804 416 810 446 c 2
 834 564 l 2
 844 608 828 628 792 628 c 2
 208 628 l 2
EndSplineSet
Fore
SplineSet
531 628 m 1,0,-1
 748 628 l 1,1,-1
 783 1142 l 1,2,-1
 531 628 l 1,0,-1
414 390 m 1,3,-1
 242 38 l 2,4,5
 219 -6 219 -6 166 -2 c 1,6,-1
 10 4 l 2,7,8
 9 4 9 4 6 4 c 0,9,10
 -58 9 -58 9 -34 78 c 1,11,-1
 634 1364 l 2,12,13
 641 1378 641 1378 651 1392 c 0,14,15
 690 1444 690 1444 744 1444 c 2,16,-1
 974 1446 l 1,17,18
 993 1447 993 1447 1009 1440 c 0,19,20
 1055 1419 1055 1419 1052 1350 c 2,21,-1
 978 44 l 1,22,23
 972 2 972 2 918 0 c 1,24,-1
 756 0 l 2,25,26
 749 0 749 0 742 1 c 0,27,28
 704 9 704 9 710 54 c 1,29,-1
 732 390 l 1,30,-1
 414 390 l 1,3,-1
EndSplineSet
Validated: 19489
Colour: ff00
EndChar

StartChar: AE
Encoding: 198 198 2
Width: 1532
VWidth: 0
Flags: MW
HStem: 0 238<992 1406.06> 390 238<554 750> 666 238<1105 1533.04> 1210 238<1157 1702.06>
DStem2: 750 390 992 238 0.173377 0.984855<-107.741 0 241.677 326.434 567.765 777.805>
LayerCount: 2
Back
SplineSet
826 1210 m 2
 1554 1210 l 2
 1584 1210 1616 1236 1622 1266 c 2
 1648 1384 l 2
 1658 1428 1640 1448 1602 1448 c 2
 860 1448 l 2
 834 1448 828 1444 820 1408 c 2
 788 1282 l 2
 774 1230 786 1210 826 1210 c 2
850 904 m 1
 826 666 l 1
 1388 666 l 2
 1416 666 1446 692 1452 722 c 2
 1476 840 l 2
 1486 884 1470 904 1434 904 c 2
 850 904 l 1
684 238 m 1
 620 72 l 1
 606 20 618 0 658 0 c 2
 1258 0 l 2
 1288 0 1320 26 1326 56 c 2
 1352 174 l 2
 1362 218 1344 238 1306 238 c 2
 684 238 l 1
844 1404 m 1
 606 54 l 2
 602 22 618 0 652 0 c 2
 814 0 l 2
 844 0 870 12 874 44 c 2
 1096 1350 l 1
 1100 1416 1064 1452 1018 1448 c 1
 776 1448 l 2
 730 1448 692 1414 658 1364 c 2
 -190 90 l 2
 -222 42 -204 6 -154 4 c 2
 22 -2 l 1
 62 -6 84 10 98 38 c 1
 950 1394 l 1
 844 1404 l 1
306 628 m 1
 184 390 l 1
 746 390 l 1
 792 628 l 1
 306 628 l 1
EndSplineSet
Fore
SplineSet
554 628 m 1,0,-1
 792 628 l 1,1,-1
 885 1156 l 1,2,-1
 554 628 l 1,0,-1
404 390 m 1,3,-1
 183 38 l 2,4,5
 158 -2 158 -2 111 -2 c 0,6,7
 107 -2 l 1,8,-1
 -69 4 l 2,9,10
 -92 5 -92 5 -107 16 c 0,11,12
 -139 39 -139 39 -105 90 c 2,13,-1
 743 1364 l 2,14,15
 799 1448 799 1448 861 1448 c 2,16,-1
 1687 1448 l 2,17,18
 1746 1448 1746 1448 1733 1384 c 1,19,-1
 1707 1266 l 2,20,21
 1704 1254 1704 1254 1696 1242 c 0,22,23
 1676 1210 1676 1210 1639 1210 c 2,24,-1
 1157 1210 l 1,25,-1
 1105 904 l 1,26,-1
 1519 904 l 2,27,28
 1574 904 1574 904 1561 840 c 2,29,-1
 1537 722 l 2,30,31
 1535 711 1535 711 1527 698 c 0,32,33
 1506 666 1506 666 1473 666 c 2,34,-1
 1065 666 l 1,35,-1
 992 238 l 1,36,-1
 1391 238 l 2,37,38
 1450 238 1450 238 1437 174 c 1,39,-1
 1411 56 l 2,40,41
 1408 44 1408 44 1400 32 c 0,42,43
 1380 0 1380 0 1343 0 c 2,44,-1
 737 0 l 2,45,46
 718 0 718 0 699 17 c 0,47,48
 686 28 686 28 691 54 c 2,49,-1
 750 390 l 1,50,-1
 404 390 l 1,3,-1
EndSplineSet
Validated: 19489
Colour: ffffff
EndChar

StartChar: Aring
Encoding: 197 197 7
Width: 1108
VWidth: 0
Flags: MW
HStem: 0 21G<721.284 933.779> 390 238<518 722> 1558 166<790.1 951.856>
DStem2: 699 54 969 58 0.0583592 0.998296<-26.4356 336.77 575.298 1105.56>
LayerCount: 2
Back
SplineSet
250 628 m 2
 232 628 226 624 220 588 c 1
 190 462 l 2
 176 410 188 390 226 390 c 2
 788 390 l 2
 816 390 846 416 852 446 c 2
 876 564 l 2
 886 608 870 628 834 628 c 2
 250 628 l 2
696 1248 m 1
 614 54 l 2
 612 22 626 0 660 0 c 2
 822 0 l 2
 852 0 880 12 882 44 c 2
 958 1324 l 2
 962 1390 878 1248 832 1252 c 2
 570 1272 l 1
 532 1272 538 1370 512 1316 c 2
 -130 78 l 2
 -150 40 -136 6 -86 4 c 2
 70 -2 l 2
 110 -4 132 10 146 38 c 2
 732 1244 l 1
 696 1248 l 1
458 1418 m 0
 442 1292 508 1182 614 1136 c 1
 700 1172 l 1
 734 1112 l 1
 908 1112 1066 1250 1088 1418 c 0
 1108 1586 982 1724 808 1724 c 0
 634 1724 478 1586 458 1418 c 0
670 1448 m 0
 694 1524 760 1572 816 1554 c 0
 874 1536 902 1460 876 1382 c 0
 850 1308 784 1260 726 1276 c 0
 668 1294 644 1370 670 1448 c 0
EndSplineSet
Fore
SplineSet
755 1448 m 0,0,1
 739 1401 739 1401 747 1356 c 0,2,3
 759 1292 759 1292 811 1276 c 1,4,5
 844 1267 844 1267 879 1284 c 0,6,7
 936 1312 936 1312 961 1382 c 1,8,9
 977 1430 977 1430 967 1476 c 0,10,11
 948 1558 948 1558 877 1558 c 0,12,13
 856 1558 856 1558 833 1547 c 0,14,15
 777 1518 777 1518 755 1448 c 0,0,1
543 1418 m 1,16,17
 559 1541 559 1541 656 1630 c 0,18,19
 759 1724 759 1724 893 1724 c 0,20,21
 1021 1722 1021 1722 1107 1633 c 1,22,23
 1190 1541 1190 1541 1173 1418 c 0,24,25
 1154 1277 1154 1277 1035 1187 c 1,26,-1
 969 58 l 2,27,28
 967 29 967 29 955 12 c 0,29,30
 945 0 945 0 907 0 c 2,31,-1
 745 0 l 1,32,33
 695 1 695 1 699 54 c 2,34,-1
 722 390 l 2,35,-1
 402 390 l 1,36,-1
 234 38 l 2,37,38
 214 -4 214 -4 155 -2 c 2,39,-1
 -1 4 l 2,40,41
 -22 5 -22 5 -37 14 c 0,42,43
 -65 33 -65 33 -42 78 c 2,44,-1
 568 1261 l 1,45,46
 533 1332 533 1332 543 1418 c 1,16,17
775 1157 m 1,47,-1
 518 628 l 1,48,-1
 738 628 l 1,49,-1
 775 1157 l 1,47,-1
EndSplineSet
Validated: 19489
Colour: ffffff
EndChar

StartChar: B
Encoding: 66 66 9
Width: 1081
VWidth: 0
Flags: MW
HStem: 0 248<433.999 620.916> 1214 234<330.812 405.999 679.999 835.342>
VStem: 847 309<954.139 1200.79>
DStem2: 112 62 433.999 248 0.247282 0.968943<259.848 678.464 880.018 1188.92>
LayerCount: 2
Back
SplineSet
382 644 m 1
 472 644 538 642 566 618 c 0
 608 584 608 522 582 438 c 0
 534 290 450 256 344 250 c 2
 264 246 l 1
 134 0 l 1
 226 0 l 2
 406 0 536 -10 668 108 c 1
 768 194 838 352 852 470 c 0
 870 644 836 718 730 758 c 1
 740 718 l 1
 808 734 884 774 940 864 c 0
 986 938 1020 1054 1020 1158 c 0
 1020 1346 876 1448 636 1448 c 0
 344 1448 242 1448 242 1448 c 2
 226 1448 202 1432 196 1408 c 2
 158 1266 l 2
 150 1238 184 1214 218 1214 c 0
 260 1214 226 1214 614 1214 c 0
 702 1214 722 1162 706 1072 c 0
 684 954 626 842 488 846 c 1
 432 850 l 1
 382 644 l 1
318 1404 m 2
 -24 62 l 2
 -32 30 -18 0 16 0 c 2
 186 0 l 2
 216 0 238 14 246 44 c 2
 588 1386 l 2
 596 1418 582 1448 548 1448 c 2
 378 1448 l 2
 348 1448 326 1434 318 1404 c 2
EndSplineSet
Fore
SplineSet
587 849 m 1,0,-1
 624 846 l 2,1,2
 638 846 638 846 650 847 c 0,3,4
 802 860 802 860 842 1072 c 0,5,6
 848 1106 848 1106 847 1131 c 0,7,8
 843 1214 843 1214 750 1214 c 2,9,-1
 680 1214 l 1,10,-1
 587 849 l 1,0,-1
406 1214 m 1,11,-1
 354 1214 l 2,12,13
 336 1214 336 1214 320 1222 c 0,14,15
 286 1239 286 1239 294 1266 c 2,16,-1
 332 1408 l 2,17,18
 334 1416 334 1416 339 1424 c 0,19,20
 355 1448 355 1448 378 1448 c 2,21,-1
 514 1448 l 1,22,-1
 684 1448 l 1,23,-1
 772 1448 l 2,24,25
 904 1448 904 1448 995 1408 c 0,26,27
 1156 1336 1156 1336 1156 1158 c 0,28,29
 1156 1131 1156 1131 1153 1102 c 0,30,31
 1138 964 1138 964 1076 864 c 0,32,33
 1017 769 1017 769 919 731 c 1,34,35
 937 718 937 718 952 701 c 0,36,37
 1006 635 1006 635 988 470 c 0,38,39
 981 411 981 411 957 344 c 0,40,41
 901 192 901 192 804 108 c 1,42,43
 709 23 709 23 576 6 c 0,44,45
 527 0 527 0 362 0 c 2,46,-1
 322 0 l 1,47,-1
 270 0 l 1,48,-1
 152 0 l 2,49,50
 139 0 139 0 129 6 c 0,51,52
 103 23 103 23 112 62 c 2,53,-1
 406 1214 l 1,11,-1
434 248 m 1,54,-1
 480 250 l 2,55,56
 534 253 534 253 573 267 c 0,57,58
 674 303 674 303 718 438 c 1,59,60
 759 570 759 570 702 618 c 0,61,62
 671 644 671 644 535 644 c 1,63,-1
 434 248 l 1,54,-1
EndSplineSet
Validated: 19489
Colour: ffffff
EndChar

StartChar: C
Encoding: 67 67 10
Width: 923
VWidth: 0
Flags: W
HStem: -16 21G<376.695 487.57> 1200 264<625.119 731.286>
VStem: 120 287<231.547 716.353>
LayerCount: 2
Back
SplineSet
928 1078 m 0
 896 1308 836 1416 704 1448 c 0
 674 1456 626 1464 598 1464 c 0
 348 1464 148 1182 58 816 c 0
 -30 464 -28 142 160 26 c 0
 218 -10 266 -16 288 -16 c 0
 498 -16 610 92 756 326 c 0
 776 358 776 396 750 406 c 2
 586 478 l 2
 544 496 530 486 504 436 c 0
 442 314 410 266 358 228 c 0
 354 226 344 230 340 228 c 1
 268 246 274 494 342 752 c 0
 414 1028 496 1200 582 1200 c 0
 588 1200 600 1198 606 1196 c 1
 628 1140 640 1106 648 1008 c 0
 650 976 682 954 712 962 c 2
 888 1014 l 1
 920 1026 932 1050 928 1078 c 0
EndSplineSet
Fore
SplineSet
1048 1068 m 0,0,1
 1051 1032 1051 1032 1007 1014 c 1,2,-1
 831 962 l 2,3,4
 817 958 817 958 799 964 c 0,5,6
 769 976 769 976 767 1008 c 0,7,8
 765 1031 765 1031 763 1050 c 0,9,10
 755 1121 755 1121 725 1196 c 1,11,12
 713 1200 713 1200 701 1200 c 0,13,14
 578 1199 578 1199 461 752 c 0,15,16
 408 549 408 549 408 404 c 0,17,18
 408 243 408 243 459 228 c 1,19,-1
 477 228 l 1,20,21
 495 241 495 241 512 258 c 0,22,23
 553 301 553 301 623 436 c 0,24,25
 637 463 637 463 648 475 c 0,26,27
 667 495 667 495 705 478 c 2,28,-1
 869 406 l 2,29,30
 878 402 878 402 884 393 c 0,31,32
 900 366 900 366 875 326 c 0,33,34
 769 156 769 156 683 82 c 0,35,36
 569 -16 569 -16 407 -16 c 0,37,38
 347 -16 347 -16 279 26 c 0,39,40
 208 71 208 71 167 158 c 0,41,42
 120 262 120 262 120 417 c 0,43,44
 120 587 120 587 177 816 c 0,45,46
 247 1095 247 1095 372 1257 c 0,47,48
 532 1464 532 1464 717 1464 c 0,49,50
 894 1464 894 1464 974 1334 c 0,51,52
 1034 1237 1034 1237 1048 1068 c 0,0,1
EndSplineSet
Validated: 19489
Colour: ffffff
EndChar

StartChar: D
Encoding: 68 68 14
Width: 994
VWidth: 0
Flags: MW
HStem: -8 258<425.695 576.545> 1201 261<662.344 760.621>
VStem: 786 288<692.27 1179.49>
DStem2: 110 104 424 252 0.247775 0.968818<221.186 1121.99>
LayerCount: 2
Back
SplineSet
292 1306 m 1
 -16 104 l 2
 -32 42 -14 16 36 6 c 0
 120 -10 224 -8 320 -8 c 0
 622 -8 796 274 884 610 c 0
 918 740 948 894 948 1034 c 0
 948 1264 846 1462 526 1462 c 0
 324 1462 226 1436 186 1428 c 0
 170 1424 144 1412 140 1388 c 2
 120 1230 l 2
 116 1202 128 1174 162 1174 c 0
 204 1174 216 1202 528 1202 c 1
 560 1200 588 1196 600 1192 c 0
 674 1170 680 938 616 682 c 0
 534 360 450 250 368 250 c 0
 356 250 316 250 298 252 c 1
 562 1288 l 1
 292 1306 l 1
EndSplineSet
Fore
SplineSet
666 1201 m 1,0,1
 424 252 l 1,2,3
 442 250 442 250 494 250 c 0,4,5
 632 251 632 251 742 682 c 1,6,7
 789 873 789 873 786 1023 c 0,8,9
 782 1176 782 1176 726 1192 c 0,10,11
 705 1198 705 1198 666 1201 c 1,0,1
388 1191 m 1,12,13
 365 1188 365 1188 344 1184 c 0,14,15
 293 1174 293 1174 288 1174 c 0,16,17
 278 1174 278 1174 269 1178 c 0,18,19
 240 1190 240 1190 246 1230 c 2,20,-1
 266 1388 l 1,21,22
 272 1417 272 1417 312 1428 c 0,23,24
 314 1428 314 1428 318 1429 c 0,25,26
 474 1462 474 1462 652 1462 c 0,27,28
 785 1462 785 1462 878 1416 c 0,29,30
 1074 1319 1074 1319 1074 1034 c 0,31,32
 1074 855 1074 855 1010 610 c 0,33,34
 969 455 969 455 909 334 c 0,35,36
 738 -8 738 -8 446 -8 c 0,37,38
 440 -8 440 -8 432 -8 c 0,39,40
 237 -8 237 -8 162 6 c 0,41,42
 149 9 149 9 139 13 c 0,43,44
 92 33 92 33 110 104 c 2,45,-1
 388 1191 l 1,12,13
EndSplineSet
Validated: 19489
Colour: ffffff
EndChar

StartChar: E
Encoding: 69 69 15
Width: 948
VWidth: 0
Flags: MW
HStem: 0 238<755.432 818.432> 666 238 1210 238<318.432 357.432 1051.43 1114.43>
DStem2: 101.432 62 420.432 238 0.246951 0.969028<249.434 691.114 936.722 1184.69>
LayerCount: 2
Back
SplineSet
198 1210 m 2
 926 1210 l 2
 956 1210 988 1236 994 1266 c 2
 1020 1384 l 2
 1030 1428 1012 1448 974 1448 c 2
 232 1448 l 2
 206 1448 200 1444 192 1408 c 2
 160 1282 l 2
 146 1230 158 1210 198 1210 c 2
318 1404 m 2
 -24 62 l 2
 -32 30 -18 0 16 0 c 2
 186 0 l 2
 216 0 238 14 246 44 c 2
 588 1386 l 2
 596 1418 582 1448 548 1448 c 2
 378 1448 l 2
 348 1448 326 1434 318 1404 c 2
222 904 m 2
 204 904 198 900 192 864 c 1
 162 738 l 2
 148 686 160 666 198 666 c 2
 760 666 l 2
 788 666 818 692 824 722 c 2
 848 840 l 2
 858 884 842 904 806 904 c 2
 222 904 l 2
56 238 m 2
 38 238 32 234 24 198 c 2
 -8 72 l 2
 -22 20 -10 0 30 0 c 2
 630 0 l 2
 660 0 692 26 698 56 c 2
 724 174 l 2
 734 218 716 238 678 238 c 2
 56 238 l 2
EndSplineSet
Fore
SplineSet
591 904 m 1,0,-1
 932 904 l 2,1,2
 987 903 987 903 974 840 c 2,3,-1
 950 722 l 2,4,5
 947 710 947 710 940 698 c 0,6,7
 918 666 918 666 886 666 c 2,8,-1
 531 666 l 1,9,-1
 421 238 l 1,10,-1
 804 238 l 2,11,12
 863 237 863 237 850 174 c 1,13,-1
 824 56 l 2,14,15
 821 44 821 44 813 32 c 0,16,17
 790 0 790 0 756 0 c 2,18,-1
 142 0 l 2,19,20
 129 0 129 0 118 6 c 0,21,22
 92 23 92 23 102 62 c 2,23,-1
 395 1210 l 1,24,-1
 324 1210 l 2,25,26
 316 1210 316 1210 309 1211 c 0,27,28
 269 1218 269 1218 286 1282 c 2,29,-1
 318 1408 l 2,30,31
 322 1426 322 1426 327.5 1437 c 128,-1,32
 333 1448 333 1448 358 1448 c 2,33,-1
 1100 1448 l 2,34,35
 1159 1447 1159 1447 1146 1384 c 1,36,-1
 1120 1266 l 2,37,38
 1117 1254 1117 1254 1109 1242 c 0,39,40
 1086 1210 1086 1210 1052 1210 c 2,41,-1
 669 1210 l 1,42,-1
 591 904 l 1,0,-1
EndSplineSet
Validated: 19489
Colour: ffffff
EndChar

StartChar: Eth
Encoding: 208 208 20
Width: 924
VWidth: 0
Flags: MW
HStem: -8 258<387 538> 1201 259
DStem2: 69 104 383 252 0.24822 0.968704<221.31 1121.63>
LayerCount: 2
Back
SplineSet
162 762 m 2
 144 762 138 758 130 722 c 2
 98 596 l 2
 84 544 96 524 136 524 c 2
 736 524 l 2
 766 524 798 550 804 580 c 2
 830 698 l 2
 840 742 822 762 784 762 c 2
 162 762 l 2
EndSplineSet
Fore
SplineSet
106 826 m 2,0,1
 254 826 l 1,2,-1
 347 1191 l 1,3,4
 324 1188 324 1188 303 1184 c 0,5,6
 251 1174 251 1174 247 1174 c 0,7,8
 237 1174 237 1174 228 1178 c 0,9,10
 204 1188 204 1188 204 1218 c 0,11,12
 204 1224 204 1224 205 1230 c 2,13,-1
 225 1388 l 2,14,15
 231 1417 231 1417 271 1428 c 2,16,-1
 277 1429 l 2,17,18
 436 1462 436 1462 611 1462 c 0,19,20
 744 1462 744 1462 837 1416 c 0,21,22
 1033 1319 1033 1319 1033 1034 c 0,23,24
 1033 855 1033 855 969 610 c 0,25,26
 928 455 928 455 868 334 c 0,27,28
 697 -8 697 -8 405 -8 c 2,29,-1
 391 -8 l 2,30,31
 195 -8 195 -8 121 6 c 0,32,33
 108 9 108 9 98 13 c 0,34,35
 64 27 64 27 64 68 c 0,36,37
 64 84 64 84 69 104 c 2,38,-1
 193 588 l 1,39,-1
 80 588 l 2,40,41
 73 588 73 588 65 589 c 0,42,43
 37 593 37 593 37 627 c 0,44,45
 37 641 37 641 42 660 c 2,46,-1
 74 786 l 2,47,48
 79 805 79 805 81 811 c 0,49,50
 87 826 87 826 106 826 c 2,0,1
625 1201 m 1,51,-1
 529 826 l 1,52,-1
 597 826 l 2,53,54
 645 826 645 826 645 783 c 0,55,56
 645 774 645 774 643 762 c 2,57,-1
 617 644 l 2,58,59
 614 632 614 632 606 620 c 0,60,61
 583 588 583 588 549 588 c 2,62,-1
 469 588 l 1,63,-1
 383 252 l 1,64,65
 401 250 401 250 453 250 c 0,66,67
 591 251 591 251 701 682 c 0,68,69
 745 859 745 859 745 1001 c 0,70,71
 745 1023 l 0,72,73
 741 1176 741 1176 685 1192 c 0,74,75
 664 1198 664 1198 625 1201 c 1,51,-1
EndSplineSet
Validated: 19457
Colour: ffffff
EndChar

StartChar: Euro
Encoding: 8364 8364 21
Width: 900
VWidth: 0
Flags: MW
HStem: -22 252<396.244 528.638> 466 176<-51.965 -46.052 -46.052 -46.052 -38.405 96 402 832.652> 726 176<-9.9646 -4.0517 -4.0517 -4.0517 3.5955 123 471 904.652> 1174 289<584.263 716.122>
VStem: 96 286<233.144 466> 722 265<1058.32 1168.28>
LayerCount: 2
Back
SplineSet
902 1092 m 0
 902 1320 854 1410 686 1452 c 0
 396 1526 158 1224 58 816 c 0
 -42 414 8 66 274 -2 c 1
 520 -68 670 24 772 312 c 0
 784 348 790 374 756 378 c 2
 618 398 l 2
 566 406 562 402 536 364 c 1
 442 256 452 230 354 230 c 0
 280 230 274 494 342 752 c 0
 420 1048 504 1198 596 1172 c 0
 646 1158 640 1106 636 1000 c 0
 634 972 644 960 670 968 c 2
 862 1028 l 2
 894 1040 902 1064 902 1092 c 0
-62 902 m 2
 -80 902 -86 898 -94 862 c 1
 -112 798 l 2
 -126 746 -114 726 -74 726 c 2
 756 726 l 2
 786 726 818 752 824 782 c 2
 836 838 l 2
 846 882 828 902 790 902 c 2
 -62 902 l 2
-104 642 m 2
 -122 642 -128 638 -136 602 c 1
 -154 538 l 2
 -168 486 -156 466 -116 466 c 2
 684 466 l 2
 714 466 746 492 752 522 c 2
 764 578 l 2
 774 622 756 642 718 642 c 2
 -104 642 l 2
EndSplineSet
Fore
SplineSet
-19 642 m 2,0,1
 109 642 l 1,2,3
 117 697 117 697 123 726 c 1,4,-1
 11 726 l 2,5,6
 4 726 4 726 -4 727 c 0,7,8
 -45 735 -45 735 -27 798 c 2,9,-1
 -9 862 l 2,10,11
 -2 887 l 0,12,13
 4 902 4 902 23 902 c 2,14,-1
 167 902 l 1,15,16
 251 1174 251 1174 398 1326 c 0,17,18
 531 1463 531 1463 682 1463 c 0,19,20
 856 1463 856 1463 933 1355 c 0,21,22
 987 1279 987 1279 987 1092 c 0,23,24
 987 1044 987 1044 947 1028 c 1,25,-1
 755 968 l 2,26,27
 749 966 749 966 743 966 c 0,28,29
 718 964 718 964 721 1000 c 1,30,31
 725 1097 725 1097 722 1113 c 0,32,33
 712 1174 712 1174 662 1174 c 0,34,35
 565 1174 565 1174 471 902 c 1,36,-1
 875 902 l 2,37,38
 935 902 935 902 921 838 c 2,39,-1
 909 782 l 2,40,41
 906 769 906 769 898 758 c 0,42,43
 876 726 876 726 841 726 c 2,44,-1
 420 726 l 1,45,46
 409 684 409 684 402 642 c 1,47,-1
 803 642 l 2,48,49
 863 642 863 642 849 578 c 2,50,-1
 837 522 l 2,51,52
 834 509 834 509 826 498 c 0,53,54
 804 466 804 466 769 466 c 2,55,-1
 381 466 l 1,56,57
 378 406 378 406 382 357 c 0,58,59
 392 230 392 230 439 230 c 0,60,61
 489 230 489 230 514 244 c 0,62,63
 533 254 533 254 569 300 c 0,64,65
 599 338 599 338 621 364 c 1,66,67
 637 387 637 387 646 394 c 0,68,69
 659 404 659 404 703 398 c 2,70,-1
 841 378 l 2,71,72
 850 377 850 377 858 372 c 0,73,74
 873 361 873 361 857 312 c 1,75,76
 826 198 826 198 685 62 c 0,77,78
 598 -22 598 -22 417 -22 c 0,79,80
 345 -22 345 -22 248 51 c 0,81,82
 95 168 95 168 96 466 c 1,83,-1
 -31 466 l 2,84,85
 -38 466 -38 466 -46 467 c 0,86,87
 -87 475 -87 475 -69 538 c 2,88,-1
 -51 602 l 2,89,90
 -44 627 l 0,91,92
 -38 642 -38 642 -19 642 c 2,0,1
EndSplineSet
Validated: 19489
Colour: ffffff
EndChar

StartChar: F
Encoding: 70 70 22
Width: 929
VWidth: 0
Flags: W
HStem: 0 21G<146.254 346.549> 566 238<576.656 930.695> 1210 238<334.656 405.656 679.656 1125.72>
DStem2: 112.656 62 382.656 44 0.246999 0.969016<-7.31552 587.924 833.617 1184.8>
LayerCount: 2
Back
SplineSet
198 1210 m 2
 926 1210 l 2
 956 1210 988 1236 994 1266 c 2
 1020 1384 l 2
 1030 1428 1012 1448 974 1448 c 2
 232 1448 l 2
 206 1448 200 1444 192 1408 c 2
 160 1282 l 2
 146 1230 158 1210 198 1210 c 2
196 804 m 2
 178 804 172 800 166 764 c 1
 136 638 l 2
 122 586 134 566 172 566 c 2
 734 566 l 2
 762 566 792 592 798 622 c 2
 822 740 l 2
 832 784 816 804 780 804 c 2
 196 804 l 2
318 1404 m 2
 -24 62 l 2
 -32 30 -18 0 16 0 c 2
 186 0 l 2
 216 0 238 14 246 44 c 2
 588 1386 l 2
 596 1418 582 1448 548 1448 c 2
 378 1448 l 2
 348 1448 326 1434 318 1404 c 2
EndSplineSet
Fore
SplineSet
577 804 m 1,0,-1
 917 804 l 2,1,2
 972 803 972 803 959 740 c 2,3,-1
 935 622 l 2,4,5
 932 610 932 610 925 598 c 0,6,7
 903 566 903 566 871 566 c 2,8,-1
 516 566 l 1,9,-1
 383 44 l 1,10,11
 371 1 371 1 323 0 c 1,12,-1
 153 0 l 2,13,14
 140 0 140 0 130 6 c 0,15,16
 104 23 104 23 113 62 c 2,17,-1
 406 1210 l 1,18,-1
 335 1210 l 2,19,20
 327 1210 327 1210 320 1211 c 0,21,22
 280 1218 280 1218 297 1282 c 2,23,-1
 329 1408 l 2,24,25
 333 1426 333 1426 338 1435 c 0,26,27
 345 1448 345 1448 369 1448 c 2,28,-1
 515 1448 l 1,29,-1
 685 1448 l 1,30,-1
 1111 1448 l 2,31,32
 1170 1447 1170 1447 1157 1384 c 1,33,-1
 1131 1266 l 2,34,35
 1128 1254 1128 1254 1120 1242 c 0,36,37
 1097 1210 1097 1210 1063 1210 c 2,38,-1
 680 1210 l 1,39,-1
 577 804 l 1,0,-1
EndSplineSet
Validated: 19489
Colour: ffffff
EndChar

StartChar: G
Encoding: 71 71 23
Width: 970
VWidth: 0
Flags: W
HStem: -12 268<428.258 563.817> 486 212<520.375 662> 1175 289<617.041 743.332>
VStem: 120 290<260.605 731.795> 754 296<1021.84 1172.02>
LayerCount: 2
Back
SplineSet
932 1056 m 0
 932 1234 896 1350 796 1412 c 0
 742 1446 664 1464 598 1464 c 0
 348 1464 148 1182 58 816 c 0
 26 690 2 550 2 442 c 0
 2 248 42 104 162 32 c 0
 218 0 296 -12 350 -12 c 0
 570 -12 730 186 820 466 c 1
 834 502 840 538 814 546 c 1
 606 530 l 1
 580 542 560 534 548 498 c 0
 498 322 410 240 348 256 c 0
 276 274 274 494 342 752 c 0
 420 1048 504 1198 596 1172 c 0
 646 1158 636 1062 632 956 c 0
 630 928 640 916 666 924 c 2
 892 992 l 1
 924 1004 932 1028 932 1056 c 0
438 698 m 2
 420 698 414 694 408 674 c 2
 372 542 l 2
 362 504 368 486 396 486 c 2
 812 486 l 2
 838 486 846 516 854 542 c 2
 886 654 l 2
 898 690 882 698 868 698 c 2
 438 698 l 2
EndSplineSet
Fore
SplineSet
556 698 m 2,0,1
 986 698 l 2,2,3
 1017 697 1017 697 1004 654 c 1,4,-1
 972 542 l 2,5,6
 960 502 960 502 946 491 c 1,7,8
 943 480 943 480 938 466 c 0,9,10
 893 325 893 325 827 221 c 0,11,12
 680 -12 680 -12 468 -12 c 0,13,14
 322 -11 322 -11 238 63 c 1,15,16
 120 169 120 169 120 442 c 0,17,18
 120 595 120 595 176 816 c 0,19,20
 243 1084 243 1084 371 1257 c 0,21,22
 525 1464 525 1464 716 1464 c 1,23,24
 827 1461 827 1461 914 1412 c 1,25,26
 940 1396 940 1396 962 1373 c 0,27,28
 1050 1281 1050 1281 1050 1056 c 0,29,30
 1050 1008 1050 1008 1010 992 c 1,31,-1
 784 924 l 2,32,33
 778 922 778 922 772 922 c 0,34,35
 748 921 748 921 750 956 c 1,36,37
 754 1051 754 1051 754 1066 c 0,38,39
 753 1161 753 1161 714 1172 c 0,40,41
 705 1175 705 1175 696 1175 c 0,42,43
 573 1179 573 1179 460 752 c 0,44,45
 411 564 411 564 410 421 c 0,46,47
 410 270 410 270 466 256 c 0,48,49
 498 249 498 249 535 273 c 0,50,51
 614 327 614 327 662 486 c 1,52,-1
 514 486 l 1,53,54
 479 488 479 488 490 542 c 1,55,-1
 526 674 l 2,56,57
 527 678 527 678 529 683 c 0,58,59
 536 698 536 698 556 698 c 2,0,1
EndSplineSet
Validated: 19489
Colour: ffffff
EndChar

StartChar: H
Encoding: 72 72 24
Width: 1198
VWidth: 0
Flags: MW
HStem: 0 21G<72.3848 90.8906 102.598 302.894 730.384 748.89 760.599 960.894> 666 238 1428 20G<447.106 647.401 659.11 677.616 1105.11 1305.4 1317.11 1335.62>
DStem2: 69 62 498 666 0.246951 0.969028<-6.09172 691.114 936.722 1440.22> 881 666 997 44 0.246951 0.969028<-629.396 0 245.606 816.914>
LayerCount: 2
Back
SplineSet
354 904 m 2
 336 904 330 900 324 864 c 1
 294 738 l 2
 280 686 292 666 330 666 c 2
 892 666 l 2
 920 666 950 692 956 722 c 2
 980 840 l 2
 990 884 974 904 938 904 c 2
 354 904 l 2
326 1404 m 2
 -16 62 l 2
 -24 30 -10 0 24 0 c 2
 194 0 l 2
 224 0 246 14 254 44 c 2
 596 1386 l 2
 604 1418 590 1448 556 1448 c 2
 386 1448 l 2
 356 1448 334 1434 326 1404 c 2
984 1404 m 2
 642 62 l 2
 634 30 648 0 682 0 c 2
 852 0 l 2
 882 0 904 14 912 44 c 2
 1254 1386 l 2
 1262 1418 1248 1448 1214 1448 c 2
 1044 1448 l 2
 1014 1448 992 1434 984 1404 c 2
EndSplineSet
Fore
SplineSet
411 1404 m 1,0,1
 423 1447 423 1447 471 1448 c 1,2,-1
 641 1448 l 2,3,4
 654 1448 654 1448 664 1442 c 0,5,6
 690 1425 690 1425 681 1386 c 2,7,-1
 558 904 l 1,8,-1
 942 904 l 1,9,-1
 1069 1404 l 1,10,11
 1081 1447 1081 1447 1129 1448 c 1,12,-1
 1299 1448 l 2,13,14
 1312 1448 1312 1448 1322 1442 c 0,15,16
 1348 1425 1348 1425 1339 1386 c 2,17,-1
 997 44 l 1,18,19
 985 1 985 1 937 0 c 1,20,-1
 767 0 l 2,21,22
 754 0 754 0 744 6 c 0,23,24
 718 23 718 23 727 62 c 2,25,-1
 881 666 l 1,26,-1
 498 666 l 1,27,-1
 339 44 l 1,28,29
 327 1 327 1 279 0 c 1,30,-1
 109 0 l 2,31,32
 96 0 96 0 86 6 c 0,33,34
 60 23 60 23 69 62 c 2,35,-1
 411 1404 l 1,0,1
EndSplineSet
Validated: 19457
Colour: ffffff
EndChar

StartChar: I
Encoding: 73 73 25
Width: 552
VWidth: 0
Flags: MW
HStem: 0 21G<94.6027 294.897> 1428 20G<439.111 639.405>
DStem2: 61.0043 62 331.004 44 0.246951 0.969028<-55.288 1342>
LayerCount: 2
Back
SplineSet
318 1404 m 2
 -24 62 l 2
 -32 30 -18 0 16 0 c 2
 186 0 l 2
 216 0 238 14 246 44 c 2
 588 1386 l 2
 596 1418 582 1448 548 1448 c 2
 378 1448 l 2
 348 1448 326 1434 318 1404 c 2
EndSplineSet
Fore
SplineSet
403 1404 m 1,0,1
 415 1447 415 1447 463 1448 c 1,2,-1
 633 1448 l 2,3,4
 646 1448 646 1448 656 1442 c 0,5,6
 682 1425 682 1425 673 1386 c 2,7,-1
 331 44 l 1,8,9
 319 1 319 1 271 0 c 1,10,-1
 101 0 l 2,11,12
 88 0 88 0 78 6 c 0,13,14
 52 23 52 23 61 62 c 2,15,-1
 403 1404 l 1,0,1
EndSplineSet
Validated: 19457
Colour: ffffff
EndChar

StartChar: Iacute
Encoding: 205 205 26
Width: 552
VWidth: 0
Flags: W
HStem: 0 21<94.6027 294.897> 1428 20<439.111 639.405> 1516 298<628.531 696.75>
DStem2: 61.0043 62 331.004 44 0.246951 0.969028<-55.288 1342>
LayerCount: 2
Back
SplineSet
318 1404 m 2
 -24 62 l 2
 -32 30 -18 0 16 0 c 2
 186 0 l 2
 216 0 238 14 246 44 c 2
 588 1386 l 2
 596 1418 582 1448 548 1448 c 2
 378 1448 l 2
 348 1448 326 1434 318 1404 c 2
EndSplineSet
Refer: 66 180 N 1 0 0 1 228 366 2
Fore
Refer: 25 73 N 1 0 0 1 0 0 2
Refer: 66 180 N 1 0 0 1 278 366 2
Validated: 98305
EndChar

StartChar: Icircumflex
Encoding: 206 206 27
Width: 552
VWidth: 0
Flags: W
HStem: 0 21<94.6027 294.897> 1428 20<439.111 639.405> 1516 318
VStem: 346 557
DStem2: 61.0043 62 331.004 44 0.246951 0.969028<-55.288 1342> 361 1562 543 1538 0.707107 0.707107<36.416 282.843>
LayerCount: 2
Back
SplineSet
318 1404 m 2
 -24 62 l 2
 -32 30 -18 0 16 0 c 2
 186 0 l 2
 216 0 238 14 246 44 c 2
 588 1386 l 2
 596 1418 582 1448 548 1448 c 2
 378 1448 l 2
 348 1448 326 1434 318 1404 c 2
EndSplineSet
Refer: 94 710 N 1 0 0 1 54 366 2
Fore
Refer: 25 73 S 1 0 0 1 0 0 2
Refer: 94 710 N 1 0 0 1 104 366 2
Validated: 98305
EndChar

StartChar: Idieresis
Encoding: 207 207 28
Width: 552
VWidth: 0
Flags: W
HStem: 0 21<94.6027 294.897> 1428 20<439.111 639.405> 1520 264<396.99 574.813 717.155 894.813>
VStem: 349 258<1549.49 1752.74> 669 258<1549.83 1752.06>
DStem2: 61.0043 62 331.004 44 0.246951 0.969028<-55.288 1342>
LayerCount: 2
Back
SplineSet
318 1404 m 2
 -24 62 l 2
 -32 30 -18 0 16 0 c 2
 186 0 l 2
 216 0 238 14 246 44 c 2
 588 1386 l 2
 596 1418 582 1448 548 1448 c 2
 378 1448 l 2
 348 1448 326 1434 318 1404 c 2
EndSplineSet
Refer: 102 776 N 1 0 0 1 -32 328 2
Fore
Refer: 25 73 N 1 0 0 1 0 0 2
Refer: 102 776 N 1 0 0 1 18 328 2
Validated: 98305
EndChar

StartChar: Igrave
Encoding: 204 204 29
Width: 552
VWidth: 0
Flags: W
HStem: 0 21<94.6027 294.897> 1428 20<439.111 639.405> 1516 298<540.25 605.375>
DStem2: 61.0043 62 331.004 44 0.246951 0.969028<-55.288 1342>
LayerCount: 2
Back
SplineSet
318 1404 m 2
 -24 62 l 2
 -32 30 -18 0 16 0 c 2
 186 0 l 2
 216 0 238 14 246 44 c 2
 588 1386 l 2
 596 1418 582 1448 548 1448 c 2
 378 1448 l 2
 348 1448 326 1434 318 1404 c 2
EndSplineSet
Refer: 128 96 N 1 0 0 1 56 366 2
Fore
Refer: 25 73 N 1 0 0 1 0 0 2
Refer: 128 96 N 1 0 0 1 106 366 2
Validated: 98305
EndChar

StartChar: J
Encoding: 74 74 30
Width: 612
VWidth: 0
Flags: MW
HStem: 1428 20G<498.114 699.599>
DStem2: 125 82 391 44 0.246605 0.969116<-168.526 1420.25>
LayerCount: 2
Back
SplineSet
436 1448 m 2
 408 1448 386 1434 378 1404 c 2
 40 82 l 2
 6 -48 -100 -136 -194 -172 c 0
 -224 -184 -222 -214 -210 -238 c 2
 -156 -350 l 2
 -146 -368 -122 -374 -94 -366 c 0
 0 -338 234 -228 306 44 c 1
 648 1388 l 2
 656 1418 642 1448 608 1448 c 2
 436 1448 l 2
EndSplineSet
Fore
SplineSet
521 1448 m 1,0,1
 693 1448 l 2,2,3
 706 1448 706 1448 717 1441 c 0,4,5
 743 1424 743 1424 733 1388 c 2,6,-1
 391 44 l 1,7,8
 347 -120 347 -120 219 -236 c 0,9,10
 114 -330 114 -330 -9 -366 c 1,11,12
 -54 -378 -54 -378 -71 -350 c 1,13,-1
 -125 -238 l 2,14,15
 -126 -236 -126 -236 -128 -232 c 0,16,17
 -147 -187 -147 -187 -109 -172 c 0,18,19
 -68 -156 -68 -156 -29 -130 c 0,20,21
 91 -48 91 -48 125 82 c 2,22,-1
 463 1404 l 1,23,24
 475 1446 475 1446 521 1448 c 1,0,1
EndSplineSet
Validated: 19489
Colour: ffffff
EndChar

StartChar: K
Encoding: 75 75 31
Width: 996
VWidth: 0
Flags: MW
HStem: 0 21G<94.5984 294.893 671.672 890.634> 1428 20G<439.107 639.401 983.532 1211.09>
DStem2: 61 62 331 44 0.246951 0.969028<-7.31554 675.712 896.419 1441.44> 739 736 486 651 0.238477 -0.971148<22.2129 701.598> 540 865 739 736 0.604386 0.796691<17.4997 764.662>
LayerCount: 2
Back
SplineSet
390 696 m 1
 542 50 l 2
 552 14 576 0 616 0 c 2
 774 0 l 2
 818 0 832 22 820 60 c 1
 628 840 l 1
 634 710 l 1
 1138 1374 l 1
 1168 1410 1160 1448 1114 1448 c 2
 918 1448 l 2
 878 1448 870 1438 858 1422 c 2
 420 816 l 1
 390 696 l 1
318 1404 m 2
 -24 62 l 2
 -32 30 -18 0 16 0 c 2
 186 0 l 2
 216 0 238 14 246 44 c 2
 588 1386 l 2
 596 1418 582 1448 548 1448 c 2
 378 1448 l 2
 348 1448 326 1434 318 1404 c 2
EndSplineSet
Fore
SplineSet
403 1404 m 1,0,1
 415 1447 415 1447 463 1448 c 1,2,-1
 633 1448 l 2,3,4
 645 1448 645 1448 656 1442 c 0,5,6
 683 1425 683 1425 673 1386 c 2,7,-1
 540 865 l 1,8,-1
 943 1422 l 2,9,10
 951 1433 951 1433 961 1440 c 0,11,12
 973 1448 973 1448 1003 1448 c 2,13,-1
 1199 1448 l 2,14,15
 1223 1448 1223 1448 1235 1434 c 1,16,17
 1253 1410 1253 1410 1223 1374 c 1,18,-1
 739 736 l 1,19,-1
 905 60 l 1,20,21
 922 2 922 2 859 0 c 1,22,-1
 701 0 l 2,23,24
 643 0 643 0 627 50 c 1,25,-1
 486 651 l 1,26,-1
 331 44 l 1,27,28
 319 1 319 1 271 0 c 1,29,-1
 101 0 l 2,30,31
 89 0 89 0 78 6 c 0,32,33
 51 23 51 23 61 62 c 2,34,-1
 403 1404 l 1,0,1
EndSplineSet
Validated: 19489
Colour: ffffff
EndChar

StartChar: L
Encoding: 76 76 32
Width: 812
VWidth: 0
Flags: MW
HStem: 0 238<380 778.062> 1428 20G<439.107 639.401>
DStem2: 61 62 380 238 0.246951 0.969028<249.326 1441.44>
LayerCount: 2
Back
SplineSet
56 238 m 2
 38 238 32 234 24 198 c 2
 -8 72 l 2
 -22 20 -10 0 30 0 c 2
 630 0 l 2
 660 0 692 26 698 56 c 2
 724 174 l 2
 734 218 716 238 678 238 c 2
 56 238 l 2
318 1404 m 2
 -24 62 l 2
 -32 30 -18 0 16 0 c 2
 186 0 l 2
 216 0 238 14 246 44 c 2
 588 1386 l 2
 596 1418 582 1448 548 1448 c 2
 378 1448 l 2
 348 1448 326 1434 318 1404 c 2
EndSplineSet
Fore
SplineSet
403 1404 m 1,0,1
 415 1447 415 1447 463 1448 c 1,2,-1
 633 1448 l 2,3,4
 646 1448 646 1448 656 1442 c 0,5,6
 682 1425 682 1425 673 1386 c 2,7,-1
 380 238 l 1,8,-1
 763 238 l 2,9,10
 822 237 822 237 809 174 c 1,11,-1
 783 56 l 2,12,13
 780 44 780 44 772 32 c 0,14,15
 749 0 749 0 715 0 c 2,16,-1
 101 0 l 2,17,18
 88 0 88 0 78 6 c 0,19,20
 52 23 52 23 61 62 c 2,21,-1
 403 1404 l 1,0,1
EndSplineSet
Validated: 19489
Colour: ffffff
EndChar

StartChar: M
Encoding: 77 77 33
Width: 1284
VWidth: 0
Flags: MW
HStem: 0 21G<94.5984 294.893 846.599 1046.89> 1428 20G<439.107 658.188 1175.62 1391.4>
DStem2: 61 62 331 44 0.246951 0.969028<-7.31554 799.403> 813 62 1083 44 0.246951 0.969028<-7.31555 628.415>
LayerCount: 2
Back
SplineSet
436 1448 m 1
 384 1404 l 1
 412 1086 448 750 428 456 c 0
 424 398 458 380 492 376 c 2
 624 362 l 1
 666 362 708 380 752 454 c 0
 894 692 1066 954 1232 1322 c 1
 1216 1448 l 1
 1108 1448 l 2
 1082 1448 1066 1440 1048 1410 c 2
 520 500 l 1
 614 406 l 1
 660 740 650 1060 618 1402 c 0
 614 1434 602 1448 570 1448 c 2
 436 1448 l 1
318 1404 m 2
 -24 62 l 2
 -32 30 -18 0 16 0 c 2
 186 0 l 2
 216 0 238 14 246 44 c 2
 588 1386 l 2
 596 1418 582 1448 548 1448 c 2
 378 1448 l 2
 348 1448 326 1434 318 1404 c 2
1070 1404 m 2
 728 62 l 2
 720 30 734 0 768 0 c 2
 938 0 l 2
 968 0 990 14 998 44 c 2
 1340 1386 l 2
 1348 1418 1334 1448 1300 1448 c 2
 1130 1448 l 2
 1100 1448 1078 1434 1070 1404 c 2
EndSplineSet
Fore
SplineSet
403 1404 m 1,0,1
 415 1447 415 1447 463 1448 c 1,2,-1
 655 1448 l 2,3,4
 661 1448 661 1448 668 1447 c 0,5,6
 698 1442 698 1442 703 1402 c 1,7,8
 739 1012 739 1012 726 709 c 1,9,-1
 1133 1410 l 2,10,11
 1135 1413 1135 1413 1137 1417 c 0,12,13
 1158 1448 1158 1448 1193 1448 c 2,14,-1
 1385 1448 l 2,15,16
 1398 1448 1398 1448 1408 1442 c 0,17,18
 1434 1425 1434 1425 1425 1386 c 2,19,-1
 1083 44 l 1,20,21
 1071 1 1071 1 1023 0 c 1,22,-1
 853 0 l 2,23,24
 840 0 840 0 830 6 c 0,25,26
 804 23 804 23 813 62 c 2,27,-1
 968 671 l 1,28,-1
 837 454 l 2,29,30
 836 452 836 452 834 449 c 0,31,32
 781 362 781 362 709 362 c 1,33,-1
 577 376 l 1,34,35
 509 385 509 385 513 456 c 1,36,37
 522 594 522 594 516 771 c 1,38,-1
 331 44 l 1,39,40
 319 1 319 1 271 0 c 1,41,-1
 101 0 l 2,42,43
 88 0 88 0 78 6 c 0,44,45
 52 23 52 23 61 62 c 2,46,-1
 403 1404 l 1,0,1
EndSplineSet
Validated: 19489
Colour: ffffff
EndChar

StartChar: N
Encoding: 78 78 34
Width: 1189
VWidth: 0
Flags: MW
HStem: 0 21G<94.8964 295.191 742.965 953.191> 1428 20G<439.405 642.751 1097.41 1297.7>
DStem2: 61.298 62 331.298 44 0.246951 0.969028<-7.30549 875.804> 861.298 620 989.298 44 0.246951 0.969028<0 865.647>
LayerCount: 2
Back
SplineSet
332 1364 m 1
 628 62 l 2
 636 30 634 0 668 0 c 2
 838 0 l 1
 898 84 l 1
 602 1386 l 2
 594 1418 596 1448 516 1448 c 2
 392 1448 l 1
 332 1364 l 1
318 1404 m 2
 -24 62 l 2
 -32 30 -18 0 16 0 c 2
 186 0 l 2
 216 0 238 14 246 44 c 2
 588 1386 l 2
 596 1418 582 1448 548 1448 c 2
 378 1448 l 2
 348 1448 326 1434 318 1404 c 2
976 1404 m 2
 634 62 l 2
 626 30 640 0 674 0 c 2
 844 0 l 2
 874 0 896 14 904 44 c 2
 1246 1386 l 2
 1254 1418 1240 1448 1206 1448 c 2
 1036 1448 l 2
 1006 1448 984 1434 976 1404 c 2
EndSplineSet
Fore
SplineSet
403 1404 m 1,0,1
 415 1447 415 1447 463 1448 c 1,2,-1
 628 1448 l 2,3,4
 648 1448 648 1448 665 1434 c 0,5,6
 669 1431 669 1431 673 1426 c 0,7,8
 678 1419 678 1419 687 1386 c 1,9,-1
 861 620 l 1,10,-1
 1061 1404 l 1,11,12
 1073 1447 1073 1447 1121 1448 c 1,13,-1
 1291 1448 l 2,14,15
 1303 1448 1303 1448 1314 1442 c 0,16,17
 1341 1425 1341 1425 1331 1386 c 2,18,-1
 989 44 l 1,19,20
 977 1 977 1 929 0 c 1,21,-1
 759 0 l 2,22,23
 738 0 738 0 729 12 c 0,24,25
 721 24 721 24 717 40 c 2,26,-1
 535 845 l 1,27,-1
 331 44 l 1,28,29
 319 1 319 1 271 0 c 1,30,-1
 101 0 l 2,31,32
 89 0 89 0 78 6 c 0,33,34
 51 23 51 23 61 62 c 2,35,-1
 403 1404 l 1,0,1
EndSplineSet
Validated: 19457
Colour: ffffff
EndChar

StartChar: O
Encoding: 79 79 36
Width: 968
VWidth: 0
Flags: W
HStem: -10 238<414.327 520.26> 1198 266<621.682 763.271>
VStem: 120 278<236.267 689.238> 775 273<760.553 1193.23>
LayerCount: 2
Back
SplineSet
58 816 m 4
 22 676 4 550 4 440 c 4
 4 240 44 98 164 30 c 0
 218 0 296 -10 352 -10 c 0
 614 -10 780 276 864 610 c 4
 910 792 932 940 932 1058 c 4
 932 1240 898 1354 798 1414 c 0
 742 1446 660 1464 600 1464 c 0
 350 1464 152 1180 58 816 c 4
342 752 m 4
 382 906 424 1034 472 1112 c 4
 516 1184 548 1198 600 1198 c 4
 688 1198 672 992 596 682 c 4
 556 522 516 404 472 328 c 4
 426 252 394 228 350 228 c 4
 264 228 258 432 342 752 c 4
EndSplineSet
Fore
SplineSet
458 752 m 0,0,1
 398 524 398 524 398 381 c 0,2,3
 398 228 398 228 466 228 c 0,4,5
 481 228 481 228 496 232 c 0,6,7
 539 246 539 246 588 328 c 1,8,9
 650 436 650 436 712 682 c 1,10,11
 775 939 775 939 775 1068 c 128,-1,12
 775 1197 775 1197 712 1198 c 1,13,14
 640 1198 640 1198 588 1112 c 0,15,16
 525 1008 525 1008 458 752 c 0,0,1
174 816 m 0,17,18
 242 1079 242 1079 367 1251 c 0,19,20
 523 1464 523 1464 716 1464 c 0,21,22
 734 1464 l 0,23,24
 895 1455 895 1455 972 1364 c 1,25,26
 1048 1274 1048 1274 1048 1058 c 0,27,28
 1048 879 1048 879 980 610 c 0,29,30
 931 416 931 416 855 275 c 0,31,32
 700 -10 700 -10 468 -10 c 0,33,34
 309 -10 309 -10 225 71 c 1,35,36
 120 175 120 175 120 440 c 0,37,38
 120 606 120 606 174 816 c 0,17,18
EndSplineSet
Validated: 19457
Colour: ffffff
EndChar

StartChar: Oslash
Encoding: 216 216 41
Width: 900
VWidth: 0
Flags: W
HStem: -10 238<384.459 489.26> 1444 20G<588.318 689.312>
DStem2: -25 192 139 64 0.63531 0.772257<-61.9441 52.2026 705.499 876.124 1519.7 1689.83>
LayerCount: 2
Back
SplineSet
1110 1342 m 2
 1132 1368 1116 1392 1086 1410 c 2
 1000 1468 l 2
 968 1490 948 1478 928 1454 c 2
 -110 192 l 2
 -148 144 -130 126 -102 102 c 2
 -14 32 l 2
 8 14 34 40 54 64 c 2
 1110 1342 l 2
58 816 m 0
 22 676 4 550 4 440 c 0
 4 240 44 98 164 30 c 0
 218 0 296 -10 352 -10 c 0
 614 -10 780 276 864 610 c 0
 910 792 932 940 932 1058 c 0
 932 1240 898 1354 798 1414 c 0
 742 1446 660 1464 600 1464 c 0
 350 1464 152 1180 58 816 c 0
342 752 m 0
 382 906 424 1034 472 1112 c 0
 516 1184 548 1198 600 1198 c 0
 688 1198 672 992 596 682 c 0
 556 522 516 404 472 328 c 0
 426 252 394 228 350 228 c 0
 264 228 258 432 342 752 c 0
EndSplineSet
Fore
SplineSet
427 752 m 1,0,1
 423 737 l 1,2,-1
 741 1124 l 1,3,4
 730 1196 730 1196 685 1198 c 1,5,6
 661 1198 661 1198 643 1193 c 0,7,8
 599 1180 599 1180 557 1112 c 0,9,10
 494 1009 494 1009 427 752 c 1,0,1
143 816 m 0,11,12
 211 1079 211 1079 336 1251 c 0,13,14
 492 1464 492 1464 685 1464 c 0,15,16
 703 1464 l 0,17,18
 806 1458 806 1458 883 1414 c 0,19,20
 916 1394 916 1394 940 1366 c 1,21,-1
 1013 1454 l 2,22,23
 1015 1456 1015 1456 1017 1459 c 0,24,25
 1048 1493 1048 1493 1085 1468 c 2,26,-1
 1171 1410 l 1,27,28
 1223 1378 1223 1378 1195 1342 c 2,29,-1
 1015 1124 l 1,30,31
 1017 1083 1017 1083 1017 1058 c 0,32,33
 1017 879 1017 879 949 610 c 0,34,35
 900 416 900 416 824 275 c 0,36,37
 669 -10 669 -10 437 -10 c 0,38,39
 321 -10 321 -10 249 30 c 0,40,41
 200 58 200 58 169 100 c 1,42,-1
 139 64 l 2,43,44
 96 13 96 13 71 32 c 2,45,-1
 -17 102 l 2,46,47
 -30 113 -30 113 -37 121 c 0,48,49
 -59 148 -59 148 -25 192 c 2,50,-1
 93 336 l 1,51,52
 89 380 89 380 89 440 c 0,53,54
 89 606 89 606 143 816 c 0,11,12
369 342 m 1,55,56
 379 230 379 230 435 228 c 0,57,58
 450 228 450 228 465 232 c 0,59,60
 508 246 508 246 557 328 c 1,61,62
 619 436 619 436 681 682 c 1,63,-1
 694 735 l 1,64,-1
 369 342 l 1,55,56
EndSplineSet
Validated: 19489
Colour: ffffff
EndChar

StartChar: P
Encoding: 80 80 43
Width: 940
VWidth: 0
Flags: MW
HStem: 0 21G<142.913 343.207> 1214 234<328.37 403.314 677.314 843.803>
VStem: 853 252<937.517 1196.06>
DStem2: 109.314 62 379.314 44 0.247218 0.96896<-7.30121 616.535 820.092 1188.92>
LayerCount: 2
Back
SplineSet
294 584 m 1
 674 570 754 666 812 724 c 1
 888 792 972 1016 972 1188 c 0
 972 1372 838 1448 668 1448 c 2
 242 1448 l 2
 226 1448 202 1432 196 1408 c 2
 160 1270 l 2
 152 1242 168 1214 202 1214 c 0
 244 1214 594 1212 660 1210 c 0
 686 1210 720 1190 720 1164 c 0
 720 1096 692 962 672 904 c 1
 630 826 576 800 510 796 c 2
 364 786 l 1
 294 584 l 1
318 1404 m 2
 -24 62 l 2
 -32 30 -18 0 16 0 c 2
 186 0 l 2
 216 0 238 14 246 44 c 2
 588 1386 l 2
 596 1418 582 1448 548 1448 c 2
 378 1448 l 2
 348 1448 326 1434 318 1404 c 2
EndSplineSet
Fore
SplineSet
569 791 m 1,0,-1
 643 796 l 2,1,2
 652 797 652 797 662 798 c 0,3,4
 752 807 752 807 805 904 c 1,5,6
 810 920 810 920 817 943 c 0,7,8
 853 1056 853 1056 853 1164 c 0,9,10
 853 1175 853 1175 844 1186 c 0,11,12
 827 1207 827 1207 793 1210 c 0,13,14
 782 1211 782 1211 736 1211 c 0,15,16
 698 1211 698 1211 677 1212 c 1,17,-1
 569 791 l 1,0,-1
403 1214 m 1,18,-1
 335 1214 l 2,19,20
 320 1214 320 1214 309 1221 c 0,21,22
 283 1237 283 1237 293 1270 c 2,23,-1
 329 1408 l 2,24,25
 331 1417 331 1417 336 1424 c 0,26,27
 352 1448 352 1448 375 1448 c 2,28,-1
 801 1448 l 2,29,30
 886 1448 886 1448 954 1422 c 0,31,32
 1103 1365 1103 1365 1105 1188 c 0,33,34
 1105 1184 l 0,35,36
 1105 1076 1105 1076 1058 930 c 0,37,38
 1005 765 1005 765 898 680 c 1,39,40
 785 586 785 586 516 583 c 1,41,-1
 379 44 l 1,42,43
 367 1 367 1 319 0 c 1,44,-1
 149 0 l 2,45,46
 136 0 136 0 126 6 c 0,47,48
 100 22 100 22 109 62 c 2,49,-1
 403 1214 l 1,18,-1
EndSplineSet
Validated: 19457
Colour: ffffff
EndChar

StartChar: Q
Encoding: 81 81 44
Width: 958
VWidth: 0
Flags: W
HStem: 1198 266<621.724 764.717>
VStem: 120 278<236.267 689.238> 776 272<768.67 1193.58>
LayerCount: 2
Back
SplineSet
58 816 m 0
 22 676 4 550 4 440 c 0
 4 240 44 98 164 30 c 0
 218 0 296 -10 352 -10 c 0
 614 -10 780 276 864 610 c 0
 910 792 932 940 932 1058 c 0
 932 1240 898 1354 798 1414 c 0
 742 1446 660 1464 600 1464 c 0
 350 1464 152 1180 58 816 c 0
342 752 m 0
 382 906 424 1034 472 1112 c 0
 516 1184 548 1198 600 1198 c 0
 688 1198 672 992 596 682 c 0
 556 522 516 404 472 328 c 0
 426 252 394 228 350 228 c 0
 264 228 258 432 342 752 c 0
150 -136 m 2
 140 -184 150 -214 180 -202 c 0
 262 -172 348 -166 422 -202 c 0
 502 -240 590 -218 650 -198 c 0
 676 -190 684 -178 688 -156 c 2
 710 -44 l 2
 718 -4 702 24 676 14 c 0
 592 -12 520 -16 434 14 c 1
 360 42 252 34 198 8 c 1
 186 0 178 -8 174 -30 c 2
 150 -136 l 2
EndSplineSet
Fore
SplineSet
266 -136 m 1,0,1
 290 -30 l 2,2,3
 295 -6 295 -6 314 8 c 0,4,5
 315 8 315 8 318 10 c 0,6,7
 320 12 320 12 322 12 c 1,8,9
 300 20 300 20 280 30 c 0,10,11
 250 47 250 47 225 71 c 0,12,13
 120 175 120 175 120 440 c 0,14,15
 120 606 120 606 174 816 c 0,16,17
 241 1075 241 1075 367 1251 c 0,18,19
 519 1463 519 1463 734 1464 c 0,20,21
 829 1463 829 1463 914 1414 c 1,22,23
 947 1394 947 1394 972 1364 c 0,24,25
 1048 1274 1048 1274 1048 1058 c 0,26,27
 1048 879 1048 879 980 610 c 0,28,29
 949 488 949 488 907 386 c 0,30,31
 778 73 778 73 574 7 c 1,32,33
 676 -23 676 -23 792 14 c 0,34,35
 803 18 803 18 813 13 c 0,36,37
 835 0 835 0 826 -44 c 2,38,-1
 804 -156 l 2,39,40
 803 -159 803 -159 802 -163 c 0,41,42
 795 -188 795 -188 766 -198 c 0,43,44
 628 -244 628 -244 538 -202 c 0,45,46
 433 -153 433 -153 296 -202 c 0,47,48
 287 -205 287 -205 280 -204 c 0,49,50
 253 -198 253 -198 266 -136 c 1,0,1
458 752 m 0,51,52
 398 524 398 524 398 381 c 0,53,54
 398 228 398 228 466 228 c 0,55,56
 481 228 481 228 496 232 c 0,57,58
 539 246 539 246 588 328 c 1,59,60
 650 436 650 436 712 682 c 1,61,62
 776 943 776 943 776 1072 c 0,63,64
 776 1197 776 1197 716 1198 c 1,65,66
 640 1198 640 1198 588 1112 c 0,67,68
 525 1009 525 1009 458 752 c 0,51,52
EndSplineSet
Validated: 19489
Colour: ffffff
EndChar

StartChar: R
Encoding: 82 82 45
Width: 998
VWidth: 0
Flags: MW
HStem: 0 21G<135.598 335.893 673.204 862.031> 1214 234<321.056 396 670 836.489>
VStem: 606 286<8.26518 215.405> 846 252<937.517 1196.06>
DStem2: 102 62 372 44 0.247218 0.96896<-7.30121 605.446 814.031 1188.92>
LayerCount: 2
Back
SplineSet
294 584 m 1
 560 582 l 1
 702 620 754 666 812 724 c 1
 888 792 972 1016 972 1188 c 0
 972 1372 838 1448 668 1448 c 2
 242 1448 l 2
 226 1448 202 1432 196 1408 c 2
 160 1270 l 2
 152 1242 168 1214 202 1214 c 0
 244 1214 594 1212 660 1210 c 0
 686 1210 720 1190 720 1164 c 0
 720 1096 692 962 672 904 c 1
 630 826 576 804 510 796 c 2
 332 770 l 1
 294 584 l 1
480 628 m 1
 416 616 l 1
 480 100 l 2
 488 40 516 0 552 0 c 2
 710 0 l 2
 740 0 774 16 764 84 c 2
 678 660 l 1
 480 628 l 1
318 1404 m 2
 -24 62 l 2
 -32 30 -18 0 16 0 c 2
 186 0 l 2
 216 0 238 14 246 44 c 2
 588 1386 l 2
 596 1418 582 1448 548 1448 c 2
 378 1448 l 2
 348 1448 326 1434 318 1404 c 2
EndSplineSet
Fore
SplineSet
561 785 m 1,0,-1
 636 796 l 2,1,2
 665 800 665 800 669 802 c 0,3,4
 751 830 751 830 777 871 c 0,5,6
 802 913 802 913 810 943 c 0,7,8
 846 1077 846 1077 846 1164 c 0,9,10
 846 1180 846 1180 830 1193 c 0,11,12
 816 1205 816 1205 796 1209 c 0,13,14
 784 1211 784 1211 729 1212 c 0,15,16
 702 1212 702 1212 670 1212 c 1,17,-1
 561 785 l 1,0,-1
396 1214 m 1,18,-1
 328 1214 l 2,19,20
 314 1214 314 1214 302 1221 c 0,21,22
 276 1237 276 1237 286 1270 c 2,23,-1
 322 1408 l 2,24,25
 324 1416 324 1416 329 1424 c 0,26,27
 345 1448 345 1448 368 1448 c 2,28,-1
 794 1448 l 2,29,30
 880 1448 880 1448 947 1422 c 0,31,32
 1098 1362 1098 1362 1098 1188 c 0,33,34
 1098 1069 1098 1069 1051 930 c 0,35,36
 1000 779 1000 779 938 724 c 1,37,38
 871 658 871 658 809 626 c 1,39,-1
 890 84 l 2,40,41
 892 68 892 68 892 54 c 0,42,43
 889 0 889 0 836 0 c 2,44,-1
 678 0 l 2,45,46
 668 0 668 0 658 4 c 0,47,48
 616 23 616 23 606 100 c 2,49,-1
 546 583 l 1,50,-1
 509 583 l 1,51,-1
 372 44 l 1,52,53
 360 1 360 1 312 0 c 1,54,-1
 142 0 l 2,55,56
 129 0 129 0 119 6 c 0,57,58
 93 23 93 23 102 62 c 2,59,-1
 396 1214 l 1,18,-1
EndSplineSet
Validated: 8408065
Colour: ffffff
EndChar

StartChar: S
Encoding: 83 83 46
Width: 926
VWidth: 0
Flags: MW
HStem: -32 204<407.827 488.534> -32 520<229.58 376.937> 1235 235<696.026 733.673>
VStem: 98 280<173.405 426.806> 260 314<784.174 1071.04> 586 308<344.747 597.452> 772 264<993.589 1202.85>
LayerCount: 2
Back
SplineSet
700 1470 m 0
 432 1470 200 1114 200 854 c 0
 200 708 314 652 384 634 c 2
 416 626 l 2
 522 600 526 548 526 470 c 0
 526 320 444 208 382 178 c 0
 372 174 356 172 348 172 c 1
 324 200 314 290 318 452 c 0
 318 484 288 498 240 482 c 2
 86 428 l 2
 54 418 38 374 38 334 c 0
 38 184 80 -32 336 -32 c 0
 578 -32 834 272 834 560 c 0
 834 760 756 806 660 832 c 2
 624 842 l 2
 546 864 514 882 514 960 c 0
 514 1072 598 1210 636 1232 c 0
 640 1234 646 1236 650 1234 c 0
 690 1182 708 1090 712 996 c 0
 714 952 762 948 782 954 c 2
 928 992 l 2
 960 1000 976 1024 976 1056 c 0
 976 1302 898 1470 700 1470 c 0
EndSplineSet
Fore
SplineSet
760 1470 m 0,0,1
 802 1470 802 1470 839 1460 c 0,2,3
 1042 1402 1042 1402 1036 1056 c 0,4,5
 1035 1004 1035 1004 988 992 c 2,6,-1
 842 954 l 2,7,8
 831 951 831 951 817 952 c 0,9,10
 774 957 774 957 772 996 c 0,11,12
 765 1162 765 1162 709 1235 c 1,13,14
 702 1235 702 1235 696 1232 c 0,15,16
 672 1218 672 1218 640 1164 c 0,17,18
 574 1055 574 1055 574 960 c 0,19,20
 574 913 574 913 592 888 c 0,21,22
 612 862 612 862 684 842 c 2,23,-1
 720 832 l 2,24,25
 775 817 775 817 808 794 c 0,26,27
 894 733 894 733 894 560 c 0,28,29
 894 473 894 473 863 382 c 0,30,31
 806 213 806 213 675 93 c 0,32,33
 538 -32 538 -32 396 -32 c 0,34,35
 322 -32 322 -32 264 -7 c 0,36,37
 96 66 96 66 98 334 c 0,38,39
 98 345 98 345 100 357 c 0,40,41
 109 416 109 416 146 428 c 1,42,-1
 300 482 l 2,43,44
 321 489 321 489 342 488 c 0,45,46
 378 485 378 485 378 452 c 0,47,48
 372 215 372 215 408 172 c 1,49,50
 427 172 427 172 442 178 c 1,51,52
 476 195 476 195 509 237 c 0,53,54
 586 335 586 335 586 470 c 0,55,56
 586 526 586 526 578 552 c 0,57,58
 560 605 560 605 476 626 c 2,59,-1
 444 634 l 2,60,61
 418 641 418 641 390 653 c 0,62,63
 260 714 260 714 260 854 c 0,64,65
 260 931 260 931 286 1017 c 0,66,67
 339 1192 339 1192 462 1321 c 0,68,69
 603 1470 603 1470 760 1470 c 0,0,1
EndSplineSet
Validated: 8408097
Colour: ffffff
EndChar

StartChar: T
Encoding: 84 84 48
Width: 935
VWidth: 0
Flags: MW
HStem: 0 21G<308.257 508.551> 1210 238<262.658 567.658 841.658 1191.72>
DStem2: 272.158 51.5 544.658 44 0.246835 0.969057<-37.5571 0>
LayerCount: 2
Back
SplineSet
130 1210 m 2
 996 1210 l 2
 1026 1210 1058 1236 1064 1266 c 2
 1090 1384 l 2
 1100 1428 1082 1448 1044 1448 c 2
 184 1448 l 2
 148 1448 132 1444 124 1408 c 2
 92 1282 l 2
 78 1230 90 1210 130 1210 c 2
484 1404 m 2
 142 62 l 2
 134 30 148 0 182 0 c 2
 352 0 l 2
 382 0 404 14 412 44 c 2
 754 1386 l 2
 762 1418 748 1448 714 1448 c 2
 544 1448 l 2
 514 1448 492 1434 484 1404 c 2
EndSplineSet
Fore
SplineSet
1177 1448 m 2,0,1
 1236 1448 1236 1448 1223 1384 c 1,2,-1
 1197 1266 l 2,3,4
 1194 1254 1194 1254 1186 1242 c 0,5,6
 1163 1210 1163 1210 1129 1210 c 2,7,-1
 842 1210 l 1,8,-1
 545 44 l 1,9,10
 533 1 533 1 485 0 c 1,11,-1
 313 0 l 2,12,13
 295 0 295 0 281 14 c 128,-1,14
 267 28 267 28 273 52 c 2,15,-1
 568 1210 l 1,16,-1
 263 1210 l 2,17,18
 256 1210 256 1210 248 1211 c 0,19,20
 209 1218 209 1218 225 1282 c 2,21,-1
 257 1408 l 2,22,23
 261 1423 261 1423 266 1432 c 0,24,25
 277 1448 277 1448 317 1448 c 2,26,-1
 1177 1448 l 2,0,1
EndSplineSet
Validated: 19489
Colour: ffffff
EndChar

StartChar: Thorn
Encoding: 222 222 49
Width: 940
VWidth: 0
Flags: W
HStem: 0 21G<94.5984 294.893> 1075 235<654 763.489> 1428 20G<439.107 639.401>
VStem: 773 252<799.517 1058.06>
DStem2: 61 62 331 44 0.246999 0.969016<-7.31552 463.017 677.663 1113.26 1355.8 1441.46>
LayerCount: 2
Back
SplineSet
324 1076 m 1
 442 1076 588 1074 628 1072 c 0
 654 1072 688 1052 688 1026 c 0
 688 958 660 824 640 766 c 1
 598 688 544 662 478 658 c 2
 332 648 l 1
 262 446 l 1
 642 432 722 528 780 586 c 1
 856 654 940 878 940 1050 c 0
 940 1234 806 1310 636 1310 c 2
 384 1310 l 1
 324 1076 l 1
318 1404 m 2
 -24 62 l 2
 -32 30 -18 0 16 0 c 2
 186 0 l 2
 216 0 238 14 246 44 c 2
 588 1386 l 2
 596 1418 582 1448 548 1448 c 2
 378 1448 l 2
 348 1448 326 1434 318 1404 c 2
EndSplineSet
Fore
SplineSet
403 1404 m 1,0,1
 415 1447 415 1447 463 1448 c 1,2,-1
 633 1448 l 2,3,4
 646 1448 646 1448 656 1442 c 0,5,6
 682 1425 682 1425 673 1386 c 2,7,-1
 654 1310 l 1,8,-1
 721 1310 l 2,9,10
 807 1310 807 1310 874 1284 c 0,11,12
 1025 1224 1025 1224 1025 1050 c 0,13,14
 1025 931 1025 931 978 792 c 0,15,16
 927 641 927 641 865 586 c 1,17,18
 834 555 834 555 818 542 c 0,19,20
 702 448 702 448 433 445 c 1,21,-1
 331 44 l 1,22,23
 319 1 319 1 271 0 c 1,24,-1
 101 0 l 2,25,26
 88 0 88 0 78 6 c 0,27,28
 52 23 52 23 61 62 c 2,29,-1
 403 1404 l 1,0,1
486 653 m 1,30,-1
 563 658 l 2,31,32
 572 659 572 659 582 660 c 0,33,34
 675 674 675 674 725 766 c 1,35,36
 730 782 730 782 737 805 c 0,37,38
 773 941 773 941 773 1026 c 0,39,40
 773 1037 773 1037 764 1048 c 0,41,42
 744 1072 744 1072 713 1072 c 1,43,44
 686 1073 686 1073 594 1075 c 1,45,-1
 486 653 l 1,30,-1
EndSplineSet
Validated: 19457
Colour: ffffff
EndChar

StartChar: U
Encoding: 85 85 50
Width: 1099
VWidth: 0
Flags: MW
HStem: -14 218<454.363 626.768> 1428 20G<438.794 647.088 1010.79 1203.09>
DStem2: 196.687 604 478.687 582 0.243671 0.969858<-262.313 880.092> 766.687 588 1040.69 610 0.247004 0.969015<-326.627 897.847>
LayerCount: 2
Back
SplineSet
432 -14 m 0
 752 -14 872 274 956 610 c 2
 1152 1386 l 2
 1160 1418 1146 1448 1112 1448 c 2
 950 1448 l 2
 920 1448 898 1434 890 1404 c 2
 682 588 l 2
 604 282 540 204 450 204 c 0
 334 204 330 328 394 582 c 2
 596 1386 l 2
 604 1418 590 1448 556 1448 c 2
 378 1448 l 2
 348 1448 326 1434 318 1404 c 2
 112 604 l 2
 48 356 54 178 160 70 c 0
 218 10 322 -14 432 -14 c 0
EndSplineSet
Fore
SplineSet
517 -14 m 0,0,1
 327 -14 327 -14 245 70 c 0,2,3
 226 89 226 89 211 113 c 0,4,5
 110 267 110 267 197 604 c 2,6,-1
 403 1404 l 2,7,8
 415 1447 415 1447 463 1448 c 1,9,-1
 641 1448 l 2,10,11
 654 1448 654 1448 664 1442 c 0,12,13
 690 1425 690 1425 681 1386 c 2,14,-1
 479 582 l 2,15,16
 431 391 431 391 439 304 c 0,17,18
 448 204 448 204 535 204 c 0,19,20
 583 204 583 204 620 237 c 0,21,22
 696 307 696 307 767 588 c 2,23,-1
 975 1404 l 2,24,25
 987 1447 987 1447 1035 1448 c 1,26,-1
 1197 1448 l 2,27,28
 1210 1448 1210 1448 1220 1442 c 0,29,30
 1246 1425 1246 1425 1237 1386 c 2,31,-1
 1041 610 l 2,32,33
 976 353 976 353 897 218 c 0,34,35
 760 -14 760 -14 517 -14 c 0,0,1
EndSplineSet
Validated: 19489
Colour: ffffff
EndChar

StartChar: V
Encoding: 86 86 55
Width: 1081
VWidth: 0
Flags: MW
DStem2: 208.728 94 477.728 302 0.0565708 0.998399<222.884 1353.54>
LayerCount: 2
Back
SplineSet
352 40 m 1
 442 1390 l 2
 446 1422 430 1444 396 1444 c 2
 234 1444 l 2
 204 1444 178 1432 174 1400 c 1
 100 94 l 2
 96 28 132 -6 178 -2 c 1
 408 0 l 2
 446 0 492 26 518 80 c 2
 1186 1366 l 1
 1200 1406 1192 1438 1142 1440 c 2
 986 1446 l 1
 946 1450 924 1434 910 1406 c 2
 246 50 l 1
 352 40 l 1
EndSplineSet
Fore
SplineSet
478 302 m 1,0,-1
 1019 1406 l 2,1,2
 1041 1450 1041 1450 1095 1446 c 1,3,-1
 1251 1440 l 2,4,5
 1281 1440 1281 1440 1295 1422 c 0,6,7
 1315 1404 1315 1404 1295 1366 c 2,8,-1
 627 80 l 2,9,10
 618 64 618 64 610 52 c 0,11,12
 571 0 571 0 517 0 c 2,13,-1
 287 -2 l 1,14,15
 254 0 254 0 235 17 c 0,16,17
 206 42 206 42 209 94 c 2,18,-1
 283 1400 l 2,19,20
 285 1443 285 1443 343 1444 c 1,21,-1
 505 1444 l 2,22,23
 525 1444 525 1444 538 1433 c 0,24,25
 553 1421 553 1421 551 1390 c 2,26,-1
 478 302 l 1,0,-1
EndSplineSet
Validated: 19489
Colour: ff00
EndChar

StartChar: W
Encoding: 87 87 56
Width: 1573
VWidth: 0
Flags: W
HStem: 0 21G<304.748 550.844 918.952 1158.89> 1428 20G<440.037 659.62 952.119 1173.46 1458.07 1665.62>
VStem: 1434 274<1089.99 1447.73>
LayerCount: 2
Back
SplineSet
1524 1448 m 2
 1344 1448 l 2
 1306 1448 1306 1430 1304 1400 c 0
 1290 1104 1126 476 886 240 c 1
 992 210 l 1
 916 216 902 456 932 830 c 0
 950 1064 1008 1264 1050 1388 c 0
 1064 1426 1054 1448 1024 1448 c 2
 844 1448 l 2
 806 1448 788 1436 774 1396 c 1
 676 1050 622 384 742 40 c 0
 752 12 764 0 792 0 c 2
 930 0 l 1
 1304 160 1578 1074 1578 1398 c 0
 1578 1436 1570 1448 1524 1448 c 2
526 1448 m 2
 330 1448 l 2
 298 1448 284 1436 276 1420 c 0
 94 1040 20 394 138 40 c 0
 148 12 168 0 196 0 c 2
 346 0 l 1
 494 144 670 408 764 626 c 0
 894 926 952 1166 1034 1414 c 1
 732 1232 l 1
 672 936 472 500 284 272 c 1
 364 200 l 1
 226 452 452 1210 542 1370 c 0
 574 1428 552 1448 526 1448 c 2
EndSplineSet
Fore
SplineSet
656 1448 m 2,0,1
 663 1448 663 1448 670 1446 c 0,2,3
 706 1433 706 1433 672 1370 c 0,4,5
 668 1363 668 1363 664 1354 c 0,6,7
 599 1223 599 1223 532 964 c 0,8,9
 427 557 427 557 457 327 c 1,10,11
 560 468 560 468 659 669 c 0,12,13
 811 980 811 980 862 1232 c 1,14,-1
 866 1234 l 1,15,16
 887 1338 887 1338 904 1396 c 0,17,18
 908 1407 908 1407 913 1417 c 0,19,20
 930 1448 930 1448 974 1448 c 2,21,-1
 1154 1448 l 1,22,23
 1193 1443 1193 1443 1180 1388 c 1,24,25
 1083 1102 1083 1102 1062 830 c 0,26,27
 1032 443 1032 443 1065 295 c 1,28,29
 1067 297 1067 297 1069 300 c 0,30,31
 1224 497 1224 497 1337 885 c 0,32,33
 1424 1184 1424 1184 1434 1400 c 0,34,35
 1435 1418 1435 1418 1437 1426 c 0,36,37
 1442 1448 1442 1448 1474 1448 c 2,38,-1
 1654 1448 l 2,39,40
 1677 1448 1677 1448 1690 1443 c 0,41,42
 1708 1435 1708 1435 1708 1398 c 0,43,44
 1708 1278 1708 1278 1664 1084 c 0,45,46
 1585 736 1585 736 1437 443 c 0,47,48
 1257 84 1257 84 1060 0 c 1,49,-1
 922 0 l 2,50,51
 916 0 916 0 910 1 c 0,52,53
 885 5 885 5 872 40 c 0,54,55
 818 194 818 194 806 450 c 1,56,57
 791 423 791 423 774 395 c 0,58,59
 625 145 625 145 476 0 c 1,60,-1
 326 0 l 2,61,62
 283 1 283 1 268 40 c 1,63,64
 255 80 255 80 244 126 c 0,65,66
 182 400 182 400 232 783 c 0,67,68
 280 1157 280 1157 406 1420 c 0,69,70
 420 1447 420 1447 460 1448 c 2,71,-1
 656 1448 l 2,0,1
1109 214 m 1,72,73
 1116 210 1116 210 1122 210 c 1,74,-1
 1109 214 l 1,72,73
EndSplineSet
Validated: 19489
Colour: ffffff
EndChar

StartChar: X
Encoding: 88 88 57
Width: 928
VWidth: 0
Flags: MW
HStem: 0 21G<63.9679 284.302 589.347 804.693> 1430 20G<279.556 496.281 853.325 1070.25>
DStem2: 544.814 1382 262.814 1370 0.208811 -0.977956<-76.4348 384.427> 808.814 1416 1102.81 1366 0.502417 0.864625<-1500.14 -1172.22 -291.347 31.1809>
LayerCount: 2
Back
SplineSet
558 746 m 1
 448 1382 l 2
 438 1432 410 1450 366 1450 c 2
 218 1450 l 2
 168 1450 152 1420 166 1370 c 1
 342 554 l 1
 356 856 l 1
 -58 84 l 2
 -88 28 -68 0 -26 0 c 2
 166 0 l 2
 210 0 220 14 232 34 c 1
 516 660 l 1
 558 746 l 1
368 704 m 1
 444 68 l 1
 454 18 482 0 526 0 c 2
 676 0 l 2
 724 0 740 30 726 80 c 1
 550 896 l 1
 580 640 l 1
 1006 1366 l 2
 1030 1408 1034 1450 968 1450 c 2
 778 1450 l 2
 734 1450 724 1436 712 1416 c 1
 420 808 l 1
 368 704 l 1
EndSplineSet
Fore
SplineSet
623 0 m 2,0,1
 549 0 549 0 541 68 c 2,2,-1
 500 411 l 1,3,-1
 329 34 l 2,4,5
 323 21 323 21 309 11 c 0,6,7
 294 0 294 0 263 0 c 2,8,-1
 71 0 l 2,9,10
 41 0 41 0 30 18 c 0,11,12
 16 41 16 41 39 84 c 2,13,-1
 397 751 l 1,14,-1
 263 1370 l 2,15,16
 255 1406 255 1406 266 1428 c 0,17,18
 276 1450 276 1450 315 1450 c 2,19,-1
 463 1450 l 2,20,21
 530 1450 530 1450 545 1382 c 1,22,-1
 611 1003 l 1,23,-1
 809 1416 l 2,24,25
 815 1428 815 1428 830 1440 c 0,26,27
 843 1450 843 1450 876 1450 c 2,28,-1
 1065 1450 l 2,29,30
 1097 1450 1097 1450 1109 1436 c 0,31,32
 1130 1410 1130 1410 1103 1366 c 2,33,-1
 695 671 l 1,34,-1
 823 80 l 2,35,36
 832 40 832 40 818 18 c 0,37,38
 807 0 807 0 773 0 c 2,39,-1
 623 0 l 2,0,1
EndSplineSet
Validated: 19489
Colour: ffffff
EndChar

StartChar: Y
Encoding: 89 89 58
Width: 888
VWidth: 0
Flags: MW
HStem: 0 21G<242.983 443.277> 1433 20G<281.106 459.384 481.11 498.124 912.21 1105.38>
DStem2: 209.384 62 479.384 44 0.24584 0.969311<-7.31588 713.209>
LayerCount: 2
Back
SplineSet
328 732 m 1
 158 62 l 2
 150 30 164 0 198 0 c 2
 368 0 l 2
 398 0 420 14 428 44 c 2
 608 752 l 1
 328 732 l 1
484 684 m 1
 538 552 l 1
 698 762 914 1080 1078 1368 c 0
 1102 1410 1082 1438 1054 1440 c 2
 884 1448 l 2
 856 1450 834 1444 824 1422 c 0
 710 1168 568 962 418 738 c 1
 526 710 l 1
 530 924 504 1180 466 1406 c 0
 458 1452 442 1456 408 1454 c 2
 248 1446 l 2
 210 1444 186 1406 204 1358 c 1
 246 1192 298 790 298 612 c 1
 484 684 l 1
EndSplineSet
Fore
SplineSet
574 895 m 1,0,1
 771 1194 771 1194 875 1422 c 0,2,3
 889 1450 889 1450 935 1448 c 2,4,-1
 1105 1440 l 2,5,6
 1117 1439 1117 1439 1127 1432 c 0,7,8
 1154 1411 1154 1411 1129 1368 c 0,9,10
 1115 1344 1115 1344 1100 1319 c 0,11,12
 878 939 878 939 618 590 c 1,13,-1
 479 44 l 1,14,15
 467 1 467 1 419 0 c 1,16,-1
 249 0 l 2,17,18
 236 0 236 0 226 6 c 0,19,20
 200 23 200 23 209 62 c 2,21,-1
 349 614 l 1,22,23
 349 704 349 704 333 862 c 0,24,25
 300 1183 300 1183 255 1358 c 1,26,27
 245 1385 245 1385 252 1409 c 0,28,29
 263 1444 263 1444 299 1446 c 2,30,-1
 459 1454 l 2,31,32
 476 1455 476 1455 486 1453 c 0,33,34
 510 1448 510 1448 517 1406 c 0,35,36
 562 1141 562 1141 574 895 c 1,0,1
EndSplineSet
Validated: 19489
Colour: ff00
EndChar

StartChar: Z
Encoding: 90 90 61
Width: 946
VWidth: 0
Flags: MW
HStem: 0 238<426 798.062> 1210 238<371 739 1022 1095.18>
DStem2: 47 95 426 238 0.527325 0.849664<321.358 1312.28>
LayerCount: 2
Back
SplineSet
312 1448 m 2
 294 1448 288 1444 280 1408 c 2
 248 1282 l 2
 234 1230 246 1210 286 1210 c 2
 946 1210 l 2
 976 1210 1008 1236 1014 1266 c 2
 1040 1384 l 2
 1050 1428 1032 1448 994 1448 c 2
 312 1448 l 2
208 238 m 1
 -40 94 l 1
 -54 42 -50 0 22 0 c 2
 650 0 l 2
 680 0 712 26 718 56 c 2
 744 174 l 2
 754 218 736 238 698 238 c 2
 208 238 l 1
772 1400 m 1
 -40 92 l 1
 220 40 l 1
 1042 1382 l 1
 1050 1414 1036 1444 1002 1444 c 2
 832 1444 l 2
 802 1444 780 1430 772 1400 c 1
EndSplineSet
Fore
SplineSet
397 1448 m 2,0,1
 1079 1448 l 2,2,3
 1118 1448 1118 1448 1127 1416 c 0,4,5
 1131 1401 1131 1401 1127 1382 c 1,6,-1
 1123 1376 l 1,7,-1
 1099 1266 l 2,8,9
 1096 1254 1096 1254 1088 1242 c 0,10,11
 1065 1210 1065 1210 1031 1210 c 2,12,-1
 1022 1210 l 1,13,-1
 426 238 l 1,14,-1
 783 238 l 2,15,16
 842 238 842 238 829 174 c 1,17,-1
 803 56 l 2,18,19
 800 44 800 44 792 32 c 0,20,21
 769 0 769 0 735 0 c 2,22,-1
 107 0 l 2,23,24
 55 0 55 0 41 34 c 0,25,26
 28 65 28 65 47 95 c 2,27,-1
 739 1210 l 1,28,-1
 371 1210 l 2,29,30
 364 1210 364 1210 356 1211 c 0,31,32
 317 1218 317 1218 333 1282 c 2,33,-1
 365 1408 l 2,34,35
 370 1427 370 1427 372 1433 c 0,36,37
 378 1448 378 1448 397 1448 c 2,0,1
EndSplineSet
Validated: 19489
Colour: ffffff
EndChar

StartChar: a
Encoding: 97 97 63
Width: 898
VWidth: 0
Flags: W
HStem: -6 21G<254.61 308.284> 867 209<539.691 666.157>
VStem: 94 268<182.242 495.071>
DStem2: 657.383 824 945.383 1020 0.28675 0.958005<-418.905 31.6077 203.638 255.934>
LayerCount: 2
Back
SplineSet
356 214 m 1
 440 18 l 1
 572 56 l 1
 860 1020 l 2
 872 1064 852 1086 804 1086 c 2
 676 1084 l 2
 640 1084 632 1056 626 1030 c 2
 588 870 l 1
 572 824 l 1
 526 668 458 518 400 418 c 0
 356 344 314 298 294 298 c 0
 276 298 274 308 284 358 c 0
 312 510 418 814 476 858 c 0
 506 880 600 854 620 836 c 1
 656 994 l 1
 616 1034 540 1076 460 1076 c 0
 410 1076 350 1062 300 1024 c 0
 186 938 38 542 10 254 c 0
 2 176 34 112 86 60 c 0
 112 34 152 -6 186 -6 c 2
 200 -6 l 2
 248 -6 288 30 366 124 c 2
 528 318 l 1
 356 214 l 1
388 138 m 1
 440 12 l 2
 448 -4 458 -12 476 -10 c 0
 622 6 752 128 836 250 c 0
 846 264 842 282 822 296 c 2
 734 354 l 2
 712 368 696 360 684 340 c 0
 642 270 518 166 388 138 c 1
EndSplineSet
Fore
SplineSet
473 138 m 1,0,-1
 474 138 l 1,1,-1
 470 147 l 1,2,-1
 451 124 l 2,3,4
 415 81 415 81 389 53 c 0,5,6
 331 -6 331 -6 285 -6 c 2,7,-1
 271 -6 l 1,8,9
 237 -4 237 -4 171 60 c 1,10,11
 94 136 94 136 94 228 c 0,12,13
 94 406 94 406 218 739 c 0,14,15
 299 959 299 959 385 1024 c 0,16,17
 453 1075 453 1075 545 1076 c 1,18,19
 631 1076 631 1076 709 1021 c 1,20,-1
 713 1038 l 2,21,22
 719 1062 719 1062 726 1070 c 0,23,24
 741 1086 741 1086 761 1086 c 2,25,-1
 889 1086 l 2,26,27
 960 1086 960 1086 945 1020 c 1,28,-1
 725 285 l 1,29,30
 753 313 753 313 769 340 c 0,31,32
 789 372 789 372 819 354 c 1,33,-1
 907 296 l 1,34,35
 936 274 936 274 921 250 c 1,36,37
 894 211 894 211 864 176 c 0,38,39
 714 3 714 3 561 -10 c 0,40,41
 538 -12 538 -12 525 12 c 1,42,-1
 473 138 l 1,0,-1
667 854 m 1,43,44
 663 855 663 855 659 857 c 0,45,46
 622 868 622 868 597 867 c 0,47,48
 574 867 574 867 561 858 c 0,49,50
 526 831 526 831 470 690 c 0,51,52
 398 509 398 509 369 358 c 0,53,54
 363 324 363 324 362 313 c 0,55,56
 362 298 362 298 374 298 c 0,57,58
 381 298 381 298 387 300 c 0,59,60
 424 317 424 317 485 418 c 1,61,62
 591 601 591 601 657 824 c 1,63,-1
 667 854 l 1,43,44
EndSplineSet
Validated: 19489
Colour: ffffff
EndChar

StartChar: acute
Encoding: 180 180 66
Width: 678
VWidth: 0
Flags: W
HStem: 1150 298<350.531 418.75>
LayerCount: 2
Back
SplineSet
526 1448 m 2
 334 1448 l 2
 306 1448 288 1438 272 1414 c 2
 134 1184 l 2
 124 1168 126 1150 154 1150 c 2
 252 1150 l 2
 280 1150 300 1158 320 1178 c 2
 540 1398 l 2
 570 1428 552 1448 526 1448 c 2
EndSplineSet
Fore
SplineSet
611 1448 m 2,0,1
 623 1448 623 1448 632 1442 c 0,2,3
 654 1427 654 1427 625 1398 c 2,4,-1
 405 1178 l 2,5,6
 377 1151 377 1151 337 1150 c 2,7,-1
 239 1150 l 2,8,9
 231 1150 231 1150 225 1152 c 0,10,11
 204 1160 204 1160 219 1184 c 2,12,-1
 357 1414 l 1,13,14
 379 1447 379 1447 419 1448 c 1,15,-1
 611 1448 l 2,0,1
EndSplineSet
Validated: 19457
Colour: ffffff
EndChar

StartChar: ae
Encoding: 230 230 68
Width: 990
VWidth: 0
Flags: W
VStem: 20 216<174.098 361.952> 838 216<676.418 875.902>
DStem2: 407 464 610 322 0.246999 0.969016<-172.424 -72.1832 220.688 341.478>
LayerCount: 2
Back
SplineSet
428 686 m 1
 200 620 -30 412 -30 198 c 0
 -30 110 12 34 110 -8 c 0
 208 -50 314 -4 384 96 c 0
 494 254 682 750 646 924 c 0
 622 1038 482 1074 428 1088 c 1
 360 1100 134 908 90 822 c 0
 84 810 92 788 108 778 c 2
 206 718 l 2
 218 710 236 712 246 722 c 0
 278 756 344 828 380 836 c 1
 416 824 434 808 414 714 c 0
 368 490 334 362 294 260 c 0
 282 228 234 172 212 172 c 0
 192 172 186 184 186 226 c 0
 186 340 272 430 380 474 c 1
 428 686 l 1
552 334 m 1
 780 400 1004 638 1004 852 c 0
 1004 940 962 1016 864 1058 c 0
 766 1100 668 1058 588 956 c 0
 468 804 292 300 328 126 c 0
 352 12 492 -24 546 -38 c 1
 614 -50 840 142 884 228 c 0
 890 240 882 262 866 272 c 2
 768 332 l 2
 756 340 738 338 728 328 c 0
 696 294 630 222 594 214 c 1
 558 226 540 228 560 322 c 0
 606 546 640 674 680 776 c 0
 692 808 740 878 762 878 c 0
 782 878 788 866 788 824 c 0
 788 710 708 590 600 546 c 1
 552 334 l 1
EndSplineSet
Fore
SplineSet
661 551 m 1,0,1
 717 578 717 578 762 629 c 0,2,3
 838 719 838 719 838 824 c 0,4,5
 838 842 838 842 836 854 c 0,6,7
 832 878 832 878 812 878 c 0,8,9
 801 878 801 878 782 857 c 0,10,11
 745 817 745 817 730 776 c 0,12,13
 693 683 693 683 661 551 c 1,0,1
613 337 m 1,14,15
 610 322 l 2,16,17
 596 256 596 256 608 234 c 0,18,19
 614 224 614 224 644 214 c 1,20,21
 646 215 646 215 650 216 c 0,22,23
 684 229 684 229 778 328 c 0,24,25
 779 329 779 329 781 331 c 0,26,27
 799 344 799 344 818 332 c 2,28,-1
 916 272 l 2,29,30
 920 269 920 269 925 265 c 0,31,32
 943 245 943 245 934 228 c 0,33,34
 930 220 930 220 923 210 c 0,35,36
 875 139 875 139 766 52 c 0,37,38
 642 -46 642 -46 596 -38 c 1,39,40
 460 -2 460 -2 408 63 c 1,41,42
 385 37 385 37 357 18 c 0,43,44
 259 -50 259 -50 160 -8 c 0,45,46
 158 -7 158 -7 154 -6 c 0,47,48
 20 55 20 55 20 198 c 1,49,50
 24 348 24 348 163 497 c 1,51,52
 289 624 289 624 457 679 c 1,53,-1
 464 714 l 2,54,55
 477 774 477 774 469 801 c 0,56,57
 462 825 462 825 430 836 c 1,58,59
 428 835 428 835 424 834 c 0,60,61
 390 821 390 821 296 722 c 0,62,63
 295 721 295 721 293 719 c 0,64,65
 275 706 275 706 256 718 c 2,66,-1
 158 778 l 2,67,68
 154 781 154 781 149 785 c 0,69,70
 131 805 131 805 140 822 c 0,71,72
 144 830 144 830 151 840 c 0,73,74
 199 911 199 911 308 998 c 0,75,76
 432 1096 432 1096 478 1088 c 1,77,78
 614 1052 614 1052 666 988 c 1,79,80
 672 994 672 994 679 1001 c 0,81,82
 793 1110 793 1110 914 1058 c 0,83,84
 916 1057 916 1057 920 1056 c 0,85,86
 1054 995 1054 995 1054 852 c 0,87,88
 1054 829 1054 829 1050 805 c 0,89,90
 1028 658 1028 658 897 520 c 0,91,92
 770 386 770 386 613 337 c 1,14,15
407 464 m 1,93,94
 373 448 373 448 344 426 c 0,95,96
 236 344 236 344 236 226 c 0,97,98
 236 208 236 208 238 196 c 0,99,100
 242 172 242 172 262 172 c 0,101,102
 273 173 273 173 292 189 c 0,103,104
 330 224 330 224 344 260 c 0,105,106
 377 344 377 344 407 464 c 1,93,94
EndSplineSet
Validated: 19489
Colour: ffffff
EndChar

StartChar: ampersand
Encoding: 38 38 70
Width: 1238
VWidth: 0
Flags: MW
HStem: -24 214<406.524 598.402> 672 192<863 888 1118 1253.57> 1180 170<700.822 849.844>
VStem: 116 275<205.095 423.477> 335 274<759.404 1091.04>
DStem2: 929 278 725 65 0.622139 -0.782907<39.8429 238.017>
LayerCount: 2
Back
SplineSet
816 728 m 1
 794 606 728 474 668 392 c 0
 586 280 482 190 404 190 c 0
 326 190 306 256 306 302 c 0
 306 414 414 512 524 526 c 1
 380 716 l 1
 240 640 66 548 36 328 c 1
 8 138 112 8 302 -20 c 1
 584 -58 770 150 898 360 c 0
 936 422 1002 556 1036 684 c 1
 816 728 l 1
1044 -88 m 0
 1086 -76 1086 -44 1070 -24 c 0
 872 212 634 590 590 700 c 0
 542 820 524 896 524 958 c 0
 524 1096 650 1180 716 1180 c 1
 726 1182 754 1190 764 1220 c 2
 790 1300 l 2
 792 1312 794 1342 762 1346 c 0
 496 1384 280 1168 250 952 c 0
 232 830 270 736 326 596 c 0
 366 496 562 130 766 -88 c 1
 864 -134 1004 -100 1044 -88 c 0
814 864 m 2
 796 864 790 860 784 840 c 2
 752 728 l 2
 742 690 728 672 776 672 c 2
 1130 672 l 2
 1156 672 1164 702 1172 728 c 2
 1200 820 l 1
 1214 856 1196 864 1182 864 c 2
 814 864 l 2
EndSplineSet
Fore
SplineSet
899 864 m 2,0,1
 1267 864 l 1,2,3
 1298 861 1298 861 1285 820 c 2,4,-1
 1257 728 l 2,5,6
 1254 718 1254 718 1253 714 c 0,7,8
 1239 672 1239 672 1215 672 c 2,9,-1
 1118 672 l 1,10,11
 1111 649 1111 649 1103 623 c 0,12,13
 1053 473 1053 473 983 360 c 0,14,15
 960 322 960 322 929 278 c 1,16,17
 1055 95 1055 95 1155 -24 c 0,18,19
 1161 -32 1161 -32 1164 -43 c 0,20,21
 1171 -76 1171 -76 1129 -88 c 0,22,23
 1120 -91 1120 -91 1108 -94 c 0,24,25
 948 -134 948 -134 851 -88 c 1,26,27
 792 -25 792 -25 725 65 c 1,28,29
 597 -24 597 -24 452 -24 c 0,30,31
 420 -24 420 -24 387 -20 c 1,32,33
 277 -4 277 -4 207 56 c 0,34,35
 116 135 116 135 116 265 c 0,36,37
 116 295 116 295 121 328 c 0,38,39
 132 411 132 411 173 480 c 0,40,41
 234 582 234 582 382 670 c 1,42,43
 373 694 373 694 366 714 c 0,44,45
 320 846 320 846 335 952 c 0,46,47
 340 987 340 987 352 1024 c 0,48,49
 399 1165 399 1165 519 1257 c 0,50,51
 641 1350 641 1350 784 1350 c 0,52,53
 815 1350 815 1350 847 1346 c 0,54,55
 849 1346 l 0,56,57
 876 1342 876 1342 876 1313 c 0,58,59
 876 1307 876 1307 875 1300 c 1,60,-1
 849 1220 l 1,61,62
 838 1189 838 1189 801 1180 c 1,63,64
 751 1179 751 1179 695 1133 c 0,65,66
 609 1062 609 1062 609 958 c 0,67,68
 609 865 609 865 675 700 c 0,69,70
 702 632 702 632 803 470 c 1,71,72
 859 568 859 568 888 672 c 1,73,-1
 861 672 l 2,74,75
 830 672 830 672 827 687 c 0,76,77
 827 690 827 690 837 728 c 2,78,-1
 869 840 l 2,79,80
 870 844 870 844 872 849 c 0,81,82
 879 864 879 864 899 864 c 2,0,1
475 465 m 1,83,84
 392 393 392 393 391 302 c 0,85,86
 391 284 391 284 395 266 c 0,87,88
 413 190 413 190 489 190 c 0,89,90
 539 190 539 190 606 239 c 1,91,92
 545 336 545 336 475 465 c 1,83,84
EndSplineSet
Validated: 8408097
Colour: ffffff
EndChar

StartChar: aogonek
Encoding: 261 261 71
Width: 838
VWidth: 0
Flags: W
HStem: -400 21G<389.652 448.5> -10 322<190.611 385.274> 1066 20G<751 914.779>
VStem: 233 200<-236.489 -87.5267>
DStem2: 447 72 665 56 0.246999 0.969016<4.40263 106.003 981.84 1054.56>
LayerCount: 2
Back
SplineSet
412 250 m 1
 362 72 l 2
 350 28 366 0 408 0 c 2
 490 0 l 2
 554 0 566 10 580 56 c 2
 850 1020 l 2
 862 1064 842 1086 794 1086 c 2
 666 1084 l 2
 630 1084 622 1056 616 1030 c 2
 578 870 l 1
 562 824 l 1
 488 630 342 312 286 312 c 0
 264 312 262 322 268 360 c 0
 294 502 402 794 460 838 c 0
 502 870 574 828 604 786 c 1
 646 994 l 1
 606 1034 530 1076 450 1076 c 0
 400 1076 356 1062 306 1024 c 0
 192 938 44 542 16 254 c 0
 4 136 -4 -10 150 -10 c 0
 204 -10 260 16 314 82 c 2
 514 322 l 1
 412 250 l 1
496 104 m 1
 382 76 148 -30 148 -232 c 0
 148 -284 172 -330 204 -356 c 0
 242 -388 286 -400 352 -400 c 0
 450 -400 506 -372 522 -366 c 0
 546 -356 556 -344 548 -322 c 2
 528 -252 l 2
 520 -230 504 -224 488 -228 c 0
 462 -236 450 -242 420 -244 c 0
 382 -246 348 -228 348 -186 c 0
 348 -122 404 -44 550 4 c 0
 574 12 570 38 550 56 c 2
 496 104 l 1
EndSplineSet
Fore
SplineSet
647 825 m 1,0,1
 585 865 585 865 545 838 c 1,2,3
 509 810 509 810 452 672 c 0,4,5
 378 493 378 493 353 360 c 0,6,7
 350 339 350 339 350 328 c 0,8,9
 351 312 351 312 371 312 c 0,10,11
 400 312 400 312 461 419 c 0,12,13
 554 580 554 580 647 824 c 1,14,-1
 647 825 l 1,0,1
699 1021 m 1,15,16
 701 1030 l 2,17,18
 703 1037 703 1037 704 1043 c 0,19,20
 716 1084 716 1084 751 1084 c 2,21,-1
 879 1086 l 1,22,23
 951 1085 951 1085 935 1020 c 1,24,-1
 665 56 l 2,25,26
 660 39 660 39 651 24 c 1,27,28
 650 11 650 11 635 4 c 1,29,30
 574 -16 574 -16 529 -45 c 0,31,32
 433 -107 433 -107 433 -186 c 0,33,34
 433 -198 433 -198 437 -209 c 0,35,36
 452 -247 452 -247 505 -244 c 0,37,38
 525 -243 525 -243 573 -228 c 1,39,40
 601 -222 601 -222 613 -252 c 1,41,-1
 633 -322 l 1,42,43
 642 -350 642 -350 607 -366 c 1,44,-1
 596 -370 l 2,45,46
 585 -374 585 -374 577.5 -377 c 128,-1,47
 570 -380 570 -380 553 -385 c 128,-1,48
 536 -390 536 -390 520.5 -393 c 128,-1,49
 505 -396 505 -396 482.5 -398 c 128,-1,50
 460 -400 460 -400 437 -400 c 0,51,52
 342 -400 342 -400 289 -356 c 0,53,54
 286 -354 286 -354 283 -351 c 0,55,56
 233 -305 233 -305 233 -232 c 0,57,58
 233 -195 233 -195 244 -159 c 0,59,60
 283 -33 283 -33 443 51 c 1,61,62
 443 58 443 58 447 72 c 2,63,-1
 476 174 l 1,64,-1
 399 82 l 2,65,66
 323 -9 323 -9 235 -10 c 1,67,68
 146 -9 146 -9 113 58 c 1,69,70
 86 115 86 115 101 254 c 0,71,72
 101 257 101 257 102 262 c 0,73,74
 127 491 127 491 224 739 c 0,75,76
 312 963 312 963 391 1024 c 0,77,78
 459 1075 459 1075 535 1076 c 1,79,80
 621 1076 621 1076 699 1021 c 1,15,16
EndSplineSet
Validated: 19489
Colour: ffffff
EndChar

StartChar: asciicircum
Encoding: 94 94 73
Width: 924
VWidth: 0
Flags: W
LayerCount: 2
Back
SplineSet
618 1238 m 2
 578 462 l 2
 578 436 596 426 630 426 c 2
 782 426 l 2
 812 426 840 436 840 460 c 2
 858 1194 l 2
 860 1246 822 1272 786 1272 c 2
 672 1272 l 2
 642 1272 618 1262 618 1238 c 2
676 1236 m 1
 690 1272 l 1
 554 1272 l 2
 510 1272 452 1244 418 1184 c 2
 -16 462 l 1
 -16 436 2 426 36 426 c 2
 196 426 l 2
 226 426 254 436 254 460 c 1
 676 1236 l 1
EndSplineSet
Fore
SplineSet
757 1272 m 1,0,-1
 775 1272 l 1,1,-1
 871 1272 l 2,2,3
 885 1272 885 1272 900 1266 c 0,4,5
 945 1247 945 1247 943 1194 c 2,6,-1
 925 460 l 1,7,8
 920 431 920 431 867 426 c 1,9,-1
 715 426 l 2,10,11
 665 427 665 427 663 462 c 1,12,-1
 697 1118 l 1,13,-1
 339 460 l 1,14,15
 334 431 334 431 281 426 c 1,16,-1
 121 426 l 2,17,18
 71 427 71 427 69 462 c 1,19,-1
 503 1184 l 2,20,21
 514 1203 514 1203 530 1220 c 0,22,23
 579 1272 579 1272 639 1272 c 2,24,-1
 757 1272 l 1,0,-1
EndSplineSet
Validated: 3105
Colour: ffffff
EndChar

StartChar: asciitilde
Encoding: 126 126 74
Width: 0
VWidth: 0
Flags: W
LayerCount: 2
Back
SplineSet
108 738 m 2
 94 686 108 654 146 666 c 0
 254 700 366 706 464 666 c 0
 568 624 684 648 760 670 c 0
 794 680 806 692 812 716 c 2
 840 840 l 2
 850 884 830 914 794 904 c 0
 686 876 590 870 480 904 c 0
 382 934 240 926 170 896 c 0
 154 888 144 880 138 856 c 2
 108 738 l 2
EndSplineSet
Fore
SplineSet
193 738 m 2,0,1
 223 856 l 2,2,3
 223 857 223 857 224 859 c 0,4,5
 231 883 231 883 255 896 c 1,6,7
 287 909 287 909 335 917 c 0,8,9
 462 936 462 936 565 904 c 0,10,11
 572 902 572 902 580 900 c 0,12,13
 716 862 716 862 879 904 c 0,14,15
 896 908 896 908 909 902 c 0,16,17
 936 887 936 887 925 840 c 2,18,-1
 897 716 l 2,19,20
 896 712 896 712 894 707 c 0,21,22
 884 682 884 682 845 670 c 0,23,24
 667 619 667 619 549 666 c 0,25,26
 411 722 411 722 231 666 c 0,27,28
 216 661 216 661 206 665 c 0,29,30
 176 677 176 677 193 738 c 2,0,1
EndSplineSet
Validated: 3105
Colour: ffffff
EndChar

StartChar: asterisk
Encoding: 42 42 75
Width: 870
VWidth: 0
Flags: W
LayerCount: 2
Back
SplineSet
342 1064 m 1
 128 898 l 2
 94 872 102 844 122 820 c 2
 192 742 l 2
 210 720 246 714 272 752 c 2
 438 976 l 1
 506 742 l 2
 518 702 550 702 578 718 c 2
 680 780 l 2
 710 798 714 830 698 852 c 2
 552 1060 l 1
 818 1092 l 2
 858 1098 868 1126 868 1156 c 2
 868 1240 l 2
 868 1280 840 1312 800 1296 c 2
 550 1202 l 1
 646 1418 l 2
 666 1462 626 1484 596 1484 c 2
 490 1484 l 2
 454 1484 422 1468 416 1434 c 1
 406 1204 l 1
 186 1302 l 2
 160 1314 132 1290 126 1264 c 2
 94 1150 l 2
 84 1116 98 1082 128 1080 c 2
 342 1064 l 1
EndSplineSet
Fore
SplineSet
427 1064 m 1,0,-1
 213 1080 l 2,1,2
 201 1081 201 1081 191 1089 c 0,3,4
 167 1110 167 1110 179 1150 c 2,5,-1
 211 1264 l 2,6,7
 214 1275 214 1275 222 1286 c 0,8,9
 244 1315 244 1315 271 1302 c 2,10,-1
 491 1204 l 1,11,-1
 501 1434 l 2,12,13
 502 1439 502 1439 504 1444 c 0,14,15
 519 1484 519 1484 575 1484 c 2,16,-1
 681 1484 l 2,17,18
 696 1484 696 1484 710 1477 c 0,19,20
 749 1458 749 1458 731 1418 c 2,21,-1
 635 1202 l 1,22,-1
 885 1296 l 2,23,24
 905 1304 905 1304 923 1296 c 0,25,26
 953 1282 953 1282 953 1240 c 2,27,-1
 953 1156 l 2,28,29
 952 1101 952 1101 903 1092 c 1,30,-1
 637 1060 l 1,31,-1
 783 852 l 2,32,33
 788 845 788 845 791 835 c 0,34,35
 799 801 799 801 765 780 c 2,36,-1
 663 718 l 2,37,38
 658 715 658 715 651 712 c 0,39,40
 605 694 605 694 591 742 c 2,41,-1
 523 976 l 1,42,-1
 357 752 l 2,43,44
 345 736 345 736 329 728 c 0,45,46
 299 715 299 715 277 742 c 1,47,-1
 207 820 l 1,48,49
 171 864 171 864 213 898 c 2,50,-1
 427 1064 l 1,0,-1
EndSplineSet
Validated: 3105
Colour: ffffff
EndChar

StartChar: at
Encoding: 64 64 76
Width: 1888
VWidth: 0
Flags: MW
HStem: -354 186<767.511 1010.86> 14 226<1253.84 1413.25> 20 234<852.878 973.472> 747 253<1018.55 1151.19> 1220 180<893.52 1356.71>
VStem: 194 257<152.838 697.9> 644 225<256.617 536.997> 1596 233<516.378 989.406>
LayerCount: 2
Back
SplineSet
1000 164 m 1
 958 182 l 1
 1004 64 1068 14 1206 14 c 0
 1386 14 1626 192 1712 542 c 1
 1840 1046 1578 1400 1026 1400 c 0
 654 1400 288 1164 150 702 c 1
 12 220 234 -354 804 -354 c 0
 860 -354 886 -352 918 -318 c 2
 964 -268 l 2
 1030 -194 970 -170 904 -168 c 0
 346 -144 324 372 398 656 c 1
 488 992 728 1220 1028 1220 c 0
 1428 1220 1572 944 1486 588 c 0
 1416 298 1286 240 1214 240 c 0
 1178 240 1156 272 1174 338 c 2
 1338 946 l 2
 1348 990 1330 1010 1284 1010 c 2
 1170 1008 l 2
 1134 1008 1126 982 1120 956 c 0
 1078 778 1048 566 966 418 c 0
 920 334 868 254 830 254 c 0
 792 254 784 306 784 342 c 0
 784 480 892 694 948 736 c 0
 988 766 1064 726 1094 686 c 1
 1150 922 l 1
 1124 934 1038 1000 960 1000 c 0
 912 1000 870 988 822 950 c 0
 682 844 468 414 600 140 c 0
 638 58 720 20 782 20 c 0
 886 20 972 102 1000 164 c 1
EndSplineSet
Fore
SplineSet
1202 941 m 1,0,1
 1205 956 l 2,2,3
 1206 960 1206 960 1208 968 c 0,4,5
 1219 1008 1219 1008 1255 1008 c 2,6,-1
 1369 1008 l 2,7,8
 1440 1008 1440 1008 1423 946 c 2,9,-1
 1259 338 l 2,10,11
 1251 308 1251 308 1253 284 c 0,12,13
 1258 240 1258 240 1299 240 c 0,14,15
 1335 240 1335 240 1373 258 c 0,16,17
 1517 330 1517 330 1577 615 c 0,18,19
 1595 703 1595 703 1596 780 c 0,20,21
 1596 934 1596 934 1521 1043 c 0,22,23
 1399 1220 1399 1220 1113 1220 c 0,24,25
 901 1220 901 1220 734 1077 c 0,26,27
 552 921 552 921 483 656 c 0,28,29
 452 535 452 535 451 409 c 0,30,31
 451 242 451 242 515 110 c 0,32,33
 643 -157 643 -157 989 -168 c 0,34,35
 1016 -169 1016 -169 1037 -175 c 0,36,37
 1113 -196 1113 -196 1049 -268 c 1,38,-1
 1003 -318 l 2,39,40
 992 -330 992 -330 978 -339 c 0,41,42
 953 -354 953 -354 889 -354 c 0,43,44
 643 -354 643 -354 468 -216 c 0,45,46
 287 -72 287 -72 223 185 c 0,47,48
 194 302 194 302 194 420 c 0,49,50
 194 578 194 578 245 733 c 0,51,52
 352 1058 352 1058 603 1238 c 0,53,54
 831 1400 831 1400 1111 1400 c 0,55,56
 1238 1400 1238 1400 1347 1375 c 0,57,58
 1627 1311 1627 1311 1750 1099 c 0,59,60
 1830 961 1830 961 1829 783 c 0,61,62
 1829 670 1829 670 1797 542 c 0,63,64
 1729 271 1729 271 1551 122 c 0,65,66
 1422 14 1422 14 1291 14 c 0,67,68
 1245 14 1245 14 1210 22 c 0,69,70
 1116 42 1116 42 1066 132 c 1,71,72
 1055 117 1055 117 1042 102 c 0,73,74
 965 20 965 20 867 20 c 0,75,76
 839 20 839 20 808 30 c 0,77,78
 722 59 722 59 685 140 c 1,79,80
 644 237 644 237 644 342 c 0,81,82
 644 531 644 531 752 742 c 0,83,84
 828 890 828 890 907 950 c 1,85,86
 979 1000 979 1000 1045 1000 c 3,87,88
 1117 1000 1117 1000 1202 941 c 1,0,1
1152 713 m 1,89,90
 1142 720 1142 720 1131 727 c 0,91,92
 1096 747 1096 747 1069 747 c 0,93,94
 1049 747 1049 747 1033 736 c 0,95,96
 995 707 995 707 945 607 c 0,97,98
 869 454 869 454 869 342 c 1,99,100
 871 259 871 259 915 254 c 1,101,102
 969 255 969 255 1029 352 c 0,103,104
 1099 465 1099 465 1152 713 c 1,89,90
EndSplineSet
Validated: 8408097
Colour: ffffff
EndChar

StartChar: b
Encoding: 98 98 78
Width: 891
VWidth: 0
Flags: W
HStem: -8 208<370.638 496.692> 1498 20G<455.107 671.626>
VStem: 673 268<567.829 881>
DStem2: 59 64 325 44 0.246999 0.969016<-10.2772 50.4445 221.922 592.297 920.43 1511.83>
LayerCount: 2
Back
SplineSet
244 58 m 1
 278 198 l 1
 294 244 l 1
 340 400 408 550 466 650 c 0
 510 724 552 770 572 770 c 0
 590 770 592 760 582 710 c 0
 554 558 448 254 390 210 c 0
 360 188 266 214 246 232 c 1
 210 74 l 1
 250 34 326 -8 406 -8 c 0
 456 -8 516 6 566 44 c 0
 680 130 828 526 856 814 c 0
 864 892 832 956 780 1008 c 0
 754 1034 714 1074 680 1074 c 2
 666 1074 l 2
 618 1074 578 1038 500 944 c 2
 338 750 l 1
 244 58 l 1
604 1472 m 2
 612 1504 594 1518 560 1518 c 2
 394 1518 l 2
 364 1518 342 1504 334 1474 c 2
 -26 64 l 2
 -34 30 -20 0 26 0 c 2
 180 0 l 2
 210 0 232 14 240 44 c 2
 604 1472 l 2
EndSplineSet
Fore
SplineSet
689 1472 m 1,0,1
 541 891 l 1,2,-1
 585 944 l 2,3,4
 622 989 622 989 647 1015 c 0,5,6
 705 1074 705 1074 751 1074 c 2,7,-1
 765 1074 l 1,8,9
 799 1072 799 1072 865 1008 c 1,10,11
 941 929 941 929 941 833 c 0,12,13
 941 657 941 657 818 329 c 0,14,15
 736 109 736 109 651 44 c 0,16,17
 583 -7 583 -7 491 -8 c 1,18,19
 405 -8 405 -8 326 48 c 1,20,-1
 325 44 l 1,21,22
 313 1 313 1 265 0 c 1,23,-1
 111 0 l 2,24,25
 89 0 89 0 75 10 c 0,26,27
 50 26 50 26 59 64 c 2,28,-1
 419 1474 l 1,29,30
 431 1517 431 1517 479 1518 c 1,31,-1
 645 1518 l 2,32,33
 698 1518 698 1518 689 1472 c 1,0,1
369 214 m 1,34,35
 411 200 411 200 439 200 c 0,36,37
 462 200 462 200 475 210 c 0,38,39
 510 237 510 237 566 378 c 0,40,41
 628 535 628 535 667 710 c 0,42,43
 672 734 672 734 673 755 c 0,44,45
 673 769 673 769 660 770 c 0,46,47
 652 770 652 770 649 768 c 0,48,49
 612 751 612 751 551 650 c 0,50,51
 445 467 445 467 379 244 c 1,52,-1
 369 214 l 1,34,35
EndSplineSet
Validated: 19457
Colour: ffffff
EndChar

StartChar: backslash
Encoding: 92 92 79
Width: 690
VWidth: 0
Flags: W
HStem: 0 21G<387.865 598.584> 1500 20G<261.863 472>
VStem: 237 386
DStem2: 623 60 236.788 1444.44 0.0841072 -0.996457<-1467.56 40.2578>
LayerCount: 2
Back
SplineSet
152 1442 m 2
 272 62 l 2
 276 22 292 0 326 0 c 2
 484 0 l 2
 526 0 542 22 538 60 c 2
 420 1458 l 2
 418 1490 406 1520 360 1520 c 2
 208 1520 l 2
 178 1520 146 1506 152 1442 c 2
EndSplineSet
Fore
SplineSet
237 1442 m 2,0,1
 237 1444 l 0,2,3
 231 1520 231 1520 293 1520 c 2,4,-1
 445 1520 l 1,5,6
 499 1519 499 1519 505 1458 c 2,7,8
 623 60 l 2,9,10
 628 2 628 2 569 0 c 1,11,-1
 411 0 l 2,12,13
 365 1 365 1 357 62 c 1,14,-1
 237 1442 l 2,0,1
EndSplineSet
Validated: 19489
Colour: ffffff
EndChar

StartChar: bar
Encoding: 124 124 80
Width: 478
VWidth: 0
Flags: W
HStem: -400 21G<-17.471 150.894> 1498 20G<437.107 637.529>
DStem2: -63 -336 187 -356 0.246999 0.969016<-14.1337 1924.21>
LayerCount: 2
Back
SplineSet
570 1472 m 2
 578 1504 560 1518 526 1518 c 2
 376 1518 l 2
 346 1518 324 1504 316 1474 c 2
 -148 -336 l 2
 -156 -370 -142 -400 -96 -400 c 2
 42 -400 l 2
 72 -400 94 -386 102 -356 c 2
 570 1472 l 2
EndSplineSet
Fore
SplineSet
655 1472 m 1,0,1
 187 -356 l 1,2,3
 175 -399 175 -399 127 -400 c 1,4,-1
 -11 -400 l 2,5,6
 -24 -400 -24 -400 -35 -397 c 0,7,8
 -74 -384 -74 -384 -63 -336 c 2,9,-1
 401 1474 l 1,10,11
 413 1517 413 1517 461 1518 c 1,12,-1
 611 1518 l 2,13,14
 664 1517 664 1517 655 1472 c 1,0,1
EndSplineSet
Validated: 19489
Colour: ffffff
EndChar

StartChar: braceleft
Encoding: 123 123 81
Width: 644
VWidth: 0
Flags: W
HStem: -324 238<292.533 574.062> 1494 238<664.413 1020.06>
LayerCount: 2
Back
SplineSet
414 -324 m 1
 426 -324 l 2
 456 -324 488 -298 494 -268 c 2
 520 -150 l 2
 530 -106 512 -86 474 -86 c 2
 294 -86 l 2
 206 -86 180 -54 236 76 c 0
 290 198 390 338 416 456 c 0
 438 550 352 662 290 712 c 1
 374 744 444 762 508 854 c 0
 564 934 548 1098 532 1234 c 0
 508 1430 584 1494 716 1494 c 2
 874 1494 l 2
 902 1494 934 1520 940 1550 c 2
 966 1668 l 2
 976 1712 958 1732 920 1732 c 2
 680 1732 l 1
 356 1728 276 1518 302 1224 c 0
 314 1098 342 948 202 912 c 2
 122 892 l 2
 90 884 58 864 50 832 c 2
 14 682 l 2
 4 640 18 616 48 604 c 2
 94 586 l 2
 314 500 -104 124 -54 -112 c 1
 -38 -236 66 -328 186 -328 c 1
 414 -324 l 1
EndSplineSet
Fore
SplineSet
499 -324 m 1,0,-1
 271 -328 l 1,1,2
 194 -328 194 -328 130 -281 c 0,3,4
 45 -218 45 -218 31 -112 c 1,5,6
 22 -66 22 -66 34 -7 c 0,7,8
 52 75 52 75 139 238 c 0,9,10
 217 383 217 383 233 438 c 0,11,12
 267 552 267 552 179 586 c 2,13,-1
 133 604 l 1,14,15
 86 623 86 623 99 682 c 1,16,-1
 135 832 l 2,17,18
 135 833 135 833 136 836 c 0,19,20
 149 878 149 878 207 892 c 2,21,-1
 287 912 l 2,22,23
 297 915 297 915 306 918 c 0,24,25
 393 951 393 951 397 1073 c 0,26,27
 398 1100 398 1100 387 1224 c 0,28,29
 376 1354 376 1354 393 1450 c 0,30,31
 445 1728 445 1728 765 1732 c 1,32,-1
 1005 1732 l 2,33,34
 1064 1731 1064 1731 1051 1668 c 1,35,-1
 1025 1550 l 2,36,37
 1022 1538 1022 1538 1014 1526 c 0,38,39
 991 1494 991 1494 959 1494 c 2,40,-1
 801 1494 l 2,41,42
 757 1494 757 1494 723 1484 c 0,43,44
 592 1445 592 1445 617 1234 c 0,45,46
 621 1196 621 1196 624 1168 c 0,47,48
 648 932 648 932 593 854 c 0,49,50
 552 795 552 795 492 761 c 0,51,52
 468 748 468 748 375 712 c 1,53,54
 407 686 407 686 436 649 c 0,55,56
 521 542 521 542 501 456 c 0,57,58
 485 385 485 385 416 257 c 0,59,60
 336 111 336 111 321 76 c 0,61,62
 285 -7 285 -7 293 -45 c 0,63,64
 302 -86 302 -86 379 -86 c 2,65,-1
 559 -86 l 2,66,67
 618 -87 618 -87 605 -150 c 1,68,-1
 579 -268 l 2,69,70
 576 -280 576 -280 568 -292 c 0,71,72
 545 -324 545 -324 511 -324 c 2,73,-1
 499 -324 l 1,0,-1
EndSplineSet
Validated: 19489
Colour: ffffff
EndChar

StartChar: braceright
Encoding: 125 125 82
Width: 684
VWidth: 0
Flags: W
HStem: -328 238<-166.062 189.587> 1490 238<279.938 561.467>
LayerCount: 2
Back
SplineSet
270 1728 m 1
 258 1728 l 2
 228 1728 196 1702 190 1672 c 2
 164 1554 l 2
 154 1510 172 1490 210 1490 c 2
 390 1490 l 2
 478 1490 504 1458 448 1328 c 0
 394 1206 294 1066 268 948 c 0
 246 854 332 742 394 692 c 1
 310 660 240 642 176 550 c 0
 120 470 136 306 152 170 c 0
 176 -26 100 -90 -32 -90 c 2
 -190 -90 l 2
 -218 -90 -250 -116 -256 -146 c 2
 -282 -264 l 2
 -292 -308 -274 -328 -236 -328 c 2
 4 -328 l 1
 328 -324 408 -114 382 180 c 0
 370 306 342 456 482 492 c 2
 562 512 l 2
 594 520 626 540 634 572 c 2
 670 722 l 2
 680 764 666 788 636 800 c 2
 590 818 l 2
 370 904 788 1280 738 1516 c 1
 722 1640 618 1732 498 1732 c 1
 270 1728 l 1
EndSplineSet
Fore
SplineSet
355 1728 m 1,0,-1
 583 1732 l 1,1,2
 660 1732 660 1732 724 1685 c 0,3,4
 809 1622 809 1622 823 1516 c 1,5,6
 832 1470 832 1470 820 1411 c 0,7,8
 802 1329 802 1329 715 1166 c 0,9,10
 637 1021 637 1021 621 966 c 0,11,12
 587 852 587 852 675 818 c 2,13,-1
 721 800 l 1,14,15
 768 781 768 781 755 722 c 1,16,-1
 719 572 l 2,17,18
 719 571 719 571 718 568 c 0,19,20
 705 526 705 526 647 512 c 2,21,-1
 567 492 l 2,22,23
 557 489 557 489 548 486 c 0,24,25
 461 453 461 453 457 331 c 0,26,27
 456 304 456 304 467 180 c 0,28,29
 478 50 478 50 461 -46 c 0,30,31
 409 -324 409 -324 89 -328 c 1,32,-1
 -151 -328 l 2,33,34
 -210 -327 -210 -327 -197 -264 c 1,35,-1
 -171 -146 l 2,36,37
 -168 -134 -168 -134 -160 -122 c 0,38,39
 -137 -90 -137 -90 -105 -90 c 2,40,-1
 53 -90 l 2,41,42
 97 -90 97 -90 131 -80 c 0,43,44
 262 -41 262 -41 237 170 c 0,45,46
 233 208 233 208 230 236 c 0,47,48
 206 472 206 472 261 550 c 0,49,50
 302 609 302 609 362 643 c 0,51,52
 386 656 386 656 479 692 c 1,53,54
 447 718 447 718 418 755 c 0,55,56
 333 862 333 862 353 948 c 0,57,58
 369 1019 369 1019 438 1147 c 0,59,60
 518 1293 518 1293 533 1328 c 0,61,62
 569 1411 569 1411 561 1449 c 0,63,64
 552 1490 552 1490 475 1490 c 2,65,-1
 295 1490 l 2,66,67
 236 1491 236 1491 249 1554 c 1,68,-1
 275 1672 l 2,69,70
 278 1684 278 1684 286 1696 c 0,71,72
 309 1728 309 1728 343 1728 c 2,73,-1
 355 1728 l 1,0,-1
EndSplineSet
Validated: 19489
Colour: ffffff
EndChar

StartChar: bracketleft
Encoding: 91 91 83
Width: 580
VWidth: 0
Flags: MW
HStem: -328 238<237 428.062> 1486 238<645 930.062>
DStem2: -55 -238 237 -90 0.250679 0.96807<216.473 1844.43>
LayerCount: 2
Back
SplineSet
102 -284 m 1
 610 1678 l 1
 456 1486 l 1
 782 1486 l 2
 812 1486 844 1512 850 1542 c 2
 876 1660 l 2
 886 1704 868 1724 830 1724 c 2
 434 1724 l 2
 386 1724 362 1698 352 1662 c 2
 -140 -238 l 2
 -156 -298 -142 -328 -82 -328 c 2
 280 -328 l 2
 310 -328 342 -302 348 -272 c 2
 374 -154 l 2
 384 -110 366 -90 328 -90 c 2
 -20 -90 l 1
 102 -284 l 1
EndSplineSet
Fore
SplineSet
237 -90 m 1,0,-1
 413 -90 l 2,1,2
 472 -91 472 -91 459 -154 c 1,3,-1
 433 -272 l 2,4,5
 430 -284 430 -284 422 -296 c 0,6,7
 399 -328 399 -328 365 -328 c 2,8,-1
 3 -328 l 2,9,10
 -10 -328 -10 -328 -22 -326 c 0,11,12
 -76 -315 -76 -315 -55 -238 c 2,13,14
 437 1662 l 1,15,16
 455 1723 455 1723 519 1724 c 1,17,-1
 915 1724 l 2,18,19
 974 1723 974 1723 961 1660 c 1,20,-1
 935 1542 l 2,21,22
 932 1530 932 1530 924 1518 c 0,23,24
 901 1486 901 1486 867 1486 c 2,25,-1
 645 1486 l 1,26,-1
 237 -90 l 1,0,-1
EndSplineSet
Validated: 19489
Colour: ffffff
EndChar

StartChar: bracketright
Encoding: 93 93 84
Width: 580
VWidth: 0
Flags: MW
HStem: -328 238<-138.062 146> 1486 238<357.938 549>
DStem2: 146 -90 355 -266 0.247811 0.968808<0 1626.71>
LayerCount: 2
Back
SplineSet
514 1680 m 1
 12 -282 l 1
 166 -90 l 1
 -160 -90 l 2
 -190 -90 -222 -116 -228 -146 c 2
 -254 -264 l 2
 -264 -308 -246 -328 -208 -328 c 2
 188 -328 l 2
 236 -328 260 -302 270 -266 c 2
 756 1634 l 2
 772 1694 758 1724 698 1724 c 2
 336 1724 l 2
 306 1724 274 1698 268 1668 c 2
 242 1550 l 2
 232 1506 250 1486 288 1486 c 2
 636 1486 l 1
 514 1680 l 1
EndSplineSet
Fore
SplineSet
549 1486 m 1,0,-1
 373 1486 l 2,1,2
 314 1487 314 1487 327 1550 c 1,3,-1
 353 1668 l 2,4,5
 356 1680 356 1680 364 1692 c 0,6,7
 387 1724 387 1724 421 1724 c 2,8,-1
 783 1724 l 2,9,10
 796 1724 796 1724 808 1722 c 0,11,12
 862 1711 862 1711 841 1634 c 2,13,14
 355 -266 l 2,15,16
 339 -327 339 -327 273 -328 c 2,17,-1
 -123 -328 l 2,18,19
 -182 -327 -182 -327 -169 -264 c 1,20,-1
 -143 -146 l 2,21,22
 -140 -134 -140 -134 -132 -122 c 0,23,24
 -109 -90 -109 -90 -75 -90 c 2,25,-1
 146 -90 l 1,26,-1
 549 1486 l 1,0,-1
EndSplineSet
Validated: 19489
Colour: ffffff
EndChar

StartChar: breve
Encoding: 728 728 85
Width: 912
VWidth: 0
Flags: W
HStem: 1126 142<396.709 687.212>
VStem: 157 164<1342.13 1444> 763 162<1342.26 1444>
LayerCount: 2
Back
SplineSet
458 1126 m 0
 670 1126 818 1256 840 1444 c 1
 678 1444 l 1
 666 1342 578 1268 458 1268 c 0
 334 1268 246 1344 236 1444 c 1
 72 1444 l 1
 100 1254 242 1126 458 1126 c 0
EndSplineSet
Fore
SplineSet
543 1126 m 0,0,1
 409 1126 409 1126 312 1190 c 0,2,3
 182 1276 182 1276 157 1444 c 1,4,-1
 321 1444 l 1,5,6
 327 1388 327 1388 364 1344 c 0,7,8
 428 1268 428 1268 543 1268 c 0,9,10
 614 1268 614 1268 670 1301 c 0,11,12
 752 1350 752 1350 763 1444 c 1,13,-1
 925 1444 l 1,14,15
 911 1323 911 1323 832 1240 c 0,16,17
 724 1126 724 1126 543 1126 c 0,0,1
EndSplineSet
Validated: 19457
Colour: ffffff
EndChar

StartChar: brokenbar
Encoding: 166 166 86
Width: 528
VWidth: 0
Flags: W
LayerCount: 2
Back
SplineSet
300 402 m 2
 308 434 290 448 256 448 c 2
 106 448 l 2
 76 448 54 434 46 404 c 2
 -152 -356 l 2
 -160 -388 -142 -402 -108 -402 c 2
 42 -402 l 2
 72 -402 94 -388 102 -358 c 2
 300 402 l 2
572 1478 m 2
 580 1510 562 1524 528 1524 c 2
 378 1524 l 2
 348 1524 326 1510 318 1480 c 2
 120 720 l 2
 112 688 130 674 164 674 c 2
 314 674 l 2
 344 674 366 688 374 718 c 2
 572 1478 l 2
EndSplineSet
Fore
SplineSet
657 1478 m 1,0,1
 459 718 l 1,2,3
 447 675 447 675 399 674 c 1,4,-1
 249 674 l 2,5,6
 196 675 196 675 205 720 c 1,7,-1
 403 1480 l 1,8,9
 415 1523 415 1523 463 1524 c 1,10,-1
 613 1524 l 2,11,12
 666 1523 666 1523 657 1478 c 1,0,1
385 402 m 1,13,-1
 187 -358 l 1,14,15
 175 -401 175 -401 127 -402 c 1,16,-1
 -23 -402 l 2,17,18
 -76 -401 -76 -401 -67 -356 c 1,19,-1
 131 404 l 1,20,21
 143 447 143 447 191 448 c 1,22,-1
 341 448 l 2,23,24
 394 447 394 447 385 402 c 1,13,-1
EndSplineSet
Validated: 3073
Colour: ffffff
EndChar

StartChar: bullet
Encoding: 8226 8226 87
Width: 1076
VWidth: 0
Flags: W
HStem: 232 606<567.363 882.705>
VStem: 421 608<377.599 692.985>
LayerCount: 2
Back
SplineSet
336 536 m 0
 336 366 472 232 640 232 c 0
 808 232 944 366 944 536 c 0
 944 704 808 838 640 838 c 0
 472 838 336 704 336 536 c 0
EndSplineSet
Fore
SplineSet
421 536 m 0,0,1
 421 659 421 659 508 748 c 0,2,3
 597 838 597 838 725 838 c 0,4,5
 849 838 849 838 938 752 c 0,6,7
 1029 663 1029 663 1029 536 c 0,8,9
 1029 411 1029 411 942 322 c 0,10,11
 853 232 853 232 725 232 c 0,12,13
 601 232 601 232 512 318 c 0,14,15
 421 407 421 407 421 536 c 0,0,1
EndSplineSet
Validated: 19457
Colour: ffffff
EndChar

StartChar: c
Encoding: 99 99 88
Width: 668
VWidth: 0
Flags: MW
HStem: -22 224<315.876 383.007> 855 234<541.188 652.237>
VStem: 68 247<202.641 509.752>
LayerCount: 2
Back
SplineSet
490 1088 m 0
 354 1104 238 964 164 854 c 0
 84 734 -84 340 14 114 c 0
 42 50 204 -34 280 -20 c 0
 324 -12 478 106 528 182 c 0
 538 196 542 230 516 246 c 2
 432 302 l 2
 406 320 384 324 362 302 c 0
 348 288 294 242 246 202 c 1
 236 204 230 218 230 262 c 0
 230 304 256 458 276 516 c 1
 296 582 398 838 456 854 c 0
 480 860 544 824 572 808 c 0
 596 794 610 802 630 822 c 2
 722 920 l 2
 736 936 736 966 714 990 c 0
 690 1016 598 1076 490 1088 c 0
EndSplineSet
Fore
SplineSet
689 1058 m 0,0,1
 766 1026 766 1026 799 990 c 0,2,3
 805 983 805 983 810 975 c 0,4,5
 827 943 827 943 807 920 c 1,6,-1
 715 822 l 2,7,8
 713 820 713 820 707 814 c 0,9,10
 683 793 683 793 657 808 c 0,11,12
 577 855 577 855 547 855 c 0,13,14
 541 854 l 1,15,16
 507 844 507 844 449 728 c 0,17,18
 371 574 371 574 345 454 c 0,19,20
 315 321 315 321 315 262 c 0,21,22
 315 207 315 207 331 202 c 1,23,-1
 447 302 l 2,24,25
 477 328 477 328 517 302 c 2,26,-1
 601 246 l 2,27,28
 611 239 611 239 617 227 c 0,29,30
 627 202 627 202 613 182 c 0,31,32
 577 127 577 127 499 65 c 0,33,34
 458 32 458 32 403 -3 c 0,35,36
 376 -21 376 -21 343 -22 c 0,37,38
 293 -22 293 -22 206 22 c 0,39,40
 117 68 117 68 94 126 c 0,41,42
 68 193 68 193 68 281 c 0,43,44
 68 412 68 412 127 587 c 0,45,46
 182 754 182 754 249 854 c 0,47,48
 407 1089 407 1089 555 1089 c 0,49,50
 613 1089 613 1089 689 1058 c 0,0,1
EndSplineSet
Validated: 19489
Colour: ffffff
EndChar

StartChar: caron
Encoding: 711 711 89
Width: 844
VWidth: 0
Flags: W
HStem: 1130 318
VStem: 251 557
DStem2: 490 1305 527 1158 0.707107 0.707107<0 246.427>
LayerCount: 2
Back
SplineSet
422 1268 m 1
 378 1278 l 1
 526 1426 l 2
 546 1446 554 1448 582 1448 c 2
 696 1448 l 2
 726 1448 732 1424 708 1402 c 2
 442 1158 l 2
 416 1136 404 1128 386 1130 c 2
 350 1132 l 2
 328 1134 316 1144 302 1168 c 2
 166 1414 l 2
 154 1432 162 1448 186 1448 c 2
 310 1448 l 2
 338 1448 344 1444 352 1426 c 2
 422 1268 l 1
EndSplineSet
Fore
SplineSet
490 1305 m 1,0,-1
 611 1426 l 2,1,2
 631 1446 631 1446 653 1448 c 0,3,4
 659 1448 659 1448 667 1448 c 2,5,-1
 781 1448 l 2,6,7
 808 1448 808 1448 808 1428 c 1,8,9
 807 1415 807 1415 793 1402 c 2,10,-1
 527 1158 l 1,11,12
 493 1130 493 1130 476 1130 c 0,13,14
 473 1130 473 1130 471 1130 c 2,15,-1
 435 1132 l 2,16,17
 407 1135 407 1135 389 1165 c 0,18,19
 388 1167 388 1167 387 1168 c 2,20,-1
 251 1414 l 1,21,22
 237 1436 237 1436 255 1445 c 0,23,24
 262 1448 262 1448 271 1448 c 2,25,-1
 395 1448 l 2,26,27
 424 1448 424 1448 432 1435 c 0,28,29
 434 1431 434 1431 437 1426 c 2,30,-1
 490 1305 l 1,0,-1
EndSplineSet
Validated: 19457
Colour: ffffff
EndChar

StartChar: cedilla
Encoding: 184 184 92
Width: 684
VWidth: 0
Flags: W
HStem: -404 146<229.283 365.343>
VStem: 205 422
LayerCount: 2
Back
SplineSet
394 -66 m 2
 378 -60 344 -60 344 -98 c 0
 344 -176 276 -258 146 -258 c 0
 116 -258 112 -280 120 -306 c 2
 144 -380 l 2
 148 -396 166 -404 180 -404 c 0
 360 -412 510 -310 542 -166 c 0
 552 -126 542 -112 520 -106 c 2
 394 -66 l 2
EndSplineSet
Fore
SplineSet
479 -66 m 1,0,1
 605 -106 l 2,2,3
 606 -106 606 -106 608 -107 c 0,4,5
 639 -117 639 -117 627 -166 c 1,6,7
 606 -259 606 -259 526 -324 c 0,8,9
 418 -411 418 -411 265 -404 c 1,10,11
 238 -402 238 -402 229 -380 c 1,12,-1
 205 -306 l 1,13,14
 192 -260 192 -260 231 -258 c 1,15,16
 312 -258 312 -258 367 -217 c 0,17,18
 429 -170 429 -170 429 -98 c 0,19,20
 429 -83 429 -83 437 -73 c 0,21,22
 452 -56 452 -56 479 -66 c 1,0,1
EndSplineSet
Validated: 19489
Colour: ffffff
EndChar

StartChar: cent
Encoding: 162 162 93
Width: 796
VWidth: 0
Flags: W
LayerCount: 2
Back
SplineSet
300 192 m 1
 254 206 268 366 310 522 c 0
 364 726 488 898 518 892 c 0
 556 884 534 800 486 660 c 0
 472 622 486 608 522 602 c 2
 644 576 l 2
 678 570 688 580 700 596 c 0
 862 804 812 1094 546 1066 c 1
 318 1090 108 858 38 460 c 0
 6 276 -4 -20 268 -20 c 0
 454 -20 570 126 652 290 c 0
 672 330 654 346 628 358 c 2
 482 422 l 1
 466 426 450 422 440 404 c 0
 394 312 354 206 300 192 c 1
722 1236 m 2
 730 1266 714 1280 680 1280 c 2
 536 1280 l 2
 506 1280 486 1266 478 1238 c 2
 406 968 l 1
 652 968 l 1
 722 1236 l 2
174 -190 m 2
 308 -190 l 2
 336 -190 358 -176 366 -148 c 2
 438 124 l 1
 194 124 l 1
 124 -128 l 2
 116 -162 130 -190 174 -190 c 2
EndSplineSet
Fore
SplineSet
259 -190 m 2,0,1
 247 -190 247 -190 237 -187 c 0,2,3
 198 -175 198 -175 209 -128 c 1,4,-1
 245 0 l 1,5,6
 208 16 208 16 180 46 c 0,7,8
 72 163 72 163 123 460 c 0,9,10
 161 673 161 673 249 825 c 0,11,12
 359 1012 359 1012 514 1056 c 1,13,-1
 563 1238 l 1,14,15
 575 1279 575 1279 621 1280 c 1,16,-1
 765 1280 l 2,17,18
 816 1279 816 1279 807 1236 c 1,19,-1
 759 1051 l 1,20,21
 779 1042 779 1042 797 1029 c 0,22,23
 878 969 878 969 878 847 c 0,24,25
 877 715 877 715 785 596 c 0,26,27
 781 590 l 0,28,29
 764 570 764 570 729 576 c 1,30,-1
 607 602 l 2,31,32
 599 603 599 603 592 605 c 0,33,34
 555 616 555 616 571 660 c 1,35,36
 593 725 593 725 605 765 c 0,37,38
 639 884 639 884 603 892 c 1,39,40
 582 895 582 895 530 820 c 0,41,42
 438 687 438 687 395 522 c 0,43,44
 372 437 372 437 362 360 c 0,45,46
 342 205 342 205 385 192 c 1,47,48
 401 196 401 196 418 212 c 0,49,50
 448 241 448 241 501 354 c 0,51,52
 517 388 517 388 525 404 c 1,53,54
 539 428 539 428 567 422 c 1,55,-1
 713 358 l 2,56,57
 716 357 716 357 720 355 c 0,58,59
 759 334 759 334 737 290 c 0,60,61
 631 78 631 78 493 11 c 1,62,-1
 451 -148 l 1,63,64
 438 -189 438 -189 393 -190 c 1,65,-1
 259 -190 l 2,0,1
EndSplineSet
Validated: 3105
Colour: ffffff
EndChar

StartChar: circumflex
Encoding: 710 710 94
Width: 856
VWidth: 0
Flags: W
HStem: 1150 318
VStem: 242 557
DStem2: 257 1196 439 1172 0.707107 0.707107<36.416 282.843>
LayerCount: 2
Back
SplineSet
458 1330 m 1
 502 1320 l 1
 354 1172 l 2
 334 1152 326 1150 298 1150 c 2
 184 1150 l 2
 154 1150 148 1174 172 1196 c 2
 438 1440 l 2
 464 1462 476 1470 494 1468 c 2
 530 1466 l 2
 552 1464 564 1454 578 1430 c 2
 714 1184 l 2
 726 1166 718 1150 694 1150 c 2
 570 1150 l 2
 542 1150 536 1154 528 1172 c 2
 458 1330 l 1
EndSplineSet
Fore
SplineSet
560 1293 m 1,0,-1
 439 1172 l 2,1,2
 419 1152 419 1152 397 1150 c 0,3,4
 391 1150 391 1150 383 1150 c 2,5,-1
 269 1150 l 2,6,7
 242 1150 242 1150 242 1170 c 1,8,9
 243 1183 243 1183 257 1196 c 2,10,-1
 523 1440 l 1,11,12
 557 1468 557 1468 574 1468 c 0,13,14
 576 1468 576 1468 579 1468 c 2,15,-1
 615 1466 l 2,16,17
 643 1463 643 1463 661 1433 c 0,18,19
 662 1431 662 1431 663 1430 c 2,20,-1
 799 1184 l 1,21,22
 813 1162 813 1162 795 1153 c 0,23,24
 788 1150 788 1150 779 1150 c 2,25,-1
 655 1150 l 2,26,27
 626 1150 626 1150 618 1163 c 0,28,29
 616 1167 616 1167 613 1172 c 2,30,-1
 560 1293 l 1,0,-1
EndSplineSet
Validated: 19457
Colour: ffffff
EndChar

StartChar: colon
Encoding: 58 58 95
Width: 732
VWidth: 0
Flags: W
HStem: -36 264<178.758 401.721> 824 264<378.757 601.721>
VStem: 145 294<-0.693413 191.175> 345 294<859.307 1051.18>
LayerCount: 2
Back
SplineSet
60 96 m 0
 60 26 118 -36 186 -36 c 2
 210 -36 l 2
 292 -36 354 22 354 96 c 0
 354 164 288 228 226 228 c 2
 200 228 l 2
 118 228 60 168 60 96 c 0
260 956 m 0
 260 886 318 824 386 824 c 2
 410 824 l 2
 492 824 554 882 554 956 c 0
 554 1024 488 1088 426 1088 c 2
 400 1088 l 2
 318 1088 260 1028 260 956 c 0
EndSplineSet
Fore
SplineSet
345 956 m 0,0,1
 345 996 345 996 368 1030 c 0,2,3
 408 1088 408 1088 485 1088 c 2,4,-1
 511 1088 l 2,5,6
 550 1088 550 1088 587 1058 c 0,7,8
 639 1015 639 1015 639 956 c 0,9,10
 639 915 639 915 614 881 c 0,11,12
 572 824 572 824 495 824 c 2,13,-1
 471 824 l 2,14,15
 431 824 431 824 396 851 c 0,16,17
 345 892 345 892 345 956 c 0,0,1
145 96 m 0,18,19
 145 136 145 136 168 170 c 0,20,21
 208 228 208 228 285 228 c 2,22,-1
 311 228 l 2,23,24
 350 228 350 228 387 198 c 0,25,26
 439 155 439 155 439 96 c 0,27,28
 439 54 439 54 414 21 c 0,29,30
 372 -36 372 -36 295 -36 c 2,31,-1
 271 -36 l 2,32,33
 231 -36 231 -36 196 -9 c 0,34,35
 145 32 145 32 145 96 c 0,18,19
EndSplineSet
Validated: 8408065
Colour: ffffff
EndChar

StartChar: comma
Encoding: 44 44 96
Width: 454
VWidth: 0
Flags: W
HStem: -354 610
VStem: 89 278<0.681533 216.539>
LayerCount: 2
Back
SplineSet
282 214 m 0
 282 244 266 256 234 256 c 1
 54 218 l 1
 28 218 4 208 4 180 c 1
 -8 108 -6 38 -16 -32 c 0
 -30 -126 -70 -218 -70 -312 c 0
 -70 -342 -56 -354 -26 -354 c 0
 16 -354 84 -268 84 -268 c 1
 140 -198 282 12 282 214 c 0
EndSplineSet
Fore
SplineSet
367 214 m 1,0,1
 367 113 367 113 320 -7 c 0,2,3
 263 -150 263 -150 169 -268 c 1,4,-1
 151 -290 l 2,5,6
 133 -312 133 -312 105.5 -333 c 128,-1,7
 78 -354 78 -354 59 -354 c 0,8,9
 19 -352 19 -352 15 -312 c 1,10,11
 15 -260 15 -260 35 -179 c 0,12,13
 65 -57 65 -57 69 -32 c 128,-1,14
 73 -7 73 -7 75 27 c 0,15,16
 85 154 85 154 89 180 c 1,17,18
 90 216 90 216 139 218 c 1,19,-1
 319 256 l 1,20,21
 365 255 365 255 367 214 c 1,0,1
EndSplineSet
Validated: 19457
Colour: ffffff
EndChar

StartChar: copyright
Encoding: 169 169 97
Width: 1638
VWidth: 0
Flags: W
HStem: -30 150<613.961 1021.28> 1328 148<791.712 1182.33>
LayerCount: 2
Back
SplineSet
150 886 m 0
 50 544 110 290 258 140 c 0
 378 20 558 -30 732 -30 c 0
 1108 -30 1370 170 1488 578 c 0
 1576 880 1544 1144 1386 1304 c 0
 1278 1416 1132 1476 896 1476 c 0
 542 1476 262 1272 150 886 c 0
362 800 m 0
 442 1102 628 1328 900 1328 c 0
 1262 1328 1358 990 1268 640 c 0
 1192 340 1012 120 742 120 c 0
 370 120 264 426 362 800 c 0
730 440 m 1
 686 452 696 586 736 732 c 0
 786 924 888 1034 916 1030 c 1
 952 1022 946 984 902 854 c 0
 888 818 902 804 936 798 c 2
 1050 774 l 2
 1082 768 1092 778 1102 794 c 1
 1266 1002 1126 1202 942 1192 c 1
 752 1202 546 1048 480 674 c 0
 450 502 466 240 700 240 c 0
 874 240 970 346 1046 500 c 0
 1066 538 1048 552 1024 564 c 2
 886 624 l 2
 872 628 856 624 848 606 c 0
 804 520 774 464 730 440 c 1
EndSplineSet
Fore
SplineSet
815 440 m 1,0,1
 830 448 830 448 845 463 c 0,2,3
 876 494 876 494 933 606 c 0,4,5
 945 630 945 630 971 624 c 1,6,-1
 1109 564 l 2,7,8
 1114 561 1114 561 1119 559 c 0,9,10
 1152 539 1152 539 1131 500 c 1,11,12
 1099 435 1099 435 1065 388 c 0,13,14
 957 240 957 240 785 240 c 0,15,16
 639 241 639 241 583 374 c 1,17,18
 533 494 533 494 565 674 c 0,19,20
 612 939 612 939 751 1079 c 0,21,22
 873 1200 873 1200 1027 1192 c 1,23,24
 1090 1195 1090 1195 1145 1168 c 0,25,26
 1228 1125 1228 1125 1252 1037 c 0,27,28
 1285 918 1285 918 1187 794 c 0,29,30
 1186 792 1186 792 1184 790 c 0,31,32
 1169 768 1169 768 1135 774 c 2,33,-1
 1021 798 l 2,34,35
 1011 800 l 0,36,37
 971 811 971 811 987 854 c 1,38,39
 1018 947 1018 947 1023 982 c 0,40,41
 1029 1024 1029 1024 1001 1030 c 1,42,43
 983 1032 983 1032 945 989 c 0,44,45
 862 893 862 893 821 732 c 0,46,47
 802 661 802 661 792 598 c 0,48,49
 771 452 771 452 815 440 c 1,0,1
447 800 m 0,50,51
 443 784 443 784 439 767 c 0,52,53
 373 482 373 482 467 307 c 0,54,55
 568 120 568 120 827 120 c 0,56,57
 982 120 982 120 1105 215 c 0,58,59
 1279 350 1279 350 1353 640 c 0,60,61
 1364 685 1364 685 1372 729 c 0,62,63
 1414 982 1414 982 1323 1146 c 0,64,65
 1222 1328 1222 1328 985 1328 c 0,66,67
 821 1328 821 1328 690 1220 c 0,68,69
 521 1080 521 1080 447 800 c 0,50,51
235 886 m 0,70,71
 305 1125 305 1125 459 1275 c 0,72,73
 667 1476 667 1476 981 1476 c 0,74,75
 1047 1476 1047 1476 1106 1470 c 0,76,77
 1336 1445 1336 1445 1471 1304 c 0,78,79
 1536 1237 1536 1237 1574 1146 c 0,80,81
 1670 913 1670 913 1573 578 c 0,82,83
 1540 464 1540 464 1491 370 c 0,84,85
 1284 -30 1284 -30 817 -30 c 0,86,87
 774 -30 774 -30 731 -26 c 0,88,89
 485 -2 485 -2 343 140 c 0,90,91
 287 197 287 197 249 273 c 0,92,93
 128 519 128 519 235 886 c 0,70,71
EndSplineSet
Validated: 19489
Colour: ffffff
EndChar

StartChar: currency
Encoding: 164 164 98
Width: 1024
VWidth: 0
Flags: W
HStem: 866 194<648.723 779.924>
VStem: 243 256<335.02 629.673>
DStem2: 569 1146 331 1032 0.296048 -0.955173<-29.6923 115.498>
LayerCount: 2
Back
SplineSet
564 872 m 1
 484 1146 l 2
 470 1196 436 1222 402 1198 c 1
 282 1138 l 1
 244 1110 222 1106 246 1032 c 2
 352 692 l 1
 564 872 l 1
302 476 m 1
 66 138 l 2
 36 92 46 78 84 56 c 1
 224 -34 l 2
 260 -56 278 -26 292 -10 c 1
 468 280 l 1
 302 476 l 1
812 702 m 1
 1064 1026 l 2
 1092 1064 1094 1082 1048 1110 c 2
 918 1186 l 2
 882 1208 862 1178 850 1160 c 2
 686 912 l 1
 812 702 l 1
528 230 m 1
 584 2 l 2
 596 -50 630 -72 684 -42 c 2
 798 22 l 2
 838 44 854 58 840 98 c 2
 752 372 l 1
 528 230 l 1
282 832 m 1
 210 708 158 566 158 438 c 0
 158 356 182 256 250 200 c 0
 318 142 378 134 456 134 c 0
 582 134 698 218 788 338 c 0
 878 458 938 612 938 752 c 0
 938 822 940 894 902 950 c 1
 844 1042 756 1060 668 1060 c 0
 474 1060 348 950 282 832 c 1
676 618 m 1
 668 586 634 492 584 418 c 0
 542 356 516 340 470 334 c 1
 418 342 414 372 414 438 c 0
 414 550 494 702 508 728 c 0
 546 808 586 866 648 866 c 0
 734 866 692 662 676 618 c 1
EndSplineSet
Fore
SplineSet
761 618 m 1,0,1
 776 660 776 660 783 727 c 0,2,3
 797 866 797 866 733 866 c 0,4,5
 715 866 715 866 697 859 c 0,6,7
 644 839 644 839 584 721 c 0,8,9
 499 550 499 550 499 438 c 0,10,11
 499 394 499 394 504 375 c 0,12,13
 519 318 519 318 588 341 c 0,14,15
 637 359 637 359 692 456 c 0,16,17
 743 544 743 544 761 618 c 1,0,1
367 832 m 0,18,19
 374 846 374 846 384 861 c 1,20,-1
 331 1032 l 2,21,22
 316 1082 316 1082 329 1103 c 0,23,24
 344 1126 344 1126 367 1138 c 2,25,-1
 487 1198 l 2,26,27
 507 1208 507 1208 520 1206 c 0,28,29
 553 1202 553 1202 569 1146 c 2,30,-1
 601 1035 l 1,31,32
 671 1060 671 1060 753 1060 c 0,33,34
 815 1060 815 1060 860 1047 c 1,35,-1
 935 1160 l 2,36,37
 949 1182 949 1182 966 1190 c 0,38,39
 983 1197 983 1197 1003 1186 c 2,40,-1
 1133 1110 l 2,41,42
 1155 1097 1155 1097 1165 1082 c 0,43,44
 1176 1063 1176 1063 1149 1026 c 1,45,-1
 1019 859 l 1,46,47
 1023 832 1023 832 1023 752 c 0,48,49
 1023 713 1023 713 1017 672 c 0,50,51
 990 495 990 495 873 338 c 1,52,-1
 855 315 l 1,53,-1
 925 98 l 2,54,55
 932 77 932 77 929 63 c 0,56,57
 924 45 924 45 883 22 c 2,58,-1
 769 -42 l 2,59,60
 755 -50 755 -50 740 -54 c 0,61,62
 685 -67 685 -67 669 2 c 2,63,-1
 633 149 l 1,64,65
 588 134 588 134 541 134 c 0,66,67
 498 134 498 134 467 138 c 1,68,69
 368 -23 l 2,70,71
 360 -36 360 -36 341 -39 c 0,72,73
 324 -41 324 -41 309 -34 c 1,74,-1
 147 71 l 2,75,76
 138 78 138 78 136 90 c 0,77,78
 133 113 133 113 145 129 c 2,79,-1
 266 303 l 1,80,81
 243 366 243 366 243 438 c 0,82,83
 243 588 243 588 367 832 c 0,18,19
EndSplineSet
Validated: 19489
Colour: ffffff
EndChar

StartChar: d
Encoding: 100 100 99
Width: 942
VWidth: 0
Flags: MW
HStem: -6 304<279.692 382.944> 867 209<545.002 671.989> 1498 20G<876.424 1073.32>
VStem: 99 270<183.173 485.928>
DStem2: 672.694 854 757.694 298 0.272881 0.962048<-417.388 0 170.055 702.884>
LayerCount: 2
Back
SplineSet
628 1010 m 1
 594 870 l 1
 578 824 l 1
 532 668 464 518 406 418 c 0
 362 344 320 298 300 298 c 0
 282 298 280 308 290 358 c 0
 318 510 424 814 482 858 c 0
 512 880 606 854 626 836 c 1
 662 994 l 1
 622 1034 546 1076 466 1076 c 0
 416 1076 356 1062 306 1024 c 0
 192 938 44 542 16 254 c 0
 8 176 40 112 92 60 c 0
 118 34 158 -6 192 -6 c 2
 206 -6 l 2
 254 -6 294 30 372 124 c 2
 534 318 l 1
 628 1010 l 1
1006 1472 m 2
 1014 1504 996 1518 962 1518 c 2
 816 1518 l 2
 786 1518 764 1504 756 1474 c 2
 414 202 l 1
 372 194 l 1
 440 26 l 1
 634 162 l 1
 1006 1472 l 2
394 138 m 1
 446 12 l 2
 454 -4 464 -12 482 -10 c 0
 628 6 764 126 856 242 c 0
 866 256 864 274 844 290 c 2
 760 352 l 2
 740 368 722 360 710 342 c 0
 664 274 524 166 394 138 c 1
EndSplineSet
Fore
SplineSet
1091 1472 m 1,0,1
 758 298 l 1,2,3
 779 319 779 319 795 342 c 0,4,5
 817 373 817 373 845 352 c 2,6,-1
 929 290 l 1,7,8
 957 267 957 267 941 242 c 1,9,10
 920 216 920 216 897 190 c 0,11,12
 727 3 727 3 567 -10 c 0,13,14
 544 -12 544 -12 531 12 c 1,15,-1
 525 26 l 1,16,-1
 514 54 l 1,17,-1
 479 138 l 1,18,-1
 480 138 l 1,19,-1
 476 147 l 1,20,-1
 457 124 l 2,21,22
 421 81 421 81 395 53 c 0,23,24
 337 -6 337 -6 291 -6 c 2,25,-1
 280 -6 l 2,26,27
 240 -6 240 -6 177 60 c 24,28,29
 99 141 99 141 99 225 c 3,30,31
 99 388 99 388 224 739 c 0,32,33
 301 955 301 955 391 1024 c 0,34,35
 459 1076 459 1076 551 1076 c 27,36,37
 639 1076 639 1076 718 1018 c 1,38,-1
 841 1474 l 2,39,40
 852 1516 852 1516 901 1518 c 1,41,-1
 1047 1518 l 2,42,43
 1100 1518 1100 1518 1091 1472 c 1,0,1
673 854 m 1,44,45
 634 867 634 867 605 867 c 0,46,47
 582 867 582 867 567 858 c 0,48,49
 533 833 533 833 476 690 c 0,50,51
 401 501 401 501 375 358 c 0,52,53
 369 325 369 325 369 315 c 3,54,55
 369 298 369 298 383 298 c 3,56,57
 389 298 389 298 393 300 c 0,58,59
 430 317 430 317 491 418 c 1,60,61
 597 601 597 601 663 824 c 1,62,-1
 673 854 l 1,44,45
EndSplineSet
Validated: 19457
Colour: ffffff
EndChar

StartChar: degree
Encoding: 176 176 100
Width: 960
VWidth: 0
Flags: W
HStem: 1048 144<508.312 718.107> 1486 144<553.53 759.378>
VStem: 337 150<1214.69 1419.37> 783 150<1256.1 1463.63>
LayerCount: 2
Back
SplineSet
600 1630 m 0
 750 1630 848 1524 848 1380 c 0
 848 1168 664 1048 504 1048 c 0
 352 1048 252 1158 252 1300 c 0
 252 1502 434 1630 600 1630 c 0
402 1308 m 0
 402 1242 448 1192 516 1192 c 0
 602 1192 698 1264 698 1370 c 0
 698 1438 652 1486 582 1486 c 0
 490 1486 402 1402 402 1308 c 0
EndSplineSet
Fore
SplineSet
487 1308 m 0,0,1
 487 1240 487 1240 539 1208 c 0,2,3
 567 1192 567 1192 601 1192 c 0,4,5
 675 1192 675 1192 731 1248 c 0,6,7
 783 1300 783 1300 783 1370 c 0,8,9
 783 1442 783 1442 726 1472 c 0,10,11
 699 1486 699 1486 667 1486 c 0,12,13
 591 1486 591 1486 535 1424 c 0,14,15
 487 1372 487 1372 487 1308 c 0,0,1
685 1630 m 0,16,17
 813 1630 813 1630 883 1539 c 0,18,19
 933 1472 933 1472 933 1380 c 0,20,21
 933 1226 933 1226 815 1130 c 1,22,23
 712 1051 712 1051 589 1048 c 1,24,25
 462 1048 462 1048 390 1139 c 0,26,27
 337 1207 337 1207 337 1300 c 0,28,29
 337 1445 337 1445 450 1542 c 0,30,31
 547 1625 547 1625 671 1630 c 0,32,33
 679 1630 679 1630 685 1630 c 0,16,17
EndSplineSet
Validated: 19457
Colour: ffffff
EndChar

StartChar: dieresis
Encoding: 168 168 101
Width: 1046
VWidth: 0
Flags: W
HStem: 1192 264<364.757 587.721 764.757 987.721>
VStem: 331 294<1227.31 1419.18> 731 294<1227.31 1419.18>
LayerCount: 2
Back
SplineSet
646 1324 m 0
 646 1254 704 1192 772 1192 c 2
 796 1192 l 2
 878 1192 940 1250 940 1324 c 0
 940 1392 874 1456 812 1456 c 2
 786 1456 l 2
 704 1456 646 1396 646 1324 c 0
246 1324 m 0
 246 1254 304 1192 372 1192 c 2
 396 1192 l 2
 478 1192 540 1250 540 1324 c 0
 540 1392 474 1456 412 1456 c 2
 386 1456 l 2
 304 1456 246 1396 246 1324 c 0
EndSplineSet
Fore
SplineSet
331 1324 m 0,0,1
 331 1364 331 1364 354 1398 c 0,2,3
 394 1456 394 1456 471 1456 c 2,4,-1
 497 1456 l 2,5,6
 536 1456 536 1456 573 1426 c 0,7,8
 625 1383 625 1383 625 1324 c 0,9,10
 625 1283 625 1283 600 1249 c 0,11,12
 558 1192 558 1192 481 1192 c 2,13,-1
 457 1192 l 2,14,15
 417 1192 417 1192 382 1219 c 0,16,17
 331 1260 331 1260 331 1324 c 0,0,1
731 1324 m 0,18,19
 731 1364 731 1364 754 1398 c 0,20,21
 794 1456 794 1456 871 1456 c 2,22,-1
 897 1456 l 2,23,24
 936 1456 936 1456 973 1426 c 0,25,26
 1025 1383 1025 1383 1025 1324 c 0,27,28
 1025 1283 1025 1283 1000 1249 c 0,29,30
 958 1192 958 1192 881 1192 c 2,31,-1
 857 1192 l 2,32,33
 817 1192 817 1192 782 1219 c 0,34,35
 731 1260 731 1260 731 1324 c 0,18,19
EndSplineSet
Validated: 19457
Colour: ffffff
EndChar

StartChar: dieresiscomb
Encoding: 776 776 102
Width: 1046
VWidth: 0
Flags: W
HStem: 1192 264<378.99 556.813 699.155 876.813>
VStem: 331 258<1221.49 1424.74> 651 258<1221.83 1424.06>
LayerCount: 2
Back
SplineSet
566 1324 m 0
 566 1254 616 1192 676 1192 c 2
 698 1192 l 2
 770 1192 824 1250 824 1324 c 0
 824 1392 766 1456 712 1456 c 2
 688 1456 l 2
 616 1456 566 1396 566 1324 c 0
246 1324 m 0
 246 1254 298 1192 356 1192 c 2
 378 1192 l 2
 450 1192 504 1250 504 1324 c 0
 504 1392 446 1456 392 1456 c 2
 370 1456 l 2
 298 1456 246 1396 246 1324 c 0
EndSplineSet
Fore
SplineSet
331 1324 m 0,0,1
 331 1364 331 1364 352 1398 c 0,2,3
 388 1456 388 1456 455 1456 c 2,4,-1
 477 1456 l 2,5,6
 509 1456 509 1456 541 1428 c 0,7,8
 589 1385 589 1385 589 1324 c 0,9,10
 589 1283 589 1283 568 1249 c 0,11,12
 531 1192 531 1192 463 1192 c 2,13,-1
 441 1192 l 2,14,15
 408 1192 408 1192 378 1218 c 0,16,17
 331 1259 331 1259 331 1324 c 0,0,1
651 1324 m 0,18,19
 651 1363 651 1363 670 1397 c 0,20,21
 705 1456 705 1456 773 1456 c 2,22,-1
 797 1456 l 2,23,24
 829 1456 829 1456 861 1428 c 0,25,26
 909 1385 909 1385 909 1324 c 0,27,28
 909 1283 909 1283 888 1249 c 0,29,30
 851 1192 851 1192 783 1192 c 2,31,-1
 761 1192 l 2,32,33
 727 1192 727 1192 698 1217 c 0,34,35
 651 1257 651 1257 651 1324 c 0,18,19
EndSplineSet
Validated: 19457
Colour: ffffff
EndChar

StartChar: divide
Encoding: 247 247 103
Width: 1040
VWidth: 0
Flags: W
HStem: 102 264<360.757 583.721> 568 238<101 1124.06> 970 264<562.757 785.721>
VStem: 327 294<137.306 329.174> 529 294<1005.31 1197.18>
LayerCount: 2
Back
SplineSet
242 234 m 0
 242 164 300 102 368 102 c 2
 392 102 l 2
 474 102 536 160 536 234 c 0
 536 302 470 366 408 366 c 2
 382 366 l 2
 300 366 242 306 242 234 c 0
444 1102 m 0
 444 1032 502 970 570 970 c 2
 594 970 l 2
 676 970 738 1028 738 1102 c 0
 738 1170 672 1234 610 1234 c 2
 584 1234 l 2
 502 1234 444 1174 444 1102 c 0
42 806 m 2
 24 806 18 802 10 766 c 2
 -22 640 l 2
 -36 588 -24 568 16 568 c 2
 976 568 l 2
 1006 568 1038 594 1044 624 c 2
 1070 742 l 2
 1080 786 1062 806 1024 806 c 2
 42 806 l 2
EndSplineSet
Fore
SplineSet
127 806 m 2,0,1
 1109 806 l 2,2,3
 1168 805 1168 805 1155 742 c 1,4,-1
 1129 624 l 2,5,6
 1126 612 1126 612 1118 600 c 0,7,8
 1095 568 1095 568 1061 568 c 2,9,-1
 101 568 l 2,10,11
 93 568 93 568 86 569 c 0,12,13
 46 576 46 576 63 640 c 2,14,-1
 95 766 l 2,15,16
 98 781 98 781 102 791 c 0,17,18
 108 806 108 806 127 806 c 2,0,1
529 1102 m 0,19,20
 529 1142 529 1142 552 1176 c 0,21,22
 592 1234 592 1234 669 1234 c 2,23,-1
 695 1234 l 2,24,25
 734 1234 734 1234 771 1204 c 0,26,27
 823 1161 823 1161 823 1102 c 0,28,29
 823 1061 823 1061 798 1027 c 0,30,31
 756 970 756 970 679 970 c 2,32,-1
 655 970 l 2,33,34
 615 970 615 970 580 997 c 0,35,36
 529 1038 529 1038 529 1102 c 0,19,20
327 234 m 0,37,38
 327 274 327 274 350 308 c 0,39,40
 390 366 390 366 467 366 c 2,41,-1
 493 366 l 2,42,43
 532 366 532 366 569 336 c 0,44,45
 621 293 621 293 621 234 c 0,46,47
 621 193 621 193 596 159 c 0,48,49
 554 102 554 102 477 102 c 2,50,-1
 453 102 l 2,51,52
 413 102 413 102 378 129 c 0,53,54
 327 170 327 170 327 234 c 0,37,38
EndSplineSet
Validated: 8408097
Colour: ffffff
EndChar

StartChar: dollar
Encoding: 36 36 104
Width: 946
VWidth: 0
Flags: W
VStem: 61 256<261.78 472.902> 205 292<753.251 1030.81> 477 292<377.096 458 472.623 620.939>
DStem2: 159 -18 401 -38 0.246999 0.969016<-13.9873 100.663 1489.79 1604.51>
LayerCount: 2
Back
SplineSet
564 1384 m 0
 326 1384 120 1068 120 808 c 0
 120 706 200 656 292 642 c 0
 410 626 392 550 392 458 c 0
 392 368 314 262 264 256 c 1
 222 256 230 460 232 528 c 0
 232 556 204 578 164 556 c 2
 18 474 l 1
 -4 456 -24 426 -24 392 c 0
 -24 228 14 52 220 52 c 0
 456 52 684 324 684 576 c 0
 684 770 604 808 506 826 c 0
 430 838 412 884 412 932 c 0
 412 1022 476 1140 508 1156 c 1
 572 1148 554 1020 552 946 c 1
 548 904 568 900 596 904 c 1
 762 958 l 1
 786 978 802 992 806 1018 c 0
 836 1240 770 1384 564 1384 c 0
702 1482 m 2
 710 1512 694 1526 660 1526 c 2
 516 1526 l 2
 486 1526 466 1512 458 1484 c 2
 386 1214 l 1
 632 1214 l 1
 702 1482 l 2
124 -80 m 2
 258 -80 l 2
 286 -80 308 -66 316 -38 c 2
 388 234 l 1
 144 234 l 1
 74 -18 l 2
 66 -52 80 -80 124 -80 c 2
EndSplineSet
Fore
SplineSet
209 -80 m 2,0,1
 197 -80 197 -80 187 -77 c 0,2,3
 148 -65 148 -65 159 -18 c 1,4,-1
 186 79 l 1,5,6
 62 146 62 146 61 392 c 0,7,8
 62 439 62 439 103 474 c 1,9,-1
 249 556 l 2,10,11
 272 568 272 568 291 563 c 0,12,13
 317 556 317 556 317 528 c 0,14,15
 309 258 309 258 349 256 c 1,16,17
 382 261 382 261 422 311 c 0,18,19
 477 384 477 384 477 458 c 0,20,21
 477 464 477 464 477 473 c 0,22,23
 478 553 478 553 473 574 c 0,24,25
 458 631 458 631 377 642 c 0,26,27
 346 647 346 647 319 657 c 0,28,29
 205 699 205 699 205 808 c 0,30,31
 205 966 205 966 293 1124 c 0,32,33
 380 1279 380 1279 506 1346 c 1,34,-1
 543 1484 l 1,35,36
 555 1525 555 1525 601 1526 c 1,37,-1
 745 1526 l 2,38,39
 796 1525 796 1525 787 1482 c 1,40,-1
 757 1367 l 1,41,42
 929 1304 929 1304 891 1018 c 0,43,44
 889 1008 l 0,45,46
 883 987 883 987 847 958 c 1,47,-1
 681 904 l 1,48,49
 672 903 672 903 665 903 c 0,50,51
 633 904 633 904 637 946 c 0,52,53
 637 957 637 957 639 982 c 0,54,55
 641 1014 641 1014 641 1030 c 0,56,57
 644 1149 644 1149 593 1156 c 1,58,59
 575 1146 575 1146 549 1103 c 0,60,61
 497 1013 497 1013 497 932 c 0,62,63
 498 842 498 842 591 826 c 0,64,65
 648 816 648 816 681 796 c 0,66,67
 769 744 769 744 769 576 c 0,68,69
 769 418 769 418 664 269 c 0,70,71
 566 131 566 131 431 77 c 1,72,-1
 401 -38 l 1,73,74
 388 -79 388 -79 343 -80 c 1,75,-1
 209 -80 l 2,0,1
EndSplineSet
Validated: 8408097
Colour: ffffff
EndChar

StartChar: dotaccent
Encoding: 729 729 105
Width: 466
VWidth: 0
Flags: W
HStem: 1192 264<364.757 587.721>
VStem: 331 294<1227.31 1419.18>
LayerCount: 2
Back
SplineSet
246 1324 m 0
 246 1254 304 1192 372 1192 c 2
 396 1192 l 2
 478 1192 540 1250 540 1324 c 0
 540 1392 474 1456 412 1456 c 2
 386 1456 l 2
 304 1456 246 1396 246 1324 c 0
EndSplineSet
Fore
SplineSet
331 1324 m 0,0,1
 331 1364 331 1364 354 1398 c 0,2,3
 394 1456 394 1456 471 1456 c 2,4,-1
 497 1456 l 2,5,6
 536 1456 536 1456 573 1426 c 0,7,8
 625 1383 625 1383 625 1324 c 0,9,10
 625 1283 625 1283 600 1249 c 0,11,12
 558 1192 558 1192 481 1192 c 2,13,-1
 457 1192 l 2,14,15
 417 1192 417 1192 382 1219 c 0,16,17
 331 1260 331 1260 331 1324 c 0,0,1
EndSplineSet
Validated: 19457
Colour: ffffff
EndChar

StartChar: dotlessi
Encoding: 305 305 106
Width: 528
VWidth: 0
Flags: W
HStem: 0 21G<98.4714 310.893> 1060 20G<377.107 589.529>
VStem: 81 526
DStem2: 81 46 347 44 0.246999 0.969016<7.16506 1077.21>
LayerCount: 2
Back
SplineSet
522 1034 m 2
 530 1066 512 1080 478 1080 c 2
 316 1080 l 2
 286 1080 264 1066 256 1036 c 2
 -4 46 l 2
 -12 14 6 0 40 0 c 2
 202 0 l 2
 232 0 254 14 262 44 c 2
 522 1034 l 2
EndSplineSet
Fore
SplineSet
607 1034 m 1,0,1
 347 44 l 1,2,3
 335 1 335 1 287 0 c 1,4,-1
 125 0 l 2,5,6
 72 1 72 1 81 46 c 1,7,-1
 341 1036 l 1,8,9
 353 1079 353 1079 401 1080 c 1,10,-1
 563 1080 l 2,11,12
 616 1079 616 1079 607 1034 c 1,0,1
EndSplineSet
Validated: 19457
Colour: ffffff
EndChar

StartChar: e
Encoding: 101 101 107
Width: 717
VWidth: 0
Flags: MW
HStem: -28 252<328.007 373> 888 196<498.486 550.57>
VStem: 85 243<224.675 311.017> 551 216<683.385 885.919>
LayerCount: 2
Back
SplineSet
120 822 m 1
 50 674 0 504 0 350 c 0
 0 250 24 130 88 62 c 0
 154 -8 212 -16 286 -16 c 0
 408 -16 520 84 606 228 c 0
 692 372 750 558 750 726 c 0
 750 812 752 898 716 964 c 1
 660 1076 576 1098 490 1098 c 0
 304 1098 182 964 120 822 c 1
498 566 m 1
 490 528 458 414 410 324 c 0
 370 250 344 230 300 224 c 1
 250 234 246 270 246 350 c 0
 246 484 324 666 336 698 c 0
 374 794 412 864 472 864 c 0
 554 864 514 618 498 566 c 1
-584 284 m 1
 -356 350 -120 638 -120 852 c 0
 -120 940 -162 1016 -260 1058 c 0
 -358 1100 -470 1052 -558 968 c 0
 -700 836 -832 300 -796 126 c 0
 -772 12 -632 -24 -578 -38 c 1
 -510 -50 -284 142 -240 228 c 0
 -234 240 -242 262 -258 272 c 2
 -356 332 l 2
 -368 340 -386 338 -396 328 c 0
 -428 294 -494 222 -530 214 c 1
 -566 226 -566 236 -546 330 c 0
 -500 554 -466 682 -426 784 c 0
 -414 816 -384 878 -362 878 c 0
 -342 878 -336 866 -336 824 c 0
 -336 710 -428 540 -536 496 c 1
 -584 284 l 1
EndSplineSet
Fore
SplineSet
381 522 m 1,0,1
 439 559 439 559 486 635 c 0,2,3
 551 740 551 740 551 834 c 0,4,5
 551 852 551 852 549 864 c 0,6,7
 545 888 545 888 525 888 c 0,8,9
 520 888 520 888 514 884 c 0,10,11
 487 864 487 864 461 794 c 1,12,13
 422 694 422 694 381 522 c 1,0,1
334 304 m 1,14,15
 328 273 328 273 328 257 c 3,16,17
 328 236 328 236 355 224 c 1,18,19
 373 230 l 0,20,21
 406 244 406 244 476 324 c 0,22,23
 485 333 485 333 494 341 c 0,24,25
 509 356 509 356 531 342 c 2,26,-1
 629 282 l 2,27,28
 643 274 643 274 647 261 c 0,29,30
 652 246 652 246 647 238 c 0,31,32
 640 226 640 226 630 212 c 0,33,34
 579 142 579 142 479 62 c 0,35,36
 365 -28 365 -28 320 -28 c 0,37,-1
 309 -28 l 1,38,39
 115 22 115 22 91 136 c 0,40,41
 85 164 85 164 85 229 c 3,42,43
 85 400 85 400 164 643 c 0,44,45
 246 901 246 901 329 978 c 0,46,47
 357 1005 357 1005 388 1026 c 0,48,49
 472 1084 472 1084 549 1084 c 0,50,51
 590 1084 590 1084 633 1066 c 0,52,53
 767 1005 767 1005 767 862 c 0,54,55
 767 832 767 832 760 798 c 0,56,57
 732 651 732 651 605 504 c 0,58,59
 479 359 479 359 334 304 c 1,14,15
EndSplineSet
Validated: 19457
Colour: ffffff
EndChar

StartChar: eight
Encoding: 56 56 112
Width: 944
VWidth: 0
Flags: W
HStem: -18 220<405.408 554.937> 1143 237<564.311 734.146>
VStem: 121 270<211.923 446.268> 245 282<864.631 1104.95> 623 296<275.603 555.13> 752 267<910.498 1126.99>
LayerCount: 2
Back
SplineSet
593 762 m 5
 809 714 l 5
 877 776 1019 888 1019 1078 c 4
 1019 1276 875 1390 697 1390 c 4
 429 1390 245 1146 245 928 c 4
 245 804 315 644 459 608 c 4
 573 580 623 542 623 440 c 4
 623 328 567 192 475 192 c 4
 411 192 391 252 391 328 c 4
 391 432 531 576 639 606 c 5
 407 712 l 5
 279 618 121 502 121 280 c 4
 121 88 241 -26 433 -26 c 4
 717 -26 919 232 919 446 c 4
 919 702 781 738 671 792 c 4
 555 848 529 918 527 980 c 5
 527 1092 595 1162 665 1152 c 4
 753 1140 757 1070 749 998 c 4
 743 928 663 850 593 834 c 5
 593 762 l 5
EndSplineSet
Fore
SplineSet
601 836 m 1,0,1
 640 848 640 848 679 881 c 0,2,3
 742 936 742 936 749 998 c 0,4,5
 753 1035 753 1035 752 1046 c 0,6,7
 736 1143 736 1143 651 1143 c 0,8,9
 619 1143 619 1143 586 1118 c 0,10,11
 527 1076 527 1076 527 980 c 1,12,13
 531 893 531 893 601 836 c 1,0,1
561 569 m 1,14,15
 516 539 516 539 476 496 c 0,16,17
 391 404 391 404 391 328 c 0,18,19
 391 202 391 202 475 202 c 3,20,21
 529 202 529 202 574 268 c 1,22,23
 623 345 623 345 623 440 c 0,24,25
 623 528 623 528 561 569 c 1,14,15
350 669 m 1,26,27
 328 690 328 690 309 718 c 0,28,29
 245 813 245 813 245 928 c 0,30,31
 245 963 245 963 252 1001 c 0,32,33
 278 1145 278 1145 389 1259 c 0,34,35
 506 1380 506 1380 697 1380 c 0,36,37
 819 1380 819 1380 904 1315 c 0,38,39
 1019 1228 1019 1228 1019 1077 c 0,40,41
 1019 940 1019 940 922 825 c 0,42,43
 890 787 890 787 812 716 c 1,44,45
 815 714 815 714 819 711 c 0,46,47
 919 629 919 629 919 446 c 0,48,49
 919 409 919 409 908 358 c 0,50,51
 881 231 881 231 758 116 c 0,52,53
 614 -17 614 -17 433 -18 c 0,54,55
 323 -18 323 -18 242 35 c 0,56,57
 121 115 121 115 121 280 c 0,58,59
 121 380 121 380 165 466 c 0,60,61
 216 566 216 566 350 669 c 1,26,27
EndSplineSet
Colour: ffffff
EndChar

StartChar: ellipsis
Encoding: 8230 8230 113
Width: 1398
VWidth: 0
Flags: W
HStem: -36 264<178.758 401.721 644.757 867.721 1110.76 1333.73>
VStem: 145 294<-0.693413 191.175> 611 294<-0.693413 191.175> 1077 294<-0.693413 191.175>
CounterMasks: 1 70
LayerCount: 2
Back
SplineSet
60 96 m 0
 60 26 118 -36 186 -36 c 2
 210 -36 l 2
 292 -36 354 22 354 96 c 0
 354 164 288 228 226 228 c 2
 200 228 l 2
 118 228 60 168 60 96 c 0
526 96 m 0
 526 26 584 -36 652 -36 c 2
 676 -36 l 2
 758 -36 820 22 820 96 c 0
 820 164 754 228 692 228 c 2
 666 228 l 2
 584 228 526 168 526 96 c 0
992 96 m 0
 992 26 1050 -36 1118 -36 c 2
 1142 -36 l 2
 1224 -36 1286 22 1286 96 c 0
 1286 164 1220 228 1158 228 c 2
 1132 228 l 2
 1050 228 992 168 992 96 c 0
EndSplineSet
Fore
SplineSet
1077 96 m 0,0,1
 1077 136 1077 136 1100 170 c 0,2,3
 1140 228 1140 228 1217 228 c 2,4,-1
 1243 228 l 2,5,6
 1282 228 1282 228 1319 198 c 0,7,8
 1371 155 1371 155 1371 96 c 0,9,10
 1371 55 1371 55 1346 21 c 0,11,12
 1304 -36 1304 -36 1227 -36 c 2,13,-1
 1203 -36 l 2,14,15
 1163 -36 1163 -36 1128 -9 c 0,16,17
 1077 32 1077 32 1077 96 c 0,0,1
611 96 m 0,18,19
 611 136 611 136 634 170 c 0,20,21
 674 228 674 228 751 228 c 2,22,-1
 777 228 l 2,23,24
 816 228 816 228 853 198 c 0,25,26
 905 155 905 155 905 96 c 0,27,28
 905 55 905 55 880 21 c 0,29,30
 838 -36 838 -36 761 -36 c 2,31,-1
 737 -36 l 2,32,33
 697 -36 697 -36 662 -9 c 0,34,35
 611 32 611 32 611 96 c 0,18,19
145 96 m 0,36,37
 145 136 145 136 168 170 c 0,38,39
 208 228 208 228 285 228 c 2,40,-1
 311 228 l 2,41,42
 350 228 350 228 387 198 c 0,43,44
 439 155 439 155 439 96 c 0,45,46
 439 54 439 54 414 21 c 0,47,48
 372 -36 372 -36 295 -36 c 2,49,-1
 271 -36 l 2,50,51
 231 -36 231 -36 196 -9 c 0,52,53
 145 32 145 32 145 96 c 0,36,37
EndSplineSet
Validated: 19457
Colour: ffffff
EndChar

StartChar: emdash
Encoding: 8212 8212 114
Width: 1804
VWidth: 0
Flags: W
HStem: 524 238<231 1832.06>
LayerCount: 2
Back
SplineSet
172 762 m 2
 154 762 148 758 140 722 c 2
 108 596 l 2
 94 544 106 524 146 524 c 2
 1684 524 l 2
 1714 524 1746 550 1752 580 c 2
 1778 698 l 2
 1788 742 1770 762 1732 762 c 2
 172 762 l 2
EndSplineSet
Fore
SplineSet
257 762 m 2,0,1
 1817 762 l 2,2,3
 1876 761 1876 761 1863 698 c 1,4,-1
 1837 580 l 2,5,6
 1834 568 1834 568 1826 556 c 0,7,8
 1803 524 1803 524 1769 524 c 2,9,-1
 231 524 l 2,10,11
 223 524 223 524 216 525 c 0,12,13
 176 532 176 532 193 596 c 2,14,-1
 225 722 l 2,15,16
 228 737 228 737 232 747 c 0,17,18
 238 762 238 762 257 762 c 2,0,1
EndSplineSet
Validated: 19489
Colour: ffffff
EndChar

StartChar: endash
Encoding: 8211 8211 115
Width: 1350
VWidth: 0
Flags: W
HStem: 524 238<231 1254.06>
LayerCount: 2
Back
SplineSet
172 762 m 2
 154 762 148 758 140 722 c 2
 108 596 l 2
 94 544 106 524 146 524 c 2
 1106 524 l 2
 1136 524 1168 550 1174 580 c 2
 1200 698 l 2
 1210 742 1192 762 1154 762 c 2
 172 762 l 2
EndSplineSet
Fore
SplineSet
257 762 m 2,0,1
 1239 762 l 2,2,3
 1298 761 1298 761 1285 698 c 1,4,-1
 1259 580 l 2,5,6
 1256 568 1256 568 1248 556 c 0,7,8
 1225 524 1225 524 1191 524 c 2,9,-1
 231 524 l 2,10,11
 223 524 223 524 216 525 c 0,12,13
 176 532 176 532 193 596 c 2,14,-1
 225 722 l 2,15,16
 228 737 228 737 232 747 c 0,17,18
 238 762 238 762 257 762 c 2,0,1
EndSplineSet
Validated: 19489
Colour: ffffff
EndChar

StartChar: equal
Encoding: 61 61 116
Width: 996
VWidth: 0
Flags: W
HStem: 336 238<159 952.062> 738 238<259 1052.06>
LayerCount: 2
Back
SplineSet
904 738 m 2
 934 738 966 764 972 794 c 2
 998 912 l 2
 1008 956 990 976 952 976 c 2
 228 976 l 2
 190 976 172 962 162 918 c 2
 136 810 l 2
 122 758 134 738 174 738 c 2
 904 738 l 2
804 336 m 2
 834 336 866 362 872 392 c 2
 898 510 l 2
 908 554 890 574 852 574 c 2
 128 574 l 2
 90 574 72 560 62 516 c 2
 36 408 l 2
 22 356 34 336 74 336 c 2
 804 336 l 2
EndSplineSet
Fore
SplineSet
889 336 m 2,0,1
 159 336 l 2,2,3
 151 336 151 336 144 337 c 0,4,5
 104 344 104 344 121 408 c 1,6,-1
 147 516 l 2,7,8
 150 529 150 529 155 540 c 0,9,10
 170 574 170 574 213 574 c 2,11,-1
 937 574 l 2,12,13
 996 573 996 573 983 510 c 1,14,-1
 957 392 l 2,15,16
 954 380 954 380 946 368 c 0,17,18
 924 336 924 336 889 336 c 2,0,1
989 738 m 2,19,-1
 259 738 l 2,20,21
 251 738 251 738 244 739 c 0,22,23
 204 746 204 746 221 810 c 1,24,-1
 247 918 l 2,25,26
 250 931 250 931 255 942 c 0,27,28
 270 976 270 976 313 976 c 2,29,-1
 1037 976 l 2,30,31
 1096 975 1096 975 1083 912 c 1,32,-1
 1057 794 l 2,33,34
 1054 782 1054 782 1046 770 c 0,35,36
 1024 738 1024 738 989 738 c 2,19,-1
EndSplineSet
Validated: 19489
Colour: ffffff
EndChar

StartChar: eth
Encoding: 240 240 117
Width: 752
VWidth: 0
Flags: W
HStem: -16 21G<355.786 445.03> 864 234<502.466 600.247> 1500 20G<521.594 727.802>
VStem: 85 246<249.316 569.172>
DStem2: 383 1342 487 1166 0.979662 0.200654<2.94232 159.248 418.516 557.041>
LayerCount: 2
Back
SplineSet
120 822 m 1
 50 674 0 504 0 350 c 0
 0 250 24 130 88 62 c 0
 154 -8 212 -16 286 -16 c 0
 408 -16 520 84 606 228 c 0
 692 372 750 558 750 726 c 0
 750 812 720 866 684 932 c 1
 628 1044 576 1098 490 1098 c 0
 304 1098 182 964 120 822 c 1
498 566 m 1
 490 528 458 414 410 324 c 0
 370 250 344 230 300 224 c 1
 250 234 246 270 246 350 c 0
 246 484 324 666 336 698 c 0
 374 794 412 864 472 864 c 0
 554 864 514 618 498 566 c 1
606 230 m 1
 738 424 800 764 764 1092 c 0
 748 1244 716 1388 698 1470 c 0
 692 1500 670 1520 640 1520 c 2
 454 1520 l 2
 424 1520 408 1500 418 1472 c 0
 454 1384 500 1236 522 1102 c 0
 550 926 554 716 500 568 c 1
 606 230 l 1
298 1342 m 2
 284 1338 268 1326 288 1294 c 1
 330 1198 l 1
 344 1172 366 1158 402 1166 c 2
 862 1262 l 2
 904 1270 910 1302 898 1326 c 2
 848 1420 l 2
 838 1438 820 1448 796 1444 c 2
 298 1342 l 2
EndSplineSet
Fore
SplineSet
383 1342 m 1,0,1
 539 1374 l 1,2,3
 527 1410 527 1410 503 1472 c 0,4,5
 499 1483 499 1483 500 1493 c 0,6,7
 504 1520 504 1520 539 1520 c 2,8,-1
 725 1520 l 2,9,10
 731 1520 731 1520 737 1519 c 0,11,12
 775 1512 775 1512 783 1470 c 1,13,-1
 793 1426 l 1,14,-1
 881 1444 l 1,15,16
 915 1449 915 1449 933 1420 c 1,17,-1
 983 1326 l 2,18,19
 988 1317 988 1317 988 1306 c 0,20,21
 990 1270 990 1270 947 1262 c 2,22,-1
 829 1237 l 1,23,24
 842 1163 842 1163 849 1092 c 0,25,26
 868 916 868 916 850 739 c 0,27,28
 820 432 820 432 701 245 c 1,29,-1
 691 228 l 2,30,31
 672 196 672 196 651 166 c 0,32,33
 519 -16 519 -16 371 -16 c 0,34,35
 341 -16 341 -16 320 -14 c 0,36,37
 237 -5 237 -5 173 62 c 0,38,39
 160 76 160 76 148 94 c 0,40,41
 85 191 85 191 85 350 c 0,42,43
 85 568 85 568 205 822 c 1,44,45
 231 882 231 882 268 932 c 0,46,47
 390 1098 390 1098 575 1098 c 0,48,49
 593 1098 593 1098 608 1095 c 1,50,-1
 607 1102 l 2,51,52
 602 1130 602 1130 590 1188 c 1,53,-1
 487 1166 l 2,54,55
 439 1156 439 1156 415 1198 c 1,56,-1
 373 1294 l 1,57,58
 351 1331 351 1331 383 1342 c 1,0,1
583 566 m 1,59,60
 598 616 598 616 605 699 c 0,61,62
 618 864 618 864 557 864 c 0,63,64
 537 864 537 864 518 853 c 0,65,66
 471 825 471 825 421 698 c 0,67,68
 420 696 420 696 419 693 c 0,69,70
 331 468 331 468 331 350 c 0,71,72
 331 295 331 295 336 271 c 0,73,74
 345 232 345 232 385 224 c 1,75,76
 403 227 403 227 418 233 c 0,77,78
 455 250 455 250 495 324 c 0,79,80
 503 339 503 339 511 356 c 0,81,82
 561 464 561 464 583 566 c 1,59,60
EndSplineSet
Validated: 19489
Colour: ffffff
EndChar

StartChar: exclam
Encoding: 33 33 118
Width: 528
VWidth: 0
Flags: W
HStem: -22 278<121.209 350.606>
VStem: 79 310<20.144 217.157>
LayerCount: 2
Back
SplineSet
118 432 m 2
 110 400 128 386 162 386 c 2
 272 386 l 2
 302 386 324 400 332 430 c 1
 672 1420 l 1
 680 1452 662 1466 628 1466 c 2
 398 1466 l 2
 368 1466 346 1452 338 1422 c 2
 118 432 l 2
304 118 m 0
 304 190 242 256 172 256 c 2
 146 256 l 2
 60 256 -6 196 -6 118 c 0
 -6 46 64 -22 128 -22 c 2
 156 -22 l 2
 242 -22 304 42 304 118 c 0
EndSplineSet
Fore
SplineSet
389 118 m 0,0,1
 389 75 389 75 364 38 c 0,2,3
 322 -22 322 -22 241 -22 c 2,4,-1
 213 -22 l 2,5,6
 172 -22 172 -22 132 11 c 0,7,8
 79 57 79 57 79 118 c 0,9,10
 79 162 79 162 106 198 c 0,11,12
 150 256 150 256 231 256 c 2,13,-1
 257 256 l 2,14,15
 301 256 301 256 337 225 c 0,16,17
 389 182 389 182 389 118 c 0,0,1
203 432 m 2,18,19
 423 1422 l 2,20,21
 433 1465 433 1465 483 1466 c 2,22,-1
 713 1466 l 2,23,24
 766 1465 766 1465 757 1420 c 1,25,-1
 417 430 l 2,26,27
 403 386 403 386 357 386 c 2,28,-1
 247 386 l 2,29,30
 194 387 194 387 203 432 c 2,18,19
EndSplineSet
Validated: 19457
Colour: ffffff
EndChar

StartChar: exclamdown
Encoding: 161 161 119
Width: 528
VWidth: 0
Flags: W
HStem: -22 21G<104.471 384.893> 1188 278<493.394 722.792>
VStem: 455 310<1226.84 1423.86>
LayerCount: 2
Back
SplineSet
556 1012 m 2
 564 1044 546 1058 512 1058 c 2
 402 1058 l 2
 372 1058 350 1044 342 1014 c 1
 2 24 l 1
 -6 -8 12 -22 46 -22 c 2
 276 -22 l 2
 306 -22 328 -8 336 22 c 2
 556 1012 l 2
370 1326 m 0
 370 1254 432 1188 502 1188 c 2
 528 1188 l 2
 614 1188 680 1248 680 1326 c 0
 680 1398 610 1466 546 1466 c 2
 518 1466 l 2
 432 1466 370 1402 370 1326 c 0
EndSplineSet
Fore
SplineSet
455 1326 m 0,0,1
 455 1370 455 1370 480 1406 c 0,2,3
 523 1466 523 1466 603 1466 c 2,4,-1
 631 1466 l 2,5,6
 673 1466 673 1466 712 1433 c 0,7,8
 765 1387 765 1387 765 1326 c 0,9,10
 765 1282 765 1282 738 1246 c 0,11,12
 694 1188 694 1188 613 1188 c 2,13,-1
 587 1188 l 2,14,15
 544 1188 544 1188 507 1219 c 0,16,17
 455 1262 455 1262 455 1326 c 0,0,1
641 1012 m 2,18,19
 421 22 l 1,20,21
 409 -21 409 -21 361 -22 c 1,22,-1
 131 -22 l 2,23,24
 78 -21 78 -21 87 24 c 1,25,-1
 427 1014 l 1,26,27
 439 1057 439 1057 487 1058 c 1,28,-1
 597 1058 l 2,29,30
 650 1057 650 1057 641 1012 c 2,18,19
EndSplineSet
Validated: 19457
Colour: ffffff
EndChar

StartChar: f
Encoding: 102 102 120
Width: 622
VWidth: 0
Flags: MW
HStem: 0 21G<147.896 327.886> 880 200<239.5 331 640 744.997>
DStem2: 109 46 363 44 0.258643 0.965973<6.26192 863.04 1136.16 1398.24>
LayerCount: 2
Back
SplineSet
220 0 m 2
 248 0 270 14 278 44 c 2
 558 1092 l 2
 592 1222 632 1314 716 1358 c 0
 744 1372 748 1402 732 1424 c 1
 700 1522 l 1
 688 1538 656 1540 628 1532 c 0
 466 1490 370 1348 312 1130 c 2
 24 46 l 2
 18 20 34 0 68 0 c 2
 220 0 l 2
584 1348 m 1
 790 1282 l 2
 820 1272 848 1268 860 1292 c 2
 912 1390 l 2
 932 1428 930 1476 892 1486 c 2
 708 1534 l 1
 646 1556 548 1504 528 1474 c 0
 522 1466 504 1434 496 1416 c 1
 584 1348 l 1
150 880 m 2
 608 880 l 2
 636 880 652 898 660 924 c 2
 694 1036 l 2
 704 1068 694 1080 664 1080 c 2
 200 1080 l 2
 180 1080 166 1076 156 1042 c 2
 124 928 l 2
 114 892 124 880 150 880 c 2
EndSplineSet
Fore
SplineSet
305 0 m 1,0,1
 153 0 l 2,2,3
 143 0 143 0 133 3 c 0,4,5
 101 13 101 13 109 46 c 1,6,-1
 331 880 l 1,7,-1
 235 880 l 1,8,9
 201 882 201 882 209 928 c 1,10,-1
 241 1042 l 2,11,12
 243 1049 243 1049 247 1058 c 0,13,14
 258 1080 258 1080 285 1080 c 2,15,-1
 384 1080 l 1,16,-1
 397 1130 l 2,17,18
 405 1162 405 1162 418 1201 c 0,19,20
 509 1473 509 1473 703 1529 c 1,21,22
 756 1546 756 1546 793 1534 c 1,23,-1
 977 1486 l 2,24,25
 993 1482 993 1482 1003 1467 c 1,26,27
 1021 1435 1021 1435 997 1390 c 2,28,-1
 945 1292 l 2,29,30
 930 1264 930 1264 875 1282 c 2,31,-1
 751 1322 l 1,32,33
 750 1321 750 1321 748 1319 c 0,34,35
 686 1247 686 1247 665 1170 c 2,36,-1
 640 1080 l 1,37,-1
 749 1080 l 1,38,39
 784 1077 784 1077 779 1036 c 1,40,-1
 745 924 l 2,41,42
 732 882 732 882 693 880 c 1,43,-1
 586 880 l 1,44,-1
 363 44 l 2,45,46
 352 2 352 2 305 0 c 1,0,1
EndSplineSet
Validated: 19489
Colour: ffffff
EndChar

StartChar: five
Encoding: 53 53 121
Width: 937
VWidth: 0
Flags: MW
HStem: -23 186<333.509 482.733> 722 194<540.981 703.835> 1129 231<596.93 1043.93>
VStem: 120 266<164.514 346.678> 652 247<418.437 720.403>
LayerCount: 2
Back
SplineSet
380 738 m 1
 496 1204 l 1
 410 1130 l 1
 890 1120 l 2
 916 1120 922 1124 930 1160 c 2
 962 1288 l 2
 976 1340 964 1360 924 1360 c 2
 326 1360 l 2
 296 1360 274 1348 266 1318 c 2
 100 658 l 1
 82 624 98 610 124 600 c 2
 266 544 l 1
 282 540 298 544 308 560 c 0
 352 640 430 716 498 722 c 1
 548 710 538 582 498 448 c 0
 448 286 332 158 304 162 c 0
 266 168 250 232 288 338 c 0
 302 372 288 384 254 388 c 1
 134 412 l 1
 102 416 92 408 80 394 c 0
 -78 214 8 -46 268 -22 c 1
 490 -42 694 158 764 502 c 1
 794 660 804 916 538 916 c 0
 358 916 202 800 122 658 c 1
 380 738 l 1
EndSplineSet
Fore
SplineSet
540 899 m 1,0,1
 598 916 598 916 658 916 c 3,2,3
 750 916 750 916 808 875 c 0,4,5
 899 809 899 809 899 649 c 0,6,7
 899 583 899 583 884 502 c 1,8,9
 829 233 829 233 689 99 c 0,10,11
 561 -22 561 -22 388 -23 c 1,12,13
 280 -23 280 -23 212 17 c 0,14,15
 120 72 120 72 120 196 c 3,16,17
 120 302 120 302 200 394 c 0,18,19
 201 395 201 395 203 397 c 0,20,21
 220 416 220 416 254 412 c 1,22,-1
 374 388 l 2,23,24
 381 387 381 387 387 386 c 0,25,26
 424 377 424 377 408 338 c 1,27,28
 387 278 387 278 386 229 c 0,29,30
 386 163 386 163 419 163 c 0,31,32
 454 163 454 163 511 240 c 0,33,34
 588 344 588 344 618 448 c 0,35,36
 652 562 652 562 652 643 c 0,37,38
 651 722 651 722 614 722 c 0,39,40
 582 722 582 722 536 685 c 0,41,42
 471 634 471 634 428 560 c 1,43,44
 414 538 414 538 386 544 c 1,45,-1
 244 600 l 2,46,47
 227 607 227 607 219 621 c 0,48,49
 214 632 214 632 222 665 c 2,50,-1
 386 1318 l 2,51,52
 396 1358 396 1358 446 1360 c 1,53,-1
 1044 1360 l 2,54,55
 1051 1360 1051 1360 1059 1359 c 0,56,57
 1099 1352 1099 1352 1082 1288 c 1,58,-1
 1050 1160 l 2,59,60
 1045 1140 1045 1140 1041 1133 c 0,61,62
 1034 1120 1034 1120 1010 1120 c 2,63,-1
 597 1129 l 1,64,-1
 540 899 l 1,0,1
EndSplineSet
Validated: 19489
Colour: ffffff
EndChar

StartChar: four
Encoding: 52 52 122
Width: 973
VWidth: 0
Flags: MW
HStem: 0 21G<522.252 722.546> 294 220<389.653 546.653 876.653 975.55> 1340 20G<695.185 922.744>
DStem2: 90.6532 498 389.653 512 0.559268 0.828987<178.827 1017.02> 488.653 62 758.653 44 0.243886 0.969804<-7.31644 239.14 532.979 752.757>
LayerCount: 2
Back
SplineSet
574 738 m 2
 404 62 l 2
 396 30 410 0 444 0 c 2
 614 0 l 2
 644 0 666 14 674 44 c 2
 844 720 l 2
 852 752 838 782 804 782 c 2
 634 782 l 2
 604 782 582 768 574 738 c 2
828 294 m 2
 866 294 884 314 896 352 c 1
 936 454 l 1
 946 496 930 516 890 514 c 2
 172 512 l 1
 220 392 l 1
 850 1286 l 1
 880 1322 872 1360 826 1360 c 2
 630 1360 l 2
 590 1360 582 1350 570 1334 c 2
 6 498 l 2
 -56 406 -56 294 74 294 c 2
 828 294 l 2
EndSplineSet
Fore
SplineSet
913 294 m 2,0,1
 822 294 l 1,2,-1
 759 44 l 2,3,4
 748 2 748 2 699 0 c 1,5,-1
 529 0 l 2,6,7
 517 0 517 0 506 6 c 0,8,9
 480 23 480 23 489 62 c 2,10,-1
 547 294 l 1,11,-1
 159 294 l 2,12,13
 73 294 73 294 54 357 c 1,14,15
 37 419 37 419 91 498 c 2,16,-1
 655 1334 l 2,17,18
 664 1348 664 1348 676 1353 c 0,19,20
 691 1360 691 1360 715 1360 c 2,21,-1
 911 1360 l 2,22,23
 935 1360 935 1360 947 1346 c 1,24,25
 965 1322 965 1322 935 1286 c 1,26,-1
 390 512 l 1,27,-1
 602 513 l 1,28,-1
 659 738 l 2,29,30
 670 780 670 780 719 782 c 1,31,-1
 889 782 l 2,32,33
 901 782 901 782 912 776 c 0,34,35
 938 759 938 759 929 720 c 2,36,-1
 877 514 l 1,37,-1
 975 514 l 1,38,39
 1034 516 1034 516 1021 454 c 1,40,-1
 981 352 l 2,41,42
 980 347 980 347 978 342 c 0,43,44
 959 294 959 294 913 294 c 2,0,1
EndSplineSet
Validated: 19489
Colour: ffffff
EndChar

StartChar: fourinferior
Encoding: 8324 8324 123
Width: 738
VWidth: 0
Flags: W
HStem: 0 21G<391.093 563.045> 192 156<337 409 684 755 759.587 760.5>
DStem2: 75 324 337 348 0.614146 0.789192<179.847 743.359> 365 40 591 28 0.246999 0.969016<3.96248 158.158 377.25 505.898>
LayerCount: 2
Back
SplineSet
412 492 m 2
 280 40 l 2
 274 20 284 0 310 0 c 2
 460 0 l 2
 482 0 500 10 506 28 c 2
 638 480 l 2
 644 500 632 520 608 520 c 2
 458 520 l 2
 434 520 418 510 412 492 c 2
620 192 m 2
 650 192 662 204 672 228 c 2
 704 310 l 2
 712 336 700 350 670 348 c 1
 132 348 l 1
 176 254 l 1
 644 830 l 2
 662 854 646 884 620 884 c 2
 458 884 l 2
 432 884 422 876 404 856 c 2
 -10 324 l 2
 -58 264 -42 192 56 192 c 2
 620 192 l 2
EndSplineSet
Fore
SplineSet
705 192 m 2,0,1
 639 192 l 1,2,-1
 591 28 l 1,3,4
 581 1 581 1 545 0 c 1,5,-1
 395 0 l 2,6,7
 387 0 387 0 380 3 c 0,8,9
 357 13 357 13 365 40 c 2,10,-1
 409 192 l 1,11,-1
 141 192 l 2,12,13
 75 193 75 193 55 232 c 1,14,15
 35 274 35 274 75 324 c 2,16,-1
 489 856 l 2,17,18
 492 860 492 860 496 863 c 0,19,20
 516 884 516 884 543 884 c 2,21,-1
 705 884 l 2,22,23
 719 884 719 884 729 873 c 0,24,25
 747 853 747 853 729 830 c 1,26,-1
 337 348 l 1,27,-1
 455 348 l 1,28,-1
 497 492 l 1,29,30
 507 519 507 519 543 520 c 1,31,-1
 693 520 l 2,32,33
 702 520 702 520 710 516 c 0,34,35
 730 505 730 505 723 480 c 2,36,-1
 684 348 l 1,37,-1
 755 348 l 2,38,39
 757 348 757 348 760 348 c 0,40,41
 801 348 801 348 789 310 c 1,42,-1
 757 228 l 2,43,44
 756 225 756 225 754 221 c 0,45,46
 740 192 740 192 705 192 c 2,0,1
EndSplineSet
Validated: 19489
Colour: ffffff
EndChar

StartChar: foursuperior
Encoding: 8308 8308 124
Width: 738
VWidth: 0
Flags: W
HStem: 832 156<419 491 766 837 841.587 842.5>
DStem2: 157 964 419 988 0.614146 0.789192<179.847 743.359> 447 680 673 668 0.246999 0.969016<3.96248 158.158 377.25 505.898>
LayerCount: 2
Back
SplineSet
494 1132 m 2
 362 680 l 2
 356 660 366 640 392 640 c 2
 542 640 l 2
 564 640 582 650 588 668 c 2
 720 1120 l 2
 726 1140 714 1160 690 1160 c 2
 540 1160 l 2
 516 1160 500 1150 494 1132 c 2
702 832 m 2
 732 832 744 844 754 868 c 2
 786 950 l 2
 794 976 782 990 752 988 c 1
 214 988 l 1
 258 894 l 1
 726 1470 l 2
 744 1494 728 1524 702 1524 c 2
 540 1524 l 2
 514 1524 504 1516 486 1496 c 2
 72 964 l 2
 24 904 40 832 138 832 c 2
 702 832 l 2
EndSplineSet
Fore
SplineSet
787 832 m 2,0,1
 721 832 l 1,2,-1
 673 668 l 1,3,4
 663 641 663 641 627 640 c 1,5,-1
 477 640 l 2,6,7
 469 640 469 640 462 643 c 0,8,9
 439 653 439 653 447 680 c 2,10,-1
 491 832 l 1,11,-1
 223 832 l 2,12,13
 157 833 157 833 137 872 c 1,14,15
 117 914 117 914 157 964 c 2,16,-1
 571 1496 l 2,17,18
 574 1500 574 1500 578 1503 c 0,19,20
 598 1524 598 1524 625 1524 c 2,21,-1
 787 1524 l 2,22,23
 800 1524 800 1524 811 1513 c 0,24,25
 829 1493 829 1493 811 1470 c 1,26,-1
 419 988 l 1,27,-1
 537 988 l 1,28,-1
 579 1132 l 1,29,30
 589 1159 589 1159 625 1160 c 1,31,-1
 775 1160 l 2,32,33
 784 1160 784 1160 792 1156 c 0,34,35
 812 1145 812 1145 805 1120 c 2,36,-1
 766 988 l 1,37,-1
 837 988 l 2,38,39
 839 988 839 988 842 988 c 0,40,41
 883 988 883 988 871 950 c 1,42,-1
 839 868 l 2,43,44
 838 865 838 865 836 861 c 0,45,46
 822 832 822 832 787 832 c 2,0,1
EndSplineSet
Validated: 19489
Colour: ffffff
EndChar

StartChar: fraction
Encoding: 8260 8260 125
Width: 400
VWidth: 0
Flags: W
LayerCount: 2
Back
SplineSet
124 -54 m 2
 156 -54 174 -52 208 -18 c 2
 1676 1456 l 2
 1700 1480 1690 1528 1656 1528 c 2
 1462 1528 l 2
 1430 1528 1400 1516 1366 1482 c 2
 -90 20 l 2
 -114 -4 -102 -52 -68 -52 c 2
 124 -54 l 2
EndSplineSet
Fore
SplineSet
209 -54 m 2,0,1
 17 -52 l 2,2,3
 -4 -51 -4 -51 -14 -30 c 1,4,5
 -26 -1 -26 -1 -5 20 c 2,6,-1
 1451 1482 l 2,7,8
 1496 1527 1496 1527 1547 1528 c 1,9,-1
 1741 1528 l 2,10,11
 1762 1527 1762 1527 1771 1506 c 1,12,13
 1782 1477 1782 1477 1761 1456 c 2,14,-1
 293 -18 l 2,15,16
 282 -29 282 -29 272 -37 c 0,17,18
 249 -54 249 -54 209 -54 c 2,0,1
EndSplineSet
Validated: 3073
Colour: ffffff
EndChar

StartChar: g
Encoding: 103 103 126
Width: 866
VWidth: 0
Flags: MW
HStem: -380 226<262.326 389.655> -6 304<267.898 375.898> 867 209<558.296 661.316>
VStem: 91 269<313.092 489.764>
DStem2: 163.898 -56 253.898 -346 0.86929 -0.494302<-40.2175 211.152> 391.898 -104 615.898 -130 0.275546 0.961288<-58.5956 254.804 584.884 995.862 1165.09 1237.25>
LayerCount: 2
Back
SplineSet
802 1080 m 2
 680 1078 l 2
 652 1078 630 1062 616 1012 c 2
 296 -104 l 2
 282 -150 264 -162 242 -150 c 2
 68 -56 l 2
 42 -42 24 -48 2 -72 c 1
 -62 -158 l 2
 -78 -178 -84 -212 -46 -230 c 1
 158 -346 l 2
 250 -400 290 -386 382 -336 c 0
 456 -296 496 -218 520 -130 c 0
 546 -34 754 662 844 1026 c 0
 846 1036 854 1080 802 1080 c 2
608 1010 m 1
 574 870 l 1
 558 824 l 1
 512 668 444 518 386 418 c 0
 342 344 300 298 280 298 c 0
 262 298 260 308 270 358 c 0
 298 510 404 814 462 858 c 0
 492 880 586 854 606 836 c 1
 642 994 l 1
 602 1034 526 1076 446 1076 c 0
 396 1076 336 1062 286 1024 c 0
 172 938 24 542 -4 254 c 0
 -12 176 20 112 72 60 c 0
 98 34 138 -6 172 -6 c 2
 186 -6 l 2
 234 -6 274 30 352 124 c 2
 514 318 l 1
 608 1010 l 1
EndSplineSet
Fore
SplineSet
898 1080 m 1,0,1
 948 1078 948 1078 940 1026 c 1,2,3
 873 756 873 756 667 48 c 0,4,5
 622 -106 622 -106 616 -130 c 0,6,7
 574 -283 574 -283 478 -336 c 0,8,9
 415 -370 415 -370 382 -378 c 0,10,11
 370 -380 370 -380 358 -380 c 0,12,13
 312 -380 312 -380 254 -346 c 1,14,-1
 50 -230 l 2,15,16
 35 -222 35 -222 28 -213 c 0,17,18
 10 -187 10 -187 34 -158 c 1,19,-1
 98 -72 l 2,20,21
 102 -68 l 0,22,23
 131 -38 131 -38 164 -56 c 2,24,-1
 338 -150 l 2,25,26
 345 -154 345 -154 352 -154 c 0,27,28
 376 -154 376 -154 392 -104 c 1,29,-1
 462 141 l 1,30,-1
 448 124 l 2,31,32
 413 81 413 81 386 53 c 0,33,34
 328 -6 328 -6 282 -6 c 2,35,-1
 268 -6 l 1,36,37
 234 -4 234 -4 168 60 c 1,38,39
 91 142 91 142 91 232 c 3,40,41
 91 259 91 259 108 372 c 0,42,43
 125 479 125 479 215 739 c 0,44,45
 291 954 291 954 382 1024 c 0,46,47
 452 1076 452 1076 542 1076 c 131,-1,48
 632 1076 632 1076 713 1016 c 1,49,50
 713 1017 713 1017 714 1018 c 0,51,52
 732 1077 732 1077 776 1078 c 2,53,-1
 898 1080 l 1,0,1
664 854 m 1,54,55
 660 855 660 855 656 857 c 0,56,57
 619 868 619 868 594 867 c 0,58,59
 571 867 571 867 558 858 c 0,60,61
 523 831 523 831 467 690 c 0,62,63
 388 492 388 492 366 358 c 0,64,65
 360 321 360 321 360 313 c 0,66,67
 361 298 361 298 376 298 c 3,68,69
 380 298 380 298 384 300 c 0,70,71
 421 317 421 317 482 418 c 1,72,73
 588 601 588 601 654 824 c 1,74,-1
 664 854 l 1,54,55
EndSplineSet
Validated: 19489
Colour: ffffff
EndChar

StartChar: germandbls
Encoding: 223 223 127
Width: 972
VWidth: 0
Flags: MW
HStem: -32 414<472.224 633.551> 1326 218<662.045 830.06>
VStem: 379 260<179.082 325.556> 545 288<646.914 841.889> 733 284<179.63 453.624>
DStem2: 27 46 281 44 0.246999 0.969016<4.2446 1307.72>
LayerCount: 2
Back
SplineSet
138 0 m 2
 166 0 188 14 196 44 c 2
 476 1092 l 2
 506 1204 586 1346 666 1346 c 0
 736 1346 820 1226 664 1060 c 0
 564 956 460 814 460 678 c 0
 460 472 648 524 648 328 c 0
 648 278 636 180 592 176 c 1
 554 176 552 296 554 350 c 0
 554 376 530 390 492 378 c 2
 334 328 l 2
 308 320 294 288 294 258 c 0
 294 118 340 -32 538 -32 c 0
 780 -32 932 172 932 354 c 0
 932 592 748 624 748 742 c 0
 748 808 814 868 866 932 c 1
 1132 1206 966 1544 692 1544 c 0
 436 1544 278 1312 222 1100 c 2
 -58 46 l 2
 -64 20 -48 0 -14 0 c 2
 138 0 l 2
EndSplineSet
Fore
SplineSet
223 0 m 1,0,1
 71 0 l 2,2,3
 61 0 61 0 51 3 c 0,4,5
 19 13 19 13 27 46 c 1,6,-1
 307 1100 l 2,7,8
 346 1248 346 1248 433 1361 c 0,9,10
 574 1544 574 1544 777 1544 c 0,11,12
 901 1544 901 1544 988 1461 c 0,13,14
 1081 1373 1081 1373 1085 1241 c 0,15,16
 1091 1075 1091 1075 951 932 c 1,17,18
 941 920 941 920 919 895 c 0,19,20
 904 878 904 878 897 869 c 0,21,22
 833 793 833 793 833 742 c 0,23,24
 833 724 833 724 839 705 c 0,25,26
 850 674 850 674 901 619 c 0,27,28
 925 593 925 593 937 579 c 0,29,30
 1017 482 1017 482 1017 354 c 0,31,32
 1017 338 1017 338 1015 321 c 0,33,34
 1002 189 1002 189 908 89 c 0,35,36
 793 -32 793 -32 623 -32 c 0,37,38
 590 -32 590 -32 559 -26 c 0,39,40
 376 11 376 11 379 258 c 0,41,42
 379 265 379 265 380 272 c 0,43,44
 387 318 387 318 419 328 c 2,45,-1
 577 378 l 2,46,47
 593 383 593 383 608 382 c 0,48,49
 640 379 640 379 639 350 c 0,50,51
 639 339 639 339 638 326 c 0,52,53
 637 176 637 176 677 176 c 1,54,55
 692 178 692 178 705 195 c 0,56,57
 733 237 733 237 733 328 c 0,58,59
 733 385 733 385 711 425 c 0,60,61
 693 456 693 456 641 498 c 0,62,63
 617 517 617 517 605 528 c 0,64,65
 545 585 545 585 545 678 c 0,66,67
 546 842 546 842 749 1060 c 0,68,69
 788 1102 788 1102 811 1143 c 0,70,71
 839 1195 839 1195 838 1238 c 0,72,73
 838 1326 838 1326 751 1326 c 0,74,75
 705 1326 705 1326 656 1276 c 0,76,77
 594 1214 594 1214 561 1092 c 2,78,-1
 281 44 l 2,79,80
 270 2 270 2 223 0 c 1,0,1
EndSplineSet
Validated: 8408097
Colour: ffffff
EndChar

StartChar: grave
Encoding: 96 96 128
Width: 606
VWidth: 0
Flags: W
HStem: 1150 298<434.25 499.375>
LayerCount: 2
Back
SplineSet
346 1448 m 2
 374 1448 392 1438 408 1414 c 2
 544 1194 l 2
 562 1166 542 1150 518 1150 c 2
 432 1150 l 2
 404 1150 384 1158 364 1178 c 2
 128 1412 l 2
 108 1430 120 1448 134 1448 c 2
 346 1448 l 2
EndSplineSet
Fore
SplineSet
431 1448 m 1,0,1
 471 1447 471 1447 493 1414 c 1,2,-1
 629 1194 l 2,3,4
 648 1165 648 1165 621 1153 c 0,5,6
 612 1150 612 1150 603 1150 c 2,7,-1
 517 1150 l 2,8,9
 477 1151 477 1151 449 1178 c 2,10,-1
 213 1412 l 1,11,12
 193 1430 193 1430 208 1443 c 0,13,14
 213 1447 213 1447 219 1448 c 2,15,-1
 431 1448 l 1,0,1
EndSplineSet
Validated: 19457
Colour: ffffff
EndChar

StartChar: greater
Encoding: 62 62 129
Width: 1004
VWidth: 0
Flags: W
LayerCount: 2
Back
SplineSet
736 640 m 1
 120 454 l 2
 88 444 60 414 52 382 c 2
 28 268 l 2
 18 230 28 196 82 214 c 2
 882 488 l 2
 916 498 944 528 950 560 c 2
 970 654 l 2
 978 686 962 718 930 732 c 2
 254 1016 l 2
 216 1032 200 1026 192 984 c 2
 166 870 l 2
 160 838 172 806 204 796 c 2
 728 602 l 1
 736 640 l 1
EndSplineSet
Fore
SplineSet
760 622 m 1,0,-1
 289 796 l 2,1,2
 282 798 282 798 275 803 c 0,3,4
 242 824 242 824 251 870 c 1,5,-1
 277 984 l 2,6,7
 280 999 280 999 285 1010 c 0,8,9
 298 1034 298 1034 339 1016 c 2,10,-1
 1015 732 l 2,11,12
 1023 728 1023 728 1031 723 c 0,13,14
 1066 696 1066 696 1055 654 c 1,15,-1
 1035 560 l 2,16,17
 1033 551 1033 551 1029 542 c 0,18,19
 1010 501 1010 501 967 488 c 1,20,-1
 167 214 l 2,21,22
 146 207 146 207 132 210 c 0,23,24
 100 217 100 217 113 268 c 1,25,-1
 137 382 l 2,26,27
 139 390 139 390 143 399 c 0,28,29
 163 441 163 441 205 454 c 2,30,-1
 760 622 l 1,0,-1
EndSplineSet
Validated: 3105
Colour: ffffff
EndChar

StartChar: guillemotleft
Encoding: 171 171 130
Width: 872
VWidth: 0
Flags: W
DStem2: 477 536 273 522 0.309218 -0.950991<0 295.042> 286.554 604.854 477 536 0.605771 0.795639<60.5837 448.103> 845 536 641 522 0.309218 -0.950991<0 295.042> 654.554 604.854 845 536 0.605771 0.795639<60.5837 448.103>
LayerCount: 2
Back
SplineSet
392 536 m 1
 498 210 l 2
 508 182 494 162 464 162 c 2
 368 162 l 2
 338 162 310 180 300 208 c 2
 188 522 l 2
 178 552 186 586 204 608 c 2
 460 902 l 2
 480 924 512 940 542 940 c 2
 638 940 l 2
 668 940 684 918 660 888 c 2
 392 536 l 1
760 536 m 1
 866 210 l 2
 876 182 862 162 832 162 c 2
 736 162 l 2
 706 162 678 180 668 208 c 2
 556 522 l 2
 546 552 554 586 572 608 c 2
 828 902 l 2
 848 924 880 940 910 940 c 2
 1006 940 l 2
 1036 940 1052 918 1028 888 c 2
 760 536 l 1
EndSplineSet
Fore
SplineSet
845 536 m 1,0,-1
 951 210 l 1,1,2
 963 176 963 176 935 165 c 0,3,4
 926 162 926 162 917 162 c 2,5,-1
 821 162 l 2,6,7
 778 162 778 162 758 197 c 0,8,9
 755 203 755 203 753 208 c 2,10,-1
 641 522 l 2,11,12
 626 566 626 566 655 605 c 0,13,14
 657 607 657 607 657 608 c 2,15,-1
 913 902 l 1,16,17
 948 939 948 939 995 940 c 2,18,-1
 1091 940 l 2,19,20
 1121 940 1121 940 1124 918 c 1,21,22
 1125 904 1125 904 1113 888 c 2,23,-1
 845 536 l 1,0,-1
477 536 m 1,24,-1
 583 210 l 1,25,26
 595 176 595 176 567 165 c 0,27,28
 558 162 558 162 549 162 c 2,29,-1
 453 162 l 2,30,31
 410 162 410 162 390 197 c 0,32,33
 387 203 387 203 385 208 c 2,34,-1
 273 522 l 2,35,36
 258 566 258 566 287 605 c 0,37,38
 289 607 289 607 289 608 c 2,39,-1
 545 902 l 1,40,41
 580 939 580 939 627 940 c 2,42,-1
 723 940 l 2,43,44
 754 940 754 940 756 918 c 1,45,46
 757 904 757 904 745 888 c 2,47,-1
 477 536 l 1,24,-1
EndSplineSet
Validated: 19489
Colour: ffffff
EndChar

StartChar: guillemotright
Encoding: 187 187 131
Width: 872
VWidth: 0
Flags: W
DStem2: 615 580 411 566 0.309218 -0.950991<-344.808 -49.7666> 411 566 601.446 497.146 0.605771 0.795639<-387.519 -332.396 -332.396 0> 991 580 787 566 0.309218 -0.950991<-344.808 -49.7666> 787 566 977.446 497.146 0.605771 0.795639<-387.519 -332.396 -332.396 0>
LayerCount: 2
Back
SplineSet
326 566 m 1
 220 892 l 2
 210 920 224 940 254 940 c 2
 350 940 l 2
 380 940 408 922 418 894 c 2
 530 580 l 2
 540 550 532 516 514 494 c 2
 258 200 l 2
 238 178 206 162 176 162 c 2
 80 162 l 2
 50 162 34 184 58 214 c 2
 326 566 l 1
702 566 m 1
 596 892 l 2
 586 920 600 940 630 940 c 2
 726 940 l 2
 756 940 784 922 794 894 c 2
 906 580 l 2
 916 550 908 516 890 494 c 2
 634 200 l 2
 614 178 582 162 552 162 c 2
 456 162 l 2
 426 162 410 184 434 214 c 2
 702 566 l 1
EndSplineSet
Fore
SplineSet
787 566 m 1,0,-1
 681 892 l 1,1,2
 669 926 669 926 697 937 c 0,3,4
 706 940 706 940 715 940 c 2,5,-1
 811 940 l 2,6,7
 854 940 854 940 874 905 c 0,8,9
 877 899 877 899 879 894 c 2,10,-1
 991 580 l 2,11,12
 1006 536 1006 536 977 497 c 0,13,14
 975 495 975 495 975 494 c 2,15,-1
 719 200 l 1,16,17
 684 163 684 163 637 162 c 2,18,-1
 541 162 l 2,19,20
 510 162 510 162 508 184 c 1,21,22
 507 198 507 198 519 214 c 2,23,-1
 787 566 l 1,0,-1
411 566 m 1,24,-1
 305 892 l 1,25,26
 293 926 293 926 321 937 c 0,27,28
 330 940 330 940 339 940 c 2,29,-1
 435 940 l 2,30,31
 478 940 478 940 498 905 c 0,32,33
 501 899 501 899 503 894 c 2,34,-1
 615 580 l 2,35,36
 630 536 630 536 601 497 c 0,37,38
 599 495 599 495 599 494 c 2,39,-1
 343 200 l 1,40,41
 308 163 308 163 261 162 c 2,42,-1
 165 162 l 2,43,44
 134 162 134 162 132 184 c 1,45,46
 131 198 131 198 143 214 c 2,47,-1
 411 566 l 1,24,-1
EndSplineSet
Validated: 19489
Colour: ffffff
EndChar

StartChar: guilsinglleft
Encoding: 8249 8249 132
Width: 572
VWidth: 0
Flags: W
VStem: 273 483
DStem2: 477 536 273 522 0.309218 -0.950991<0 295.042> 286.554 604.854 477 536 0.605771 0.795639<60.5837 448.103>
LayerCount: 2
Back
SplineSet
392 536 m 1
 498 210 l 2
 508 182 494 162 464 162 c 2
 368 162 l 2
 338 162 310 180 300 208 c 2
 188 522 l 2
 178 552 186 586 204 608 c 2
 460 902 l 2
 480 924 512 940 542 940 c 2
 638 940 l 2
 668 940 684 918 660 888 c 2
 392 536 l 1
EndSplineSet
Fore
SplineSet
477 536 m 1,0,-1
 583 210 l 1,1,2
 595 176 595 176 567 165 c 0,3,4
 558 162 558 162 549 162 c 2,5,-1
 453 162 l 2,6,7
 410 162 410 162 390 197 c 0,8,9
 387 203 387 203 385 208 c 2,10,-1
 273 522 l 2,11,12
 258 566 258 566 287 605 c 0,13,14
 289 607 289 607 289 608 c 2,15,-1
 545 902 l 1,16,17
 580 939 580 939 627 940 c 2,18,-1
 723 940 l 2,19,20
 754 940 754 940 756 918 c 1,21,22
 757 904 757 904 745 888 c 2,23,-1
 477 536 l 1,0,-1
EndSplineSet
Validated: 19489
Colour: ffffff
EndChar

StartChar: guilsinglright
Encoding: 8250 8250 133
Width: 572
VWidth: 0
Flags: W
VStem: 132 483
DStem2: 615 580 411 566 0.309218 -0.950991<-344.808 -49.7666> 411 566 601.446 497.146 0.605771 0.795639<-387.519 -332.396 -332.396 0>
LayerCount: 2
Back
SplineSet
326 566 m 1
 220 892 l 2
 210 920 224 940 254 940 c 2
 350 940 l 2
 380 940 408 922 418 894 c 2
 530 580 l 2
 540 550 532 516 514 494 c 2
 258 200 l 2
 238 178 206 162 176 162 c 2
 80 162 l 2
 50 162 34 184 58 214 c 2
 326 566 l 1
EndSplineSet
Fore
SplineSet
411 566 m 1,0,-1
 305 892 l 1,1,2
 293 926 293 926 321 937 c 0,3,4
 330 940 330 940 339 940 c 2,5,-1
 435 940 l 2,6,7
 478 940 478 940 498 905 c 0,8,9
 501 899 501 899 503 894 c 2,10,-1
 615 580 l 2,11,12
 630 536 630 536 601 497 c 0,13,14
 599 495 599 495 599 494 c 2,15,-1
 343 200 l 1,16,17
 308 163 308 163 261 162 c 2,18,-1
 165 162 l 2,19,20
 134 162 134 162 132 184 c 1,21,22
 131 198 131 198 143 214 c 2,23,-1
 411 566 l 1,0,-1
EndSplineSet
Validated: 19489
Colour: ffffff
EndChar

StartChar: h
Encoding: 104 104 134
Width: 920
VWidth: 0
Flags: MW
HStem: 0 21G<104.588 288.952> 660 422<649.059 795.059> 1498 20G<455.166 671.588>
DStem2: 59.0586 64 325.059 44 0.247004 0.969015<-10.1287 310.782 845.969 1511.83> 493.329 39.8115 729.059 28 0.254802 0.966993<8.1819 616.774>
LayerCount: 2
Back
SplineSet
148 0 m 1
 172 0 190 12 210 38 c 1
 260 114 444 496 532 626 c 0
 544 642 552 660 564 660 c 0
 582 660 572 638 562 600 c 0
 536 492 424 90 406 32 c 0
 400 12 422 0 432 0 c 2
 594 -2 l 2
 620 -2 638 8 644 28 c 2
 888 954 l 2
 916 1060 850 1082 804 1082 c 2
 710 1082 l 2
 646 1082 604 1050 560 990 c 2
 354 702 l 1
 148 0 l 1
604 1472 m 2
 612 1504 594 1518 560 1518 c 2
 394 1518 l 2
 364 1518 342 1504 334 1474 c 2
 -26 64 l 2
 -34 30 -20 0 26 0 c 2
 180 0 l 2
 210 0 232 14 240 44 c 2
 604 1472 l 2
EndSplineSet
Fore
SplineSet
689 1472 m 1,0,1
 522 819 l 1,2,-1
 645 990 l 2,3,4
 652 1000 652 1000 663 1014 c 0,5,6
 721 1082 721 1082 795 1082 c 2,7,-1
 889 1082 l 2,8,9
 906 1082 906 1082 922 1078 c 0,10,11
 1000 1057 1000 1057 973 954 c 2,12,-1
 729 28 l 1,13,14
 720 0 720 0 679 0 c 2,15,-1
 517 0 l 2,16,17
 509 0 509 0 497 10 c 0,18,19
 487 18 487 18 493 40 c 0,20,21
 599 406 599 406 647 600 c 0,22,23
 662 660 662 660 656 634 c 1,24,25
 663 660 663 660 649 660 c 3,26,27
 638 660 638 660 617 626 c 0,28,29
 533 487 533 487 417 264 c 0,30,31
 368 169 368 169 347 130 c 1,32,-1
 325 44 l 1,33,34
 313 1 313 1 265 0 c 1,35,-1
 233 0 l 1,36,-1
 111 0 l 2,37,38
 99 0 99 0 87 3 c 0,39,40
 47 16 47 16 59 64 c 2,41,-1
 419 1474 l 1,42,43
 431 1517 431 1517 479 1518 c 1,44,-1
 645 1518 l 2,45,46
 698 1518 698 1518 689 1472 c 1,0,1
EndSplineSet
Validated: 19489
Colour: ffffff
EndChar

StartChar: hungarumlaut
Encoding: 733 733 135
Width: 932
VWidth: 0
Flags: W
HStem: 1150 298<238.531 284.25 395.436 403 439 449.474 533.594 561.5>
LayerCount: 2
Back
SplineSet
650 1448 m 2
 518 1448 l 2
 490 1448 472 1438 456 1414 c 2
 298 1184 l 2
 288 1168 290 1150 318 1150 c 2
 396 1150 l 2
 424 1150 444 1158 464 1178 c 2
 664 1398 l 1
 694 1428 676 1448 650 1448 c 2
354 1448 m 2
 222 1448 l 2
 194 1448 176 1438 160 1414 c 2
 22 1184 l 2
 12 1168 14 1150 42 1150 c 2
 120 1150 l 2
 148 1150 168 1158 188 1178 c 1
 368 1398 l 2
 396 1430 380 1448 354 1448 c 2
EndSplineSet
Fore
SplineSet
439 1448 m 2,0,1
 449 1448 449 1448 458 1444 c 0,2,3
 482 1431 482 1431 453 1398 c 1,4,-1
 273 1178 l 1,5,6
 245 1151 245 1151 205 1150 c 2,7,-1
 127 1150 l 2,8,9
 119 1150 119 1150 113 1152 c 0,10,11
 92 1160 92 1160 107 1184 c 2,12,-1
 245 1414 l 1,13,14
 267 1447 267 1447 307 1448 c 1,15,-1
 439 1448 l 2,0,1
735 1448 m 2,16,17
 747 1448 747 1448 756 1442 c 0,18,19
 778 1427 778 1427 749 1398 c 1,20,-1
 549 1178 l 1,21,22
 521 1151 521 1151 481 1150 c 2,23,-1
 403 1150 l 2,24,25
 395 1150 395 1150 389 1152 c 0,26,27
 368 1160 368 1160 383 1184 c 1,28,-1
 541 1414 l 2,29,30
 563 1447 563 1447 603 1448 c 1,31,-1
 735 1448 l 2,16,17
EndSplineSet
Validated: 19457
Colour: ffffff
EndChar

StartChar: hyphen
Encoding: 45 45 136
Width: 936
VWidth: 0
Flags: W
HStem: 524 238<231 894.062>
LayerCount: 2
Back
SplineSet
172 762 m 2
 154 762 148 758 140 722 c 2
 108 596 l 2
 94 544 106 524 146 524 c 2
 746 524 l 2
 776 524 808 550 814 580 c 2
 840 698 l 2
 850 742 832 762 794 762 c 2
 172 762 l 2
EndSplineSet
Fore
SplineSet
257 762 m 2,0,1
 879 762 l 2,2,3
 938 761 938 761 925 698 c 1,4,-1
 899 580 l 2,5,6
 896 568 896 568 888 556 c 0,7,8
 865 524 865 524 831 524 c 2,9,-1
 231 524 l 2,10,11
 223 524 223 524 216 525 c 0,12,13
 176 532 176 532 193 596 c 2,14,-1
 225 722 l 2,15,16
 228 737 228 737 232 747 c 0,17,18
 238 762 238 762 257 762 c 2,0,1
EndSplineSet
Validated: 19489
Colour: ffffff
EndChar

StartChar: i
Encoding: 105 105 137
Width: 494
VWidth: 0
Flags: MW
HStem: 0 21G<72.4714 284.893> 1060 20G<351.107 563.529> 1210 278<403.394 632.792>
VStem: 365 310<1248.84 1445.86>
DStem2: 55 46 321 44 0.254012 0.967201<8.71376 1080.49>
LayerCount: 2
Back
SplineSet
280 1348 m 0
 280 1276 342 1210 412 1210 c 2
 438 1210 l 2
 524 1210 590 1270 590 1348 c 0
 590 1420 520 1488 456 1488 c 2
 428 1488 l 2
 342 1488 280 1424 280 1348 c 0
496 1034 m 2
 504 1066 486 1080 452 1080 c 2
 290 1080 l 2
 260 1080 238 1066 230 1036 c 2
 -30 46 l 2
 -38 14 -20 0 14 0 c 2
 176 0 l 2
 206 0 228 14 236 44 c 2
 496 1034 l 2
EndSplineSet
Fore
SplineSet
375 1080 m 1,0,-1
 537 1080 l 2,1,2
 590 1079 590 1079 581 1034 c 1,3,-1
 321 44 l 1,4,5
 309 1 309 1 261 0 c 1,6,-1
 99 0 l 2,7,8
 46 1 46 1 55 46 c 1,9,-1
 315 1036 l 1,10,11
 327 1079 327 1079 375 1080 c 1,0,-1
365 1348 m 0,12,13
 365 1392 365 1392 390 1428 c 0,14,15
 433 1488 433 1488 513 1488 c 2,16,-1
 541 1488 l 2,17,18
 583 1488 583 1488 622 1455 c 0,19,20
 675 1409 675 1409 675 1348 c 0,21,22
 675 1304 675 1304 648 1268 c 0,23,24
 604 1210 604 1210 523 1210 c 2,25,-1
 497 1210 l 2,26,27
 454 1210 454 1210 417 1241 c 0,28,29
 365 1284 365 1284 365 1348 c 0,12,13
EndSplineSet
Validated: 19457
Colour: ffffff
EndChar

StartChar: j
Encoding: 106 106 142
Width: 540
VWidth: 0
Flags: MW
HStem: 1060 20G<368.114 560.104> 1210 278<433.394 662.792>
VStem: 395 310<1248.84 1445.86>
DStem2: 81 82 339 44 0.254012 0.967201<-179.135 1043.04>
LayerCount: 2
Back
SplineSet
306 1080 m 2
 278 1080 256 1066 248 1036 c 2
 -4 82 l 2
 -38 -48 -142 -150 -236 -186 c 0
 -266 -198 -268 -230 -252 -252 c 2
 -188 -350 l 2
 -176 -366 -154 -374 -126 -366 c 0
 -32 -338 182 -228 254 44 c 2
 514 1034 l 2
 520 1060 504 1080 470 1080 c 2
 306 1080 l 2
310 1348 m 0
 310 1276 372 1210 442 1210 c 2
 468 1210 l 2
 554 1210 620 1270 620 1348 c 0
 620 1420 550 1488 486 1488 c 2
 458 1488 l 2
 372 1488 310 1424 310 1348 c 0
EndSplineSet
Fore
SplineSet
395 1348 m 0,0,1
 395 1392 395 1392 420 1428 c 0,2,3
 463 1488 463 1488 543 1488 c 2,4,-1
 571 1488 l 2,5,6
 613 1488 613 1488 652 1455 c 0,7,8
 705 1409 705 1409 705 1348 c 0,9,10
 705 1304 705 1304 678 1268 c 0,11,12
 634 1210 634 1210 553 1210 c 2,13,-1
 527 1210 l 2,14,15
 484 1210 484 1210 447 1241 c 0,16,17
 395 1284 395 1284 395 1348 c 0,0,1
-103 -350 m 2,18,-1
 -167 -252 l 2,19,20
 -176 -238 -176 -238 -176 -222 c 0,21,22
 -176 -196 -176 -196 -151 -186 c 0,23,24
 -102 -166 -102 -166 -57 -130 c 0,25,26
 48 -44 48 -44 81 82 c 2,27,-1
 333 1036 l 2,28,29
 345 1080 345 1080 385 1080 c 2,30,-1
 555 1080 l 2,31,32
 577 1080 577 1080 587 1072 c 0,33,34
 606 1059 606 1059 599 1034 c 2,35,-1
 339 44 l 2,36,37
 296 -122 296 -122 173 -238 c 0,38,39
 73 -332 73 -332 -41 -366 c 1,40,41
 -87 -375 -87 -375 -103 -350 c 2,18,-1
EndSplineSet
Validated: 19489
Colour: ffffff
EndChar

StartChar: k
Encoding: 107 107 143
Width: 893
VWidth: 0
Flags: MW
HStem: 0 21G<104.717 289.081 602.633 794.821> 1060 20G<789.719 1030.49> 1498 20G<455.294 671.716>
DStem2: 59.1875 64 325.188 44 0.247004 0.969015<-10.3141 438.508 770.785 1511.9> 644.188 568 422.188 424 0.308917 -0.951089<68.3773 528.169> 504.188 746 644.188 568 0.660203 0.751088<0 482.553>
LayerCount: 2
Back
SplineSet
308 524 m 1
 446 50 l 1
 460 16 480 0 520 0 c 2
 678 0 l 2
 722 0 736 22 724 60 c 2
 526 668 l 1
 532 538 l 1
 944 1006 l 2
 976 1040 978 1080 934 1080 c 2
 724 1080 l 2
 684 1080 676 1070 664 1054 c 2
 338 644 l 1
 308 524 l 1
604 1472 m 2
 612 1504 594 1518 560 1518 c 2
 394 1518 l 2
 364 1518 342 1504 334 1474 c 2
 -26 64 l 2
 -34 30 -20 0 26 0 c 2
 180 0 l 2
 210 0 232 14 240 44 c 2
 604 1472 l 2
EndSplineSet
Fore
SplineSet
504 746 m 1,0,-1
 749 1054 l 2,1,2
 770 1080 770 1080 809 1080 c 2,3,-1
 1019 1080 l 2,4,5
 1041 1080 1041 1080 1050 1065 c 1,6,7
 1061 1042 1061 1042 1029 1006 c 2,8,-1
 644 568 l 1,9,-1
 809 60 l 2,10,11
 828 0 828 0 763 0 c 2,12,-1
 605 0 l 2,13,14
 576 0 576 0 559 11 c 0,15,16
 539 24 539 24 531 50 c 2,17,-1
 422 424 l 1,18,-1
 325 44 l 2,19,20
 314 0 314 0 265 0 c 2,21,-1
 111 0 l 2,22,23
 85 0 85 0 71 12 c 0,24,25
 50 30 50 30 59 64 c 2,26,-1
 419 1474 l 2,27,28
 430 1518 430 1518 479 1518 c 2,29,-1
 645 1518 l 2,30,31
 701 1518 701 1518 689 1472 c 2,32,-1
 504 746 l 1,0,-1
EndSplineSet
Validated: 19489
Colour: ffffff
EndChar

StartChar: l
Encoding: 108 108 144
Width: 531
VWidth: 0
Flags: MW
HStem: 0 21G<104.409 288.773> 1498 20G<454.987 671.409>
VStem: 59 630
DStem2: 58.8804 64 324.88 44 0.247004 0.969015<-9.63146 1511.83>
LayerCount: 2
Back
SplineSet
604 1472 m 2
 612 1504 594 1518 560 1518 c 2
 394 1518 l 2
 364 1518 342 1504 334 1474 c 2
 -26 64 l 2
 -34 30 -20 0 26 0 c 2
 180 0 l 2
 210 0 232 14 240 44 c 2
 604 1472 l 2
EndSplineSet
Fore
SplineSet
479 1518 m 1,0,-1
 645 1518 l 2,1,2
 701 1517 701 1517 689 1472 c 2,3,-1
 325 44 l 1,4,5
 312 0 312 0 265 0 c 2,6,-1
 111 0 l 2,7,8
 89 0 89 0 75 10 c 0,9,10
 50 29 50 29 59 64 c 2,11,-1
 419 1474 l 2,12,13
 431 1517 431 1517 479 1518 c 1,0,-1
EndSplineSet
Validated: 19457
Colour: ffffff
EndChar

StartChar: less
Encoding: 60 60 145
Width: 1004
VWidth: 0
Flags: W
LayerCount: 2
Back
SplineSet
260 590 m 1
 876 776 l 2
 908 786 936 816 944 848 c 2
 968 960 l 2
 978 998 968 1032 914 1014 c 2
 114 740 l 2
 80 730 52 700 46 668 c 2
 26 574 l 2
 18 542 34 510 66 496 c 2
 742 212 l 2
 780 196 796 202 804 244 c 2
 830 360 l 2
 836 392 824 424 792 434 c 2
 268 628 l 1
 260 590 l 1
EndSplineSet
Fore
SplineSet
406 608 m 1,0,-1
 877 434 l 2,1,2
 884 432 884 432 891 427 c 0,3,4
 924 406 924 406 915 360 c 1,5,-1
 889 244 l 2,6,7
 886 229 886 229 881 218 c 0,8,9
 868 194 868 194 827 212 c 2,10,-1
 151 496 l 2,11,12
 143 500 143 500 135 505 c 0,13,14
 100 532 100 532 111 574 c 1,15,-1
 131 668 l 2,16,17
 133 677 133 677 137 686 c 0,18,19
 156 727 156 727 199 740 c 1,20,-1
 999 1014 l 2,21,22
 1020 1021 1020 1021 1034 1018 c 0,23,24
 1066 1011 1066 1011 1053 960 c 1,25,-1
 1029 848 l 2,26,27
 1027 840 1027 840 1023 831 c 0,28,29
 1003 789 1003 789 961 776 c 2,30,-1
 406 608 l 1,0,-1
EndSplineSet
Validated: 3105
Colour: ffffff
EndChar

StartChar: logicalnot
Encoding: 172 172 146
Width: 1804
VWidth: 0
Flags: W
HStem: 754 238<377.041 1325>
DStem2: 1229 394 1483 392 0.246999 0.969016<4.20114 372.558>
LayerCount: 2
Back
SplineSet
1404 754 m 1
 1292 950 l 1
 1144 394 l 2
 1136 362 1154 348 1188 348 c 2
 1338 348 l 2
 1368 348 1390 362 1398 392 c 2
 1534 906 l 2
 1548 958 1536 992 1478 992 c 2
 348 992 l 2
 308 992 288 988 274 936 c 2
 246 826 l 2
 232 774 244 754 284 754 c 2
 1404 754 l 1
EndSplineSet
Fore
SplineSet
1325 754 m 1,0,-1
 369 754 l 2,1,2
 361 754 361 754 354 755 c 0,3,4
 314 762 314 762 331 826 c 2,5,-1
 359 936 l 2,6,7
 366 961 366 961 377 975 c 0,8,9
 391 992 391 992 433 992 c 2,10,11
 1563 992 l 1,12,13
 1640 991 1640 991 1619 906 c 1,14,-1
 1483 392 l 2,15,16
 1471 349 1471 349 1423 348 c 1,17,-1
 1273 348 l 2,18,19
 1220 349 1220 349 1229 394 c 1,20,-1
 1325 754 l 1,0,-1
EndSplineSet
Validated: 19489
Colour: ffffff
EndChar

StartChar: m
Encoding: 109 109 147
Width: 1318
VWidth: 0
Flags: MW
HStem: 0 21G<85.0018 227.802> 656 424<625.142 773.142> 1060 20G<353.879 515.124 736.215 879.707 1181.56 1296.56>
DStem2: 57.1417 52 273.142 38 0.276534 0.961004<46.2773 249.336 820.56 1081.79> 909.142 114 1129.15 28 0.254493 0.967075<-67.5712 561.393>
LayerCount: 2
Back
SplineSet
626 28 m 1
 676 104 802 388 900 562 c 0
 928 610 950 656 970 656 c 0
 988 656 954 558 940 504 c 0
 886 298 810 80 806 32 c 0
 804 12 822 0 832 0 c 2
 994 -2 l 2
 1020 -2 1038 8 1044 28 c 2
 1284 940 l 2
 1314 1054 1260 1082 1206 1082 c 2
 1132 1082 l 2
 1074 1082 1028 1062 970 982 c 1
 736 682 l 1
 626 28 l 1
318 682 m 1
 346 648 l 1
 470 1018 l 1
 482 1064 470 1080 420 1080 c 2
 292 1080 l 2
 258 1080 240 1058 232 1024 c 2
 -28 52 l 2
 -36 22 -18 0 4 0 c 2
 126 0 l 2
 150 0 168 12 188 38 c 0
 240 112 370 400 474 570 c 0
 502 616 520 656 540 656 c 0
 566 656 534 560 518 504 c 0
 482 376 406 90 394 48 c 0
 382 12 404 0 414 0 c 2
 576 -2 l 2
 602 -2 616 8 626 28 c 1
 870 952 l 2
 898 1058 832 1080 786 1080 c 2
 688 1080 l 2
 624 1080 582 1048 538 988 c 2
 318 682 l 1
EndSplineSet
Fore
SplineSet
477 785 m 1,0,-1
 623 988 l 2,1,2
 630 998 630 998 641 1012 c 0,3,4
 699 1080 699 1080 773 1080 c 2,5,-1
 871 1080 l 2,6,7
 888 1080 888 1080 904 1076 c 0,8,9
 982 1055 982 1055 955 952 c 2,10,-1
 916 804 l 1,11,-1
 1055 982 l 1,12,13
 1074 1008 1074 1008 1092 1027 c 0,14,15
 1146 1082 1146 1082 1217 1082 c 2,16,-1
 1291 1082 l 2,17,18
 1301 1082 1301 1082 1312 1080 c 0,19,20
 1402 1065 1402 1065 1369 940 c 2,21,-1
 1129 28 l 2,22,23
 1122 0 1122 0 1079 0 c 2,24,-1
 931 0 l 2,25,26
 907 0 907 0 897 11 c 0,27,28
 891 16 891 16 891 32 c 0,29,30
 891 53 891 53 909 114 c 2,31,32
 1025 504 l 2,33,34
 1032 528 1032 528 1037 548 c 0,35,36
 1069 656 1069 656 1055 656 c 3,37,38
 1046 656 1046 656 1034 643 c 0,39,40
 1026 634 1026 634 985 562 c 1,41,42
 939 480 939 480 857 314 c 0,43,44
 734 63 734 63 711 28 c 1,45,46
 697 0 697 0 661 0 c 2,47,-1
 499 0 l 2,48,49
 490 0 490 0 479 10 c 0,50,51
 471 18 471 18 479 48 c 2,52,-1
 603 504 l 2,53,54
 613 537 l 0,55,56
 647 656 647 656 625 656 c 0,57,58
 615 656 615 656 601 638 c 0,59,60
 600 637 600 637 559 570 c 0,61,62
 507 484 507 484 413 300 c 0,63,64
 297 72 297 72 273 38 c 1,65,66
 243 0 243 0 211 0 c 2,67,-1
 89 0 l 2,68,69
 72 0 72 0 62 15 c 0,70,71
 52 32 52 32 57 52 c 2,72,-1
 317 1024 l 1,73,74
 330 1078 330 1078 377 1080 c 1,75,-1
 505 1080 l 2,76,77
 525 1080 525 1080 538 1076 c 0,78,79
 568 1066 568 1066 555 1018 c 1,80,-1
 477 785 l 1,0,-1
EndSplineSet
Validated: 8408097
Colour: ffffff
EndChar

StartChar: m.alt1
Encoding: 65538 -1 148
Width: 1174
VWidth: 0
Flags: W
HStem: 0 21G<84.8601 227.66 459 641.239 777 959.239> 1062 20G<353.737 514.982 736.073 839.565 1081.41 1156.41>
DStem2: 468.874 173.045 671 28 0.246999 0.969016<-132.641 87.9554> 781.339 147.067 989 28 0.246999 0.969016<-106.101 328.827>
LayerCount: 2
Back
SplineSet
564 38 m 1
 614 114 686 312 746 432 c 0
 754 450 764 466 776 466 c 0
 794 466 784 444 774 406 c 0
 748 298 670 80 666 32 c 0
 664 12 682 0 692 0 c 2
 854 -2 l 2
 880 -2 898 8 904 28 c 2
 1144 940 l 2
 1174 1054 1120 1082 1066 1082 c 2
 1032 1082 l 2
 974 1082 928 1062 870 982 c 2
 656 682 l 1
 564 38 l 1
318 682 m 1
 346 648 l 1
 470 1020 l 1
 482 1066 470 1082 420 1082 c 2
 292 1082 l 2
 258 1082 240 1060 232 1026 c 2
 -28 52 l 2
 -36 22 -18 0 4 0 c 2
 126 0 l 2
 150 0 168 12 188 38 c 1
 238 114 354 378 442 508 c 0
 454 524 462 542 474 542 c 0
 492 542 482 520 472 482 c 0
 446 374 352 80 348 32 c 0
 346 12 364 0 374 0 c 2
 536 -2 l 2
 562 -2 580 8 586 28 c 2
 830 954 l 2
 858 1060 792 1082 746 1082 c 2
 688 1082 l 2
 624 1082 582 1050 538 990 c 2
 318 682 l 1
EndSplineSet
Fore
SplineSet
477 785 m 1,0,-1
 623 990 l 2,1,2
 641 1014 l 0,3,4
 699 1082 699 1082 773 1082 c 2,5,-1
 831 1082 l 2,6,7
 848 1082 848 1082 864 1078 c 0,8,9
 942 1057 942 1057 915 954 c 2,10,-1
 903 909 l 1,11,-1
 955 982 l 2,12,13
 974 1008 974 1008 992 1027 c 0,14,15
 1046 1082 1046 1082 1117 1082 c 2,16,-1
 1151 1082 l 2,17,18
 1162 1082 1162 1082 1172 1080 c 0,19,20
 1262 1065 1262 1065 1229 940 c 2,21,-1
 989 28 l 1,22,23
 979 -1 979 -1 939 -2 c 1,24,-1
 777 0 l 2,25,26
 774 0 774 0 770 2 c 0,27,28
 749 11 749 11 751 32 c 0,29,30
 753 55 753 55 781 147 c 0,31,32
 851 375 851 375 859 406 c 0,33,34
 861 412 861 412 864 424 c 0,35,36
 867 435 867 435 868 440 c 0,37,38
 875 466 875 466 861 466 c 1,39,40
 847 465 847 465 831 432 c 0,41,42
 806 382 806 382 752 255 c 0,43,44
 716 170 716 170 699 133 c 1,45,-1
 671 28 l 1,46,47
 661 -1 661 -1 621 -2 c 1,48,-1
 459 0 l 2,49,50
 456 0 456 0 452 2 c 0,51,52
 431 11 431 11 433 32 c 0,53,54
 435 56 435 56 469 173 c 0,55,56
 553 465 553 465 557 482 c 0,57,58
 559 488 559 488 562 500 c 0,59,60
 565 511 565 511 566 516 c 0,61,62
 573 542 573 542 559 542 c 0,63,64
 551 541 551 541 535 520 c 0,65,66
 530 512 530 512 527 508 c 0,67,68
 479 437 479 437 392 266 c 0,69,70
 291 66 291 66 273 38 c 1,71,72
 244 1 244 1 211 0 c 1,73,-1
 89 0 l 2,74,75
 81 0 81 0 73 5 c 0,76,77
 49 19 49 19 57 52 c 2,78,-1
 317 1026 l 2,79,80
 330 1080 330 1080 377 1082 c 1,81,-1
 505 1082 l 2,82,83
 525 1082 525 1082 538 1078 c 0,84,85
 568 1068 568 1068 555 1020 c 1,86,-1
 477 785 l 1,0,-1
EndSplineSet
Validated: 19489
Colour: ffffff
EndChar

StartChar: macron
Encoding: 175 175 149
Width: 796
VWidth: 0
Flags: W
HStem: 1526 192<209 933.572>
LayerCount: 2
Back
SplineSet
160 1718 m 2
 142 1718 136 1714 130 1694 c 2
 98 1582 l 2
 88 1544 74 1526 122 1526 c 2
 810 1526 l 2
 836 1526 844 1556 852 1582 c 2
 880 1674 l 1
 894 1710 876 1718 862 1718 c 2
 160 1718 l 2
EndSplineSet
Fore
SplineSet
245 1718 m 2,0,1
 947 1718 l 1,2,3
 978 1715 978 1715 965 1674 c 2,4,-1
 937 1582 l 2,5,6
 934 1572 934 1572 933 1568 c 0,7,8
 919 1526 919 1526 895 1526 c 2,9,-1
 207 1526 l 2,10,11
 176 1526 176 1526 173 1541 c 0,12,13
 173 1544 173 1544 183 1582 c 2,14,-1
 215 1694 l 2,15,16
 216 1698 216 1698 218 1703 c 0,17,18
 225 1718 225 1718 245 1718 c 2,0,1
EndSplineSet
Validated: 19457
Colour: ffffff
EndChar

StartChar: minus
Encoding: 8722 8722 150
Width: 982
VWidth: 0
Flags: W
HStem: 524 238<195 988.062>
LayerCount: 2
Back
SplineSet
840 524 m 2
 870 524 902 550 908 580 c 2
 934 698 l 2
 944 742 926 762 888 762 c 2
 164 762 l 2
 126 762 108 748 98 704 c 2
 72 596 l 2
 58 544 70 524 110 524 c 2
 840 524 l 2
EndSplineSet
Fore
SplineSet
925 524 m 2,0,1
 195 524 l 2,2,3
 187 524 187 524 180 525 c 0,4,5
 140 532 140 532 157 596 c 1,6,-1
 183 704 l 2,7,8
 186 717 186 717 191 728 c 0,9,10
 206 762 206 762 249 762 c 2,11,-1
 973 762 l 2,12,13
 1032 761 1032 761 1019 698 c 1,14,-1
 993 580 l 2,15,16
 990 568 990 568 982 556 c 0,17,18
 960 524 960 524 925 524 c 2,0,1
EndSplineSet
Validated: 19489
Colour: ffffff
EndChar

StartChar: mu
Encoding: 181 181 151
Width: 822
VWidth: 0
Flags: W
HStem: -400 21G<-33.471 130.894> 0 21G<480.546 658.499> 1060 20G<309.107 546.521 778.854 927.14>
DStem2: 473 72 695 54 0.246999 0.969016<-28.6704 223.603 717.39 1045.67>
LayerCount: 2
Back
SplineSet
248 1080 m 2
 218 1080 196 1066 188 1036 c 2
 -164 -336 l 2
 -172 -370 -158 -400 -112 -400 c 2
 22 -400 l 2
 52 -400 74 -386 82 -356 c 2
 146 -102 l 2
 158 -56 160 -30 160 -2 c 1
 174 -2 l 2
 238 -2 290 28 356 132 c 2
 524 398 l 1
 492 432 l 1
 388 72 l 2
 374 28 384 0 426 0 c 2
 550 0 l 2
 584 0 602 20 610 54 c 2
 870 1028 l 2
 878 1058 860 1080 838 1080 c 2
 716 1080 l 2
 692 1080 668 1072 650 1034 c 0
 598 920 450 640 378 506 c 0
 314 388 288 412 310 504 c 0
 342 630 432 916 464 1022 c 0
 478 1066 464 1080 442 1080 c 2
 248 1080 l 2
EndSplineSet
Fore
SplineSet
333 1080 m 1,0,1
 527 1080 l 2,2,3
 566 1079 566 1079 549 1022 c 0,4,5
 547 1016 547 1016 545 1008 c 0,6,7
 413 574 413 574 395 504 c 1,8,9
 377 431 377 431 397 426 c 128,-1,10
 417 421 417 421 463 506 c 0,11,12
 669 889 669 889 735 1034 c 1,13,14
 757 1078 757 1078 801 1080 c 1,15,-1
 923 1080 l 2,16,17
 931 1080 931 1080 939 1075 c 0,18,19
 963 1061 963 1061 955 1028 c 2,20,-1
 695 54 l 2,21,22
 682 2 682 2 635 0 c 1,23,-1
 511 0 l 2,24,25
 450 0 450 0 473 72 c 1,26,-1
 532 276 l 1,27,-1
 441 132 l 2,28,29
 417 95 417 95 394 68 c 0,30,31
 334 -2 334 -2 259 -2 c 2,32,-1
 245 -2 l 1,33,34
 245 -48 245 -48 231 -102 c 2,35,-1
 167 -356 l 1,36,37
 155 -399 155 -399 107 -400 c 1,38,-1
 -27 -400 l 2,39,40
 -40 -400 -40 -400 -51 -397 c 0,41,42
 -90 -384 -90 -384 -79 -336 c 2,43,-1
 273 1036 l 1,44,45
 285 1079 285 1079 333 1080 c 1,0,1
EndSplineSet
Validated: 19489
Colour: ffffff
EndChar

StartChar: multiply
Encoding: 215 215 152
Width: 934
VWidth: 0
Flags: W
LayerCount: 2
Back
SplineSet
556 652 m 1
 402 1186 l 2
 388 1236 354 1262 320 1238 c 1
 200 1178 l 1
 162 1150 140 1146 164 1072 c 2
 348 484 l 1
 362 748 l 1
 -24 198 l 2
 -54 152 -44 138 -6 116 c 1
 134 26 l 2
 170 4 188 34 202 50 c 1
 522 576 l 1
 556 652 l 1
360 614 m 1
 494 62 l 2
 506 10 540 -12 594 18 c 2
 708 82 l 2
 748 104 764 118 750 158 c 2
 550 782 l 1
 568 558 l 1
 958 1062 l 2
 986 1100 988 1118 942 1146 c 2
 812 1222 l 2
 776 1244 756 1214 744 1196 c 2
 418 706 l 1
 360 614 l 1
EndSplineSet
Fore
SplineSet
691 607 m 1,0,-1
 835 158 l 2,1,2
 842 137 842 137 839 123 c 0,3,4
 834 104 834 104 793 82 c 2,5,-1
 679 18 l 2,6,7
 664 10 664 10 650 6 c 0,8,9
 594 -7 594 -7 579 62 c 2,10,-1
 498 397 l 1,11,-1
 287 50 l 1,12,-1
 280 42 l 2,13,14
 273 34 273 34 271 32 c 128,-1,15
 269 30 269 30 261.5 24.5 c 128,-1,16
 254 19 254 19 249 18.5 c 128,-1,17
 244 18 244 18 236 19.5 c 128,-1,18
 228 21 228 21 219 26 c 2,19,-1
 79 116 l 2,20,21
 60 127 60 127 51 137 c 0,22,23
 34 157 34 157 61 198 c 1,24,-1
 380 653 l 1,25,-1
 249 1072 l 2,26,27
 232 1126 232 1126 248 1148 c 0,28,29
 252 1153 252 1153 285 1178 c 1,30,-1
 405 1238 l 1,31,32
 421 1249 421 1249 438 1246 c 0,33,34
 472 1239 472 1239 487 1186 c 2,35,-1
 588 834 l 1,36,-1
 829 1196 l 2,37,38
 830 1197 830 1197 831 1199 c 0,39,40
 861 1244 861 1244 897 1222 c 2,41,-1
 1027 1146 l 2,42,43
 1050 1132 1050 1132 1059 1118 c 0,44,45
 1070 1099 1070 1099 1043 1062 c 1,46,-1
 691 607 l 1,0,-1
EndSplineSet
Validated: 3105
Colour: ffffff
EndChar

StartChar: n
Encoding: 110 110 153
Width: 902
VWidth: 0
Flags: MW
HStem: 0 21G<84.9246 227.724> 1060 20G<353.801 515.046 736.137 879.629>
DStem2: 57.0645 52 273.064 38 0.276534 0.961004<46.2773 249.336 820.56 1081.79> 479.064 48 715.064 42 0.255016 0.966937<-0.617616 625.278>
LayerCount: 2
Back
SplineSet
318 682 m 1
 346 648 l 1
 470 1018 l 1
 482 1064 470 1080 420 1080 c 2
 292 1080 l 2
 258 1080 240 1058 232 1024 c 2
 -28 52 l 2
 -36 22 -18 0 4 0 c 2
 126 0 l 2
 150 0 168 12 188 38 c 0
 240 112 370 400 474 570 c 0
 502 616 520 656 540 656 c 0
 566 656 534 560 518 504 c 0
 482 376 406 90 394 48 c 0
 382 12 404 0 414 0 c 2
 576 -2 l 2
 602 -2 620 8 626 28 c 2
 870 952 l 2
 898 1058 832 1080 786 1080 c 2
 688 1080 l 2
 624 1080 582 1048 538 988 c 2
 318 682 l 1
EndSplineSet
Fore
SplineSet
477 785 m 1,0,-1
 623 988 l 2,1,2
 630 998 630 998 641 1012 c 0,3,4
 699 1080 699 1080 773 1080 c 2,5,-1
 871 1080 l 2,6,7
 888 1080 888 1080 904 1076 c 0,8,9
 982 1055 982 1055 955 952 c 2,10,-1
 715 42 l 2,11,12
 704 1 704 1 661 0 c 1,13,-1
 506 0 l 2,14,15
 489 0 489 0 481 9 c 0,16,17
 471 20 471 20 479 48 c 2,18,-1
 603 504 l 2,19,20
 603 505 603 505 613 537 c 0,21,22
 648 656 648 656 625 656 c 3,23,24
 615 656 615 656 601 638 c 0,25,26
 600 637 600 637 559 570 c 0,27,28
 507 484 507 484 413 300 c 0,29,30
 297 72 297 72 273 38 c 1,31,32
 244 1 244 1 211 0 c 1,33,-1
 89 0 l 2,34,35
 81 0 81 0 73 5 c 0,36,37
 49 19 49 19 57 52 c 2,38,-1
 317 1024 l 2,39,40
 332 1078 332 1078 377 1080 c 1,41,-1
 505 1080 l 2,42,43
 525 1080 525 1080 538 1076 c 0,44,45
 571 1065 571 1065 555 1018 c 2,46,-1
 477 785 l 1,0,-1
EndSplineSet
Validated: 19489
Colour: ffffff
EndChar

StartChar: nine
Encoding: 57 57 155
Width: 938
VWidth: 0
Flags: HW
HStem: -18 204<373.034 463.907> 460 178<413 612.715> 1188 194<615.999 734.439>
VStem: 97 276<187.256 329.312> 217 276<665.724 1010.51> 741 263<772.581 1186.56>
LayerCount: 2
Back
SplineSet
785 644 m 5
 703 692 l 5
 667 642 613 640 587 640 c 4
 527 640 489 716 493 806 c 4
 499 966 603 1188 693 1188 c 4
 747 1188 775 1070 665 646 c 4
 585 340 527 278 427 184 c 5
 367 64 l 5
 393 -26 l 5
 557 -20 767 126 907 526 c 4
 1117 1126 949 1382 709 1382 c 4
 405 1382 217 1052 217 782 c 4
 217 642 293 460 473 460 c 4
 579 460 659 478 741 526 c 5
 785 644 l 5
467 224 m 5
 449 190 417 176 401 176 c 4
 357 176 377 332 379 386 c 4
 379 412 353 430 317 412 c 6
 137 328 l 6
 113 316 97 288 97 258 c 4
 97 118 143 -32 341 -32 c 4
 393 -32 443 -20 487 0 c 5
 467 224 l 5
EndSplineSet
Fore
SplineSet
614 475 m 1,0,1
 550 460 550 460 473 460 c 0,2,3
 353 461 353 461 281 564 c 1,4,5
 217 657 217 657 217 782 c 0,6,7
 217 837 217 837 228 896 c 0,8,9
 262 1085 262 1085 378 1220 c 0,10,11
 517 1382 517 1382 709 1382 c 4,12,13
 742 1382 742 1382 774 1375 c 0,14,15
 913 1345 913 1345 970 1199 c 0,16,17
 1004 1112 1004 1112 1004 996 c 0,18,19
 1004 811 1004 811 907 526 c 0,20,21
 847 351 847 351 709 166 c 0,22,23
 574 -15 574 -15 352 -18 c 0,24,25
 258 -19 258 -19 188 30 c 0,26,27
 96 96 96 96 97 258 c 1,28,29
 97 309 97 309 137 328 c 2,30,-1
 317 412 l 2,31,32
 336 421 336 421 353 418 c 0,33,34
 380 413 380 413 379 386 c 0,35,36
 376 309 376 309 373 270 c 0,37,38
 367 186 367 186 402 186 c 0,39,40
 429 186 429 186 492 255 c 0,41,42
 573 344 573 344 614 475 c 1,0,1
669 660 m 1,43,44
 724 874 724 874 737 1006 c 0,45,46
 741 1047 741 1047 741 1078 c 0,47,48
 741 1188 741 1188 693 1188 c 0,49,50
 627 1187 627 1187 558 1056 c 0,51,52
 493 929 493 929 493 796 c 0,53,54
 493 711 493 711 523 672 c 0,55,56
 551 638 551 638 597 638 c 0,57,58
 635 638 635 638 669 660 c 1,43,44
EndSplineSet
Validated: 19489
Colour: ffffff
EndChar

StartChar: numbersign
Encoding: 35 35 157
Width: 1614
VWidth: 0
Flags: MW
HStem: 0 21G<394.529 578.893 934.529 1118.9> 400 238<203 435 766 975 1306 1510.06> 884 238<325 558 890 1098 1430 1632.06> 1498 20G<745.107 961.529 1285.1 1501.53>
DStem2: 349 64 615 44 0.247004 0.969014<-10.1288 346.831 659.215 846.216 1158.85 1511.83> 889 64 1155 44 0.247004 0.969014<-10.1288 346.831 659.215 846.216 1158.85 1511.83>
LayerCount: 2
Back
SplineSet
266 1122 m 2
 248 1122 242 1118 234 1082 c 2
 202 956 l 2
 188 904 200 884 240 884 c 2
 1484 884 l 2
 1514 884 1546 910 1552 940 c 2
 1578 1058 l 2
 1588 1102 1570 1122 1532 1122 c 2
 266 1122 l 2
144 638 m 2
 126 638 120 634 112 598 c 2
 80 472 l 2
 66 420 78 400 118 400 c 2
 1362 400 l 2
 1392 400 1424 426 1430 456 c 2
 1456 574 l 2
 1466 618 1448 638 1410 638 c 2
 144 638 l 2
1434 1472 m 2
 1442 1504 1424 1518 1390 1518 c 2
 1224 1518 l 2
 1194 1518 1172 1504 1164 1474 c 2
 804 64 l 2
 796 30 810 0 856 0 c 2
 1010 0 l 2
 1040 0 1062 14 1070 44 c 2
 1434 1472 l 2
894 1472 m 2
 902 1504 884 1518 850 1518 c 2
 684 1518 l 2
 654 1518 632 1504 624 1474 c 2
 264 64 l 2
 256 30 270 0 316 0 c 2
 470 0 l 2
 500 0 522 14 530 44 c 2
 894 1472 l 2
EndSplineSet
Fore
SplineSet
890 1122 m 1,0,-1
 1159 1122 l 1,1,-1
 1249 1474 l 2,2,3
 1261 1517 1261 1517 1309 1518 c 1,4,-1
 1475 1518 l 2,5,6
 1528 1517 1528 1517 1519 1472 c 1,7,-1
 1430 1122 l 1,8,-1
 1617 1122 l 2,9,10
 1676 1121 1676 1121 1663 1058 c 1,11,-1
 1637 940 l 2,12,13
 1634 928 1634 928 1626 916 c 0,14,15
 1603 884 1603 884 1569 884 c 2,16,-1
 1369 884 l 1,17,-1
 1306 638 l 1,18,-1
 1495 638 l 2,19,20
 1554 637 1554 637 1541 574 c 1,21,-1
 1515 456 l 2,22,23
 1512 444 1512 444 1504 432 c 0,24,25
 1481 400 1481 400 1447 400 c 2,26,-1
 1246 400 l 1,27,-1
 1155 44 l 2,28,29
 1143 1 1143 1 1095 0 c 1,30,-1
 941 0 l 2,31,32
 928 0 928 0 917 3 c 0,33,34
 878 16 878 16 889 64 c 2,35,-1
 975 400 l 1,36,-1
 706 400 l 1,37,-1
 615 44 l 2,38,39
 603 1 603 1 555 0 c 1,40,-1
 401 0 l 2,41,42
 388 0 388 0 377 3 c 0,43,44
 338 16 338 16 349 64 c 2,45,-1
 435 400 l 1,46,-1
 203 400 l 2,47,48
 195 400 195 400 188 401 c 0,49,50
 148 408 148 408 165 472 c 2,51,-1
 197 598 l 2,52,53
 200 613 200 613 204 623 c 0,54,55
 210 638 210 638 229 638 c 2,56,-1
 496 638 l 1,57,-1
 558 884 l 1,58,-1
 325 884 l 2,59,60
 317 884 317 884 310 885 c 0,61,62
 270 892 270 892 287 956 c 2,63,-1
 319 1082 l 2,64,65
 322 1097 322 1097 326 1107 c 0,66,67
 332 1122 332 1122 351 1122 c 2,68,-1
 619 1122 l 1,69,-1
 709 1474 l 1,70,71
 721 1517 721 1517 769 1518 c 1,72,-1
 935 1518 l 2,73,74
 988 1517 988 1517 979 1472 c 1,75,-1
 890 1122 l 1,0,-1
766 638 m 1,76,-1
 1036 638 l 1,77,-1
 1098 884 l 1,78,-1
 829 884 l 1,79,-1
 766 638 l 1,76,-1
EndSplineSet
Validated: 19489
Colour: ffffff
EndChar

StartChar: o
Encoding: 111 111 158
Width: 800
VWidth: 0
Flags: W
HStem: -16 240<354.805 473.636> 864 234<501.304 615.163>
VStem: 100 246<226.213 569.425> 622 228<491.994 863.431>
LayerCount: 2
Back
SplineSet
120 822 m 5
 50 674 0 504 0 350 c 4
 0 250 24 130 88 62 c 4
 154 -8 212 -16 286 -16 c 4
 408 -16 520 84 606 228 c 4
 692 372 750 558 750 726 c 4
 750 812 752 898 716 964 c 5
 660 1076 576 1098 490 1098 c 4
 304 1098 182 964 120 822 c 5
498 566 m 5
 490 528 458 414 410 324 c 4
 370 250 344 230 300 224 c 5
 250 234 246 270 246 350 c 4
 246 484 324 666 336 698 c 4
 374 794 412 864 472 864 c 4
 554 864 514 618 498 566 c 5
EndSplineSet
Fore
SplineSet
598 566 m 0,0,1
 622 681 622 681 622 752 c 3,2,3
 622 864 622 864 572 864 c 3,4,5
 542 864 542 864 519 842 c 0,6,7
 473 794 473 794 434 693 c 0,8,9
 346 469 346 469 346 350 c 3,10,11
 346 224 346 224 400 224 c 0,12,13
 431 225 431 225 456 248 c 0,14,15
 495 285 495 285 526 356 c 0,16,17
 579 476 579 476 598 566 c 0,0,1
220 822 m 1,18,19
 246 882 246 882 283 932 c 0,20,21
 338 1007 338 1007 406 1048 c 1,22,23
 488 1098 488 1098 590 1098 c 0,24,25
 611 1098 611 1098 630 1096 c 0,26,27
 757 1080 757 1080 816 964 c 0,28,29
 829 940 829 940 837 908 c 0,30,31
 850 857 850 857 850 726 c 0,32,33
 850 680 850 680 844 630 c 0,34,35
 818 416 818 416 706 228 c 0,36,37
 687 196 687 196 666 166 c 0,38,39
 534 -16 534 -16 386 -16 c 0,40,41
 356 -16 356 -16 335 -14 c 0,42,43
 228 -3 228 -3 163 94 c 0,44,45
 100 191 100 191 100 350 c 0,46,47
 100 568 100 568 220 822 c 1,18,19
EndSplineSet
Validated: 19457
Colour: ffffff
EndChar

StartChar: ogonek
Encoding: 731 731 162
Width: 666
VWidth: 0
Flags: W
HStem: -400 504
VStem: 103 200<-236.489 -90.4212>
LayerCount: 2
Back
SplineSet
366 104 m 1
 252 76 18 -30 18 -232 c 0
 18 -284 42 -330 74 -356 c 0
 112 -388 156 -400 222 -400 c 0
 320 -400 376 -372 392 -366 c 0
 416 -356 426 -344 418 -322 c 2
 398 -252 l 2
 390 -230 374 -224 358 -228 c 0
 332 -236 320 -242 290 -244 c 0
 252 -246 218 -228 218 -186 c 0
 218 -122 274 -44 420 4 c 0
 444 12 440 38 420 56 c 2
 366 104 l 1
EndSplineSet
Fore
SplineSet
451 104 m 1,0,1
 505 56 l 2,2,3
 513 49 513 49 518 39 c 0,4,5
 531 13 531 13 505 4 c 0,6,7
 444 -16 444 -16 399 -45 c 0,8,9
 303 -107 303 -107 303 -186 c 0,10,11
 303 -198 303 -198 307 -209 c 0,12,13
 322 -247 322 -247 375 -244 c 0,14,15
 395 -243 395 -243 443 -228 c 1,16,17
 471 -222 471 -222 483 -252 c 1,18,-1
 503 -322 l 1,19,20
 512 -350 512 -350 477 -366 c 1,21,-1
 466 -370 l 2,22,23
 455 -374 455 -374 447.5 -377 c 128,-1,24
 440 -380 440 -380 423 -385 c 128,-1,25
 406 -390 406 -390 390.5 -393 c 128,-1,26
 375 -396 375 -396 352.5 -398 c 128,-1,27
 330 -400 330 -400 307 -400 c 0,28,29
 212 -400 212 -400 159 -356 c 0,30,31
 156 -354 156 -354 153 -351 c 0,32,33
 103 -305 103 -305 103 -232 c 0,34,35
 105 -101 105 -101 231 -2 c 0,36,37
 329 74 329 74 451 104 c 1,0,1
EndSplineSet
Validated: 19489
Colour: ffffff
EndChar

StartChar: one
Encoding: 49 49 164
Width: 726
VWidth: 0
Flags: MW
HStem: 0 21G<263.14 463.435> 1340 20G<614.514 781.542>
VStem: 185 639
DStem2: 229.542 62 499.542 44 0.250158 0.968205<-6.11804 937.917>
LayerCount: 2
Back
SplineSet
334 1076 m 1
 72 62 l 2
 64 30 78 0 112 0 c 2
 282 0 l 2
 312 0 334 14 342 44 c 2
 666 1298 l 2
 674 1330 656 1362 626 1360 c 1
 334 1076 l 1
598 1316 m 1
 624 1360 l 1
 476 1360 l 2
 430 1360 376 1302 318 1248 c 2
 60 1008 l 2
 -8 944 28 890 68 890 c 2
 194 890 l 2
 224 890 256 910 276 934 c 2
 598 1316 l 1
EndSplineSet
Fore
SplineSet
779 1355 m 1,0,-1
 784 1360 l 1,1,2
 797 1361 797 1361 809 1352 c 0,3,4
 833 1333 833 1333 824 1298 c 2,5,-1
 500 44 l 2,6,7
 488 1 488 1 440 0 c 1,8,-1
 270 0 l 2,9,10
 258 0 258 0 247 6 c 0,11,12
 220 23 220 23 230 62 c 2,13,-1
 465 970 l 1,14,-1
 434 934 l 2,15,16
 396 890 396 890 352 890 c 2,17,-1
 226 890 l 2,18,19
 199 890 199 890 185 916 c 1,20,21
 164 958 164 958 218 1008 c 2,22,-1
 540 1307 l 2,23,24
 597 1360 597 1360 634 1360 c 2,25,-1
 782 1360 l 1,26,-1
 779 1355 l 1,0,-1
EndSplineSet
Validated: 19489
Colour: ffffff
EndChar

StartChar: onehalf
Encoding: 189 189 165
Width: 1998
VWidth: 0
Flags: W
HStem: 0 178<1620 1848.72> 742 152<1692.14 1787.96>
VStem: 1433 229<593.615 729.337>
DStem2: 137 20 435 -18 0.705651 0.708559<88.1019 2172.23> 1315 114 1620 178 0.689304 0.724472<256.604 732.142>
LayerCount: 2
Back
SplineSet
454 1304 m 1
 256 644 l 2
 250 624 262 604 286 604 c 2
 430 604 l 2
 452 604 468 614 474 632 c 2
 718 1448 l 2
 724 1468 710 1490 688 1488 c 1
 454 1304 l 1
666 1460 m 1
 686 1488 l 1
 560 1488 l 2
 526 1488 484 1450 442 1416 c 2
 226 1250 l 1
 176 1208 202 1172 232 1172 c 2
 342 1172 l 2
 364 1172 388 1186 404 1202 c 2
 666 1460 l 1
266 -54 m 2
 298 -54 316 -52 350 -18 c 2
 1818 1456 l 2
 1842 1480 1832 1528 1798 1528 c 2
 1604 1528 l 2
 1572 1528 1542 1516 1508 1482 c 2
 52 20 l 2
 28 -4 40 -52 74 -52 c 2
 266 -54 l 2
1384 178 m 1
 1392 36 l 1
 1796 438 l 1
 2008 656 1930 894 1686 894 c 0
 1494 894 1348 764 1348 610 c 0
 1348 592 1350 572 1382 576 c 2
 1538 594 l 2
 1570 598 1578 624 1578 628 c 0
 1578 700 1618 742 1650 742 c 0
 1746 742 1700 608 1622 526 c 2
 1230 114 l 2
 1172 52 1218 0 1266 0 c 2
 1710 0 l 2
 1732 0 1756 16 1762 36 c 2
 1784 136 l 2
 1792 164 1778 178 1750 178 c 2
 1384 178 l 1
EndSplineSet
Fore
SplineSet
351 -54 m 2,0,1
 159 -52 l 2,2,3
 138 -51 138 -51 128 -30 c 1,4,5
 116 -1 116 -1 137 20 c 2,6,-1
 1593 1482 l 2,7,8
 1638 1527 1638 1527 1689 1528 c 1,9,-1
 1883 1528 l 2,10,11
 1904 1527 1904 1527 1913 1506 c 1,12,13
 1924 1477 1924 1477 1903 1456 c 2,14,-1
 435 -18 l 2,15,16
 424 -29 424 -29 414 -37 c 0,17,18
 391 -54 391 -54 351 -54 c 2,0,1
1620 178 m 1,19,-1
 1835 178 l 1,20,21
 1876 176 1876 176 1869 136 c 1,22,-1
 1847 36 l 2,23,24
 1845 31 1845 31 1842 25 c 0,25,26
 1825 0 1825 0 1795 0 c 2,27,-1
 1351 0 l 2,28,29
 1317 1 1317 1 1298 26 c 0,30,31
 1270 65 1270 65 1315 114 c 2,32,-1
 1707 526 l 2,33,34
 1714 534 1714 534 1722 543 c 0,35,36
 1782 615 1782 615 1789 679 c 0,37,38
 1795 742 1795 742 1735 742 c 0,39,40
 1720 742 1720 742 1705 730 c 0,41,42
 1663 698 1663 698 1663 628 c 0,43,44
 1663 627 1663 627 1662 624 c 0,45,46
 1654 598 1654 598 1623 594 c 2,47,-1
 1467 576 l 2,48,49
 1461 575 1461 575 1455 576 c 0,50,51
 1433 578 1433 578 1433 610 c 0,52,53
 1434 722 1434 722 1524 804 c 0,54,55
 1623 894 1623 894 1771 894 c 0,56,57
 1858 894 1858 894 1918 855 c 0,58,59
 2004 800 2004 800 2004 693 c 0,60,61
 2005 565 2005 565 1881 438 c 1,62,-1
 1620 178 l 1,19,-1
768 1484 m 1,63,-1
 773 1488 l 1,64,65
 783 1489 783 1489 792 1483 c 0,66,67
 810 1470 810 1470 803 1448 c 2,68,-1
 559 632 l 1,69,70
 549 605 549 605 515 604 c 1,71,-1
 371 604 l 2,72,73
 362 604 362 604 354 608 c 0,74,75
 334 619 334 619 341 644 c 2,76,-1
 517 1229 l 1,77,-1
 489 1202 l 2,78,79
 459 1173 459 1173 427 1172 c 2,80,-1
 317 1172 l 2,81,82
 298 1173 298 1173 288 1187 c 1,83,84
 270 1215 270 1215 311 1250 c 1,85,-1
 527 1416 l 2,86,87
 531 1420 531 1420 541 1428 c 0,88,89
 546 1432 546 1432 549 1434 c 0,90,91
 615 1488 615 1488 645 1488 c 2,92,-1
 771 1488 l 1,93,-1
 768 1484 l 1,63,-1
EndSplineSet
Validated: 19489
Colour: ffffff
EndChar

StartChar: onequarter
Encoding: 188 188 166
Width: 1998
VWidth: 0
Flags: W
HStem: 0 21G<1589.09 1761.04> 192 156<1535 1607 1882 1953 1957.59 1958.5>
DStem2: 137 20 435 -18 0.705651 0.708559<88.1019 2172.23> 1273 324 1535 348 0.614146 0.789192<179.847 743.359> 1563 40 1789 28 0.246999 0.969016<3.96248 158.158 377.25 505.897>
LayerCount: 2
Back
SplineSet
454 1304 m 1
 256 644 l 2
 250 624 262 604 286 604 c 2
 430 604 l 2
 452 604 468 614 474 632 c 2
 718 1448 l 2
 724 1468 710 1490 688 1488 c 1
 454 1304 l 1
666 1460 m 1
 686 1488 l 1
 560 1488 l 2
 526 1488 484 1450 442 1416 c 2
 226 1250 l 1
 176 1208 202 1172 232 1172 c 2
 342 1172 l 2
 364 1172 388 1186 404 1202 c 2
 666 1460 l 1
266 -54 m 2
 298 -54 316 -52 350 -18 c 2
 1818 1456 l 2
 1842 1480 1832 1528 1798 1528 c 2
 1604 1528 l 2
 1572 1528 1542 1516 1508 1482 c 2
 52 20 l 2
 28 -4 40 -52 74 -52 c 2
 266 -54 l 2
1610 492 m 2
 1478 40 l 2
 1472 20 1482 0 1508 0 c 2
 1658 0 l 2
 1680 0 1698 10 1704 28 c 2
 1836 480 l 2
 1842 500 1830 520 1806 520 c 2
 1656 520 l 2
 1632 520 1616 510 1610 492 c 2
1818 192 m 2
 1848 192 1860 204 1870 228 c 2
 1902 310 l 2
 1910 336 1898 350 1868 348 c 1
 1330 348 l 1
 1374 254 l 1
 1842 830 l 2
 1860 854 1844 884 1818 884 c 2
 1656 884 l 2
 1630 884 1620 876 1602 856 c 2
 1188 324 l 2
 1140 264 1156 192 1254 192 c 2
 1818 192 l 2
EndSplineSet
Fore
SplineSet
1903 192 m 2,0,1
 1837 192 l 1,2,-1
 1789 28 l 1,3,4
 1779 1 1779 1 1743 0 c 1,5,-1
 1593 0 l 2,6,7
 1585 0 1585 0 1578 3 c 0,8,9
 1555 13 1555 13 1563 40 c 2,10,-1
 1607 192 l 1,11,-1
 1339 192 l 2,12,13
 1273 193 1273 193 1253 232 c 1,14,15
 1233 274 1233 274 1273 324 c 2,16,-1
 1687 856 l 2,17,18
 1690 860 1690 860 1694 863 c 0,19,20
 1714 884 1714 884 1741 884 c 2,21,-1
 1903 884 l 2,22,23
 1917 884 1917 884 1927 873 c 0,24,25
 1945 853 1945 853 1927 830 c 1,26,-1
 1535 348 l 1,27,-1
 1653 348 l 1,28,-1
 1695 492 l 1,29,30
 1705 519 1705 519 1741 520 c 1,31,-1
 1891 520 l 2,32,33
 1900 520 1900 520 1908 516 c 0,34,35
 1928 505 1928 505 1921 480 c 2,36,-1
 1882 348 l 1,37,-1
 1953 348 l 2,38,39
 1955 348 1955 348 1958 348 c 0,40,41
 1999 348 1999 348 1987 310 c 1,42,-1
 1955 228 l 2,43,44
 1954 225 1954 225 1952 221 c 0,45,46
 1938 192 1938 192 1903 192 c 2,0,1
351 -54 m 2,47,-1
 159 -52 l 2,48,49
 138 -51 138 -51 128 -30 c 1,50,51
 116 -1 116 -1 137 20 c 2,52,-1
 1593 1482 l 2,53,54
 1638 1527 1638 1527 1689 1528 c 1,55,-1
 1883 1528 l 2,56,57
 1904 1527 1904 1527 1913 1506 c 1,58,59
 1924 1477 1924 1477 1903 1456 c 2,60,-1
 435 -18 l 2,61,62
 424 -29 424 -29 414 -37 c 0,63,64
 391 -54 391 -54 351 -54 c 2,47,-1
768 1484 m 1,65,-1
 773 1488 l 1,66,67
 783 1489 783 1489 792 1483 c 0,68,69
 810 1470 810 1470 803 1448 c 2,70,-1
 559 632 l 1,71,72
 549 605 549 605 515 604 c 1,73,-1
 371 604 l 2,74,75
 362 604 362 604 354 608 c 0,76,77
 334 619 334 619 341 644 c 2,78,-1
 517 1229 l 1,79,-1
 489 1202 l 2,80,81
 459 1173 459 1173 427 1172 c 2,82,-1
 317 1172 l 2,83,84
 298 1173 298 1173 288 1187 c 1,85,86
 270 1215 270 1215 311 1250 c 1,87,-1
 527 1416 l 2,88,89
 531 1420 531 1420 541 1428 c 0,90,91
 546 1432 546 1432 549 1434 c 0,92,93
 615 1488 615 1488 645 1488 c 2,94,-1
 771 1488 l 1,95,-1
 768 1484 l 1,65,-1
EndSplineSet
Validated: 19489
Colour: ffffff
EndChar

StartChar: onesuperior
Encoding: 185 185 167
Width: 448
VWidth: 0
Flags: W
HStem: 1520 21G<677 679>
VStem: 194 515
LayerCount: 2
Back
SplineSet
360 1340 m 1
 162 680 l 2
 156 660 168 640 192 640 c 2
 336 640 l 2
 358 640 374 650 380 668 c 2
 624 1484 l 2
 630 1504 616 1526 594 1524 c 1
 360 1340 l 1
572 1496 m 1
 592 1524 l 1
 466 1524 l 2
 432 1524 390 1486 348 1452 c 2
 132 1286 l 1
 82 1244 108 1208 138 1208 c 2
 248 1208 l 2
 270 1208 294 1222 310 1238 c 2
 572 1496 l 1
EndSplineSet
Fore
SplineSet
674 1520 m 1,0,-1
 679 1524 l 1,1,2
 689 1525 689 1525 698 1519 c 0,3,4
 716 1506 716 1506 709 1484 c 2,5,-1
 465 668 l 1,6,7
 455 641 455 641 421 640 c 1,8,-1
 277 640 l 2,9,10
 268 640 268 640 260 644 c 0,11,12
 240 655 240 655 247 680 c 2,13,-1
 423 1265 l 1,14,-1
 395 1238 l 2,15,16
 365 1209 365 1209 333 1208 c 2,17,-1
 223 1208 l 2,18,19
 204 1209 204 1209 194 1223 c 1,20,21
 176 1251 176 1251 217 1286 c 1,22,-1
 433 1452 l 2,23,24
 437 1456 437 1456 447 1464 c 0,25,26
 452 1468 452 1468 455 1470 c 0,27,28
 521 1524 521 1524 551 1524 c 2,29,-1
 677 1524 l 1,30,-1
 674 1520 l 1,0,-1
EndSplineSet
Validated: 19489
Colour: ffffff
EndChar

StartChar: ordfeminine
Encoding: 170 170 168
Width: 660
VWidth: 0
Flags: W
VStem: 233 170<946.498 1086.06>
LayerCount: 2
Back
SplineSet
474 1262 m 1
 308 1260 148 1110 148 950 c 0
 148 890 178 840 242 812 c 0
 308 784 394 820 440 888 c 1
 508 900 l 1
 582 1028 672 1328 650 1434 c 0
 634 1510 554 1528 502 1540 c 0
 430 1556 272 1446 244 1388 c 0
 240 1380 244 1364 256 1358 c 1
 320 1298 l 2
 328 1292 340 1294 346 1300 c 0
 368 1324 418 1352 442 1358 c 1
 466 1350 478 1338 464 1276 c 0
 434 1126 416 1074 390 1006 c 0
 382 984 350 946 336 946 c 0
 322 946 318 954 318 982 c 0
 318 1058 376 1120 442 1120 c 1
 474 1262 l 1
392 888 m 1
 434 812 l 2
 440 802 468 798 480 800 c 0
 572 818 654 902 702 986 c 0
 708 996 706 1008 690 1016 c 2
 624 1048 l 2
 608 1056 598 1050 592 1036 c 0
 570 988 474 914 392 888 c 1
EndSplineSet
Fore
SplineSet
513 1119 m 1,0,1
 483 1115 483 1115 456 1095 c 0,2,3
 403 1053 403 1053 403 982 c 0,4,5
 403 972 403 972 404 965 c 0,6,7
 406 946 406 946 421 946 c 0,8,9
 427 946 427 946 437 955 c 0,10,11
 465 979 465 979 475 1006 c 0,12,13
 500 1070 500 1070 513 1119 c 1,0,1
633 981 m 1,14,15
 665 1010 665 1010 677 1036 c 0,16,17
 687 1057 687 1057 709 1048 c 1,18,-1
 775 1016 l 1,19,20
 796 1004 796 1004 787 986 c 1,21,22
 772 959 772 959 752 933 c 0,23,24
 666 820 666 820 565 800 c 0,25,26
 563 800 563 800 559 800 c 0,27,28
 527 800 527 800 519 812 c 2,29,-1
 496 854 l 1,30,31
 482 841 482 841 464 829 c 0,32,33
 392 784 392 784 327 812 c 1,34,35
 234 853 234 853 233 950 c 0,36,37
 233 958 233 958 234 968 c 0,38,39
 242 1079 242 1079 335 1167 c 0,40,41
 429 1255 429 1255 546 1262 c 1,42,-1
 549 1276 l 2,43,44
 556 1309 556 1309 554 1327 c 0,45,46
 551 1349 551 1349 527 1358 c 1,47,48
 521 1356 521 1356 512 1353 c 0,49,50
 460 1331 460 1331 431 1300 c 1,51,52
 419 1289 419 1289 405 1298 c 1,53,-1
 341 1358 l 2,54,55
 339 1359 339 1359 336 1362 c 0,56,57
 323 1375 323 1375 329 1388 c 0,58,59
 329 1389 329 1389 330 1390 c 0,60,61
 353 1433 353 1433 432 1486 c 0,62,63
 533 1553 533 1553 587 1540 c 2,64,-1
 588 1540 l 2,65,66
 613 1534 613 1534 632 1528 c 128,-1,67
 651 1522 651 1522 674.5 1511 c 128,-1,68
 698 1500 698 1500 713.5 1480.5 c 128,-1,69
 729 1461 729 1461 735 1434 c 0,70,71
 743 1392 743 1392 730 1310 c 0,72,73
 704 1149 704 1149 633 981 c 1,14,15
EndSplineSet
Validated: 19489
Colour: ffffff
EndChar

StartChar: ordmasculine
Encoding: 186 186 169
Width: 748
VWidth: 0
Flags: W
HStem: 828 158<498.61 617.903>
VStem: 295 202<986.939 1252.8> 707 188<1106.31 1370.12>
LayerCount: 2
Back
SplineSet
210 1082 m 0
 210 1006 228 938 286 884 c 0
 324 848 376 828 452 828 c 0
 680 828 810 1112 810 1278 c 0
 810 1350 802 1398 772 1448 c 0
 740 1502 670 1530 592 1530 c 0
 346 1530 210 1278 210 1082 c 0
456 986 m 0
 416 986 412 1014 412 1064 c 0
 412 1152 474 1372 568 1372 c 0
 604 1372 622 1350 622 1296 c 1
 616 1202 564 986 456 986 c 0
EndSplineSet
Fore
SplineSet
541 986 m 0,0,1
 609 987 609 987 658 1097 c 1,2,3
 700 1192 700 1192 707 1296 c 1,4,5
 705 1366 705 1366 653 1372 c 1,6,7
 590 1367 590 1367 536 1242 c 1,8,9
 497 1142 497 1142 497 1064 c 0,10,11
 497 1037 497 1037 500 1022 c 0,12,13
 506 986 506 986 541 986 c 0,0,1
295 1082 m 0,14,15
 295 1102 295 1102 297 1124 c 0,16,17
 311 1273 311 1273 400 1388 c 0,18,19
 510 1530 510 1530 677 1530 c 0,20,21
 694 1530 694 1530 710 1528 c 0,22,23
 816 1517 816 1517 857 1448 c 0,24,25
 859 1445 859 1445 861 1441 c 0,26,27
 895 1381 895 1381 895 1278 c 0,28,29
 895 1254 895 1254 891 1225 c 0,30,31
 872 1089 872 1089 791 976 c 0,32,33
 685 828 685 828 537 828 c 0,34,35
 431 828 431 828 371 884 c 0,36,37
 296 955 296 955 295 1082 c 0,14,15
EndSplineSet
Validated: 19457
Colour: ffffff
EndChar

StartChar: oslash
Encoding: 248 248 170
Width: 752
VWidth: 0
Flags: W
HStem: -16 21G<355.786 445.03> 864 234<502.466 599.231>
DStem2: -95 166 49 16 0.739483 0.673175<-60.8034 132.914 624.971 727.368 1203.28 1419.14>
LayerCount: 2
Back
SplineSet
990 950 m 2
 1016 972 1002 996 976 1020 c 2
 898 1090 l 2
 870 1116 848 1106 826 1086 c 2
 634 910 l 1
 598 858 l 1
 220 512 l 1
 154 472 l 1
 -180 166 l 2
 -224 124 -208 104 -184 76 c 2
 -108 -6 l 2
 -88 -26 -58 -4 -36 16 c 2
 178 210 l 1
 206 262 l 1
 582 604 l 1
 664 652 l 1
 990 950 l 2
120 822 m 1
 50 674 0 504 0 350 c 0
 0 250 24 130 88 62 c 0
 154 -8 212 -16 286 -16 c 0
 408 -16 520 84 606 228 c 0
 692 372 750 558 750 726 c 0
 750 812 752 898 716 964 c 1
 660 1076 576 1098 490 1098 c 0
 304 1098 182 964 120 822 c 1
498 566 m 1
 490 528 458 414 410 324 c 0
 370 250 344 230 300 224 c 1
 250 234 246 270 246 350 c 0
 246 484 324 666 336 698 c 0
 374 794 412 864 472 864 c 0
 554 864 514 618 498 566 c 1
EndSplineSet
Fore
SplineSet
205 822 m 1,0,1
 231 882 231 882 268 932 c 0,2,3
 390 1098 390 1098 575 1098 c 0,4,5
 591 1098 591 1098 606 1097 c 0,6,7
 731 1088 731 1088 793 978 c 1,8,-1
 911 1086 l 2,9,10
 948 1119 948 1119 983 1090 c 1,11,-1
 1061 1020 l 1,12,13
 1106 978 1106 978 1075 950 c 2,14,-1
 835 731 l 1,15,-1
 835 726 l 2,16,17
 835 680 835 680 829 630 c 0,18,19
 803 416 803 416 691 228 c 0,20,21
 672 196 672 196 651 166 c 0,22,23
 519 -16 519 -16 371 -16 c 0,24,25
 341 -16 341 -16 320 -14 c 0,26,27
 237 -5 237 -5 173 62 c 0,28,29
 159 77 159 77 143 102 c 1,30,-1
 49 16 l 2,31,32
 1 -28 1 -28 -23 -6 c 1,33,-1
 -99 76 l 2,34,35
 -111 90 -111 90 -117 99 c 0,36,37
 -134 129 -134 129 -95 166 c 1,38,-1
 85 331 l 1,39,-1
 85 350 l 2,40,41
 85 568 85 568 205 822 c 1,0,1
332 300 m 1,42,43
 333 285 333 285 336 273 c 0,44,45
 345 232 345 232 385 224 c 1,46,47
 403 227 403 227 418 233 c 0,48,49
 455 250 455 250 495 324 c 0,50,51
 538 405 538 405 570 516 c 1,52,-1
 332 300 l 1,42,43
605 787 m 1,53,54
 598 862 598 862 557 864 c 1,55,56
 537 864 537 864 518 853 c 0,57,58
 471 825 471 825 421 698 c 0,59,60
 391 622 391 622 376 577 c 1,61,-1
 605 787 l 1,53,54
EndSplineSet
Validated: 19489
Colour: ffffff
EndChar

